<svg xmlns="http://www.w3.org/2000/svg" xmlns:xlink="http://www.w3.org/1999/xlink" contentStyleType="text/css" data-diagram-type="DESCRIPTION" height="677px" preserveAspectRatio="none" style="width:2555px;height:677px;background:#FFFFFF;" version="1.1" viewBox="0 0 2555 677" width="2555px" zoomAndPan="magnify"><?plantuml 1.2026.6?><defs/><g><g class="title" data-source-line="10"><text fill="#000000" font-family="Helvetica" font-size="22" font-weight="700" lengthAdjust="spacing" textLength="254.2568" x="1149.4261" y="31.9404">Component architecture</text></g><!--cluster Consuming project--><g class="cluster" data-qualified-name="Consuming project" data-source-line="12" id="ent0001"><path d="M2101.5,251 L2230.0586,251 A3.75,3.75 0 0 1 2232.5586,253.5 L2239.5586,271 L2451.5,271 A2.5,2.5 0 0 1 2454,273.5 L2454,503.5 A2.5,2.5 0 0 1 2451.5,506 L2101.5,506 A2.5,2.5 0 0 1 2099,503.5 L2099,253.5 A2.5,2.5 0 0 1 2101.5,251" fill="#FFF3E0" style="stroke:#000000;stroke-width:1;"/><line style="stroke:#000000;stroke-width:1;" x1="2099" x2="2239.5586" y1="271" y2="271"/><text fill="#000000" font-family="Helvetica" font-size="14" font-weight="700" lengthAdjust="spacing" textLength="127.5586" x="2103" y="263.7803">Consuming project</text></g><!--cluster drevops/behat-steps--><g class="cluster" data-qualified-name="drevops.behat-steps" data-source-line="18" id="ent0005"><path d="M13.5,54 L151.4238,54 A3.75,3.75 0 0 1 153.9238,56.5 L160.9238,74 L1502.5,74 A2.5,2.5 0 0 1 1505,76.5 L1505,534.5 A2.5,2.5 0 0 1 1502.5,537 L13.5,537 A2.5,2.5 0 0 1 11,534.5 L11,56.5 A2.5,2.5 0 0 1 13.5,54" fill="#FFFFFF" style="stroke:#000000;stroke-width:1;"/><line style="stroke:#000000;stroke-width:1;" x1="11" x2="160.9238" y1="74" y2="74"/><text fill="#000000" font-family="Helvetica" font-size="14" font-weight="700" lengthAdjust="spacing" textLength="136.9238" x="15" y="66.7803">drevops/behat-steps</text></g><!--cluster Vocabulary - src/Steps--><g class="cluster" data-qualified-name="drevops.behat-steps.Vocabulary - src.Steps" data-source-line="20" id="ent0006"><path d="M37.5,102 L189.4512,102 A3.75,3.75 0 0 1 191.9512,104.5 L198.9512,122 L406.5,122 A2.5,2.5 0 0 1 409,124.5 L409,352.5 A2.5,2.5 0 0 1 406.5,355 L37.5,355 A2.5,2.5 0 0 1 35,352.5 L35,104.5 A2.5,2.5 0 0 1 37.5,102" fill="#E3F2FD" style="stroke:#000000;stroke-width:1;"/><line style="stroke:#000000;stroke-width:1;" x1="35" x2="198.9512" y1="122" y2="122"/><text fill="#000000" font-family="Helvetica" font-size="14" font-weight="700" lengthAdjust="spacing" textLength="150.9512" x="39" y="114.7803">Vocabulary - src/Steps</text></g><!--cluster Integration - src/Behat--><g class="cluster" data-qualified-name="drevops.behat-steps.Integration - src.Behat" data-source-line="26" id="ent0010"><path d="M481.5,95 L631.0791,95 A3.75,3.75 0 0 1 633.5791,97.5 L640.5791,115 L906.5,115 A2.5,2.5 0 0 1 909,117.5 L909,359.5 A2.5,2.5 0 0 1 906.5,362 L481.5,362 A2.5,2.5 0 0 1 479,359.5 L479,97.5 A2.5,2.5 0 0 1 481.5,95" fill="#F3E5F5" style="stroke:#000000;stroke-width:1;"/><line style="stroke:#000000;stroke-width:1;" x1="479" x2="640.5791" y1="115" y2="115"/><text fill="#000000" font-family="Helvetica" font-size="14" font-weight="700" lengthAdjust="spacing" textLength="148.5791" x="483" y="107.7803">Integration - src/Behat</text></g><!--cluster Driver - src/Driver--><g class="cluster" data-qualified-name="drevops.behat-steps.Driver - src.Driver" data-source-line="33" id="ent0015"><path d="M935.5,258 L1054.7891,258 A3.75,3.75 0 0 1 1057.2891,260.5 L1064.2891,278 L1478.5,278 A2.5,2.5 0 0 1 1481,280.5 L1481,510.5 A2.5,2.5 0 0 1 1478.5,513 L935.5,513 A2.5,2.5 0 0 1 933,510.5 L933,260.5 A2.5,2.5 0 0 1 935.5,258" fill="#E8F5E9" style="stroke:#000000;stroke-width:1;"/><line style="stroke:#000000;stroke-width:1;" x1="933" x2="1064.2891" y1="278" y2="278"/><text fill="#000000" font-family="Helvetica" font-size="14" font-weight="700" lengthAdjust="spacing" textLength="118.2891" x="937" y="270.7803">Driver - src/Driver</text></g><!--cluster Runtime and targets--><g class="cluster" data-qualified-name="Runtime and targets" data-source-line="42" id="ent0021"><path d="M1531.5,409 L1667.8516,409 A3.75,3.75 0 0 1 1670.3516,411.5 L1677.3516,429 L2072.5,429 A2.5,2.5 0 0 1 2075,431.5 L2075,659.5 A2.5,2.5 0 0 1 2072.5,662 L1531.5,662 A2.5,2.5 0 0 1 1529,659.5 L1529,411.5 A2.5,2.5 0 0 1 1531.5,409" fill="#ECEFF1" style="stroke:#000000;stroke-width:1;"/><line style="stroke:#000000;stroke-width:1;" x1="1529" x2="1677.3516" y1="429" y2="429"/><text fill="#000000" font-family="Helvetica" font-size="14" font-weight="700" lengthAdjust="spacing" textLength="135.3516" x="1533" y="421.7803">Runtime and targets</text></g><!--entity Features--><g class="entity" data-qualified-name="Consuming project.Features" data-source-line="13" id="ent0002"><rect fill="#FFFFFF" height="48" rx="2.5" ry="2.5" style="stroke:#000000;stroke-width:1;" width="97.0342" x="2340.48" y="291"/><text fill="#000000" font-family="Helvetica" font-size="14" lengthAdjust="spacing" textLength="77.0342" x="2350.48" y="311.7803">Feature files</text><ellipse cx="2355.98" cy="321.5" fill="#000000" rx="2.5" ry="2.5"/><text fill="#000000" font-family="Helvetica" font-size="14" lengthAdjust="spacing" textLength="47.4756" x="2362.48" y="325.7803">.feature</text></g><!--entity Config--><g class="entity" data-qualified-name="Consuming project.Config" data-source-line="14" id="ent0003"><rect fill="#FFFFFF" height="48" rx="2.5" ry="2.5" style="stroke:#000000;stroke-width:1;" width="148.4199" x="2289.79" y="442"/><text fill="#000000" font-family="Helvetica" font-size="14" lengthAdjust="spacing" textLength="60.6963" x="2299.79" y="462.7803">behat.yml</text><text fill="#000000" font-family="Helvetica" font-size="14" lengthAdjust="spacing" textLength="128.4199" x="2299.79" y="476.7803">behat_steps settings</text></g><!--entity Consumer--><g class="entity" data-qualified-name="Consuming project.Consumer" data-source-line="15" id="ent0004"><rect fill="#FFFFFF" height="62" rx="2.5" ry="2.5" style="stroke:#000000;stroke-width:1;" width="190.4199" x="2114.79" y="284"/><text fill="#000000" font-family="Helvetica" font-size="14" lengthAdjust="spacing" textLength="96.4961" x="2124.79" y="304.7803">FeatureContext</text><text fill="#000000" font-family="Helvetica" font-size="14" lengthAdjust="spacing" textLength="133.0684" x="2124.79" y="318.7803">extends RawContext,</text><text fill="#000000" font-family="Helvetica" font-size="14" lengthAdjust="spacing" textLength="170.4199" x="2124.79" y="332.7803">composes the chosen traits</text></g><!--entity Generic--><g class="entity" data-qualified-name="drevops.behat-steps.Vocabulary - src.Steps.Generic" data-source-line="21" id="ent0007"><rect fill="#FFFFFF" height="48" rx="2.5" ry="2.5" style="stroke:#000000;stroke-width:1;" width="136.71" x="50.65" y="135"/><text fill="#000000" font-family="Helvetica" font-size="14" lengthAdjust="spacing" textLength="88.71" x="60.65" y="155.7803">Steps\Generic</text><text fill="#000000" font-family="Helvetica" font-size="14" lengthAdjust="spacing" textLength="116.71" x="60.65" y="169.7803">29 traits, Mink only</text></g><!--entity DrupalSteps--><g class="entity" data-qualified-name="drevops.behat-steps.Vocabulary - src.Steps.DrupalSteps" data-source-line="22" id="ent0008"><rect fill="#FFFFFF" height="48" rx="2.5" ry="2.5" style="stroke:#000000;stroke-width:1;" width="170.9717" x="222.51" y="135"/><text fill="#000000" font-family="Helvetica" font-size="14" lengthAdjust="spacing" textLength="80.9307" x="232.51" y="155.7803">Steps\Drupal</text><text fill="#000000" font-family="Helvetica" font-size="14" lengthAdjust="spacing" textLength="150.9717" x="232.51" y="169.7803">30 traits, need the driver</text></g><!--entity Helpers--><g class="entity" data-qualified-name="drevops.behat-steps.Vocabulary - src.Steps.Helpers" data-source-line="23" id="ent0009"><rect fill="#F3E5F5" height="48" rx="2.5" ry="2.5" style="stroke:#000000;stroke-width:1;" width="156.1924" x="109.9" y="291"/><text fill="#000000" font-family="Helvetica" font-size="14" lengthAdjust="spacing" textLength="96.4756" x="119.9" y="311.7803">HelperTrait pair</text><text fill="#000000" font-family="Helvetica" font-size="14" lengthAdjust="spacing" textLength="136.1924" x="119.9" y="325.7803">shared logic, no steps</text></g><!--entity Ext--><g class="entity" data-qualified-name="drevops.behat-steps.Integration - src.Behat.Ext" data-source-line="27" id="ent0011"><rect fill="#FFFFFF" height="48" rx="2.5" ry="2.5" style="stroke:#000000;stroke-width:1;" width="153.8682" x="495.07" y="135"/><text fill="#000000" font-family="Helvetica" font-size="14" lengthAdjust="spacing" textLength="133.8682" x="505.07" y="155.7803">BehatStepsExtension</text><text fill="#000000" font-family="Helvetica" font-size="14" lengthAdjust="spacing" textLength="84.7998" x="505.07" y="169.7803">service wiring</text></g><!--entity RawCtx--><g class="entity" data-qualified-name="drevops.behat-steps.Integration - src.Behat.RawCtx" data-source-line="28" id="ent0012"><rect fill="#FFFFFF" height="62" rx="2.5" ry="2.5" style="stroke:#000000;stroke-width:1;" width="209.1162" x="683.44" y="128"/><text fill="#000000" font-family="Helvetica" font-size="14" lengthAdjust="spacing" textLength="76.2549" x="693.44" y="148.7803">RawContext</text><text fill="#000000" font-family="Helvetica" font-size="14" lengthAdjust="spacing" textLength="110.4893" x="693.44" y="162.7803">scenario lifecycle,</text><text fill="#000000" font-family="Helvetica" font-size="14" lengthAdjust="spacing" textLength="189.1162" x="693.44" y="176.7803">entity creation, cleanup, hooks</text></g><!--entity Managers--><g class="entity" data-qualified-name="drevops.behat-steps.Integration - src.Behat.Managers" data-source-line="29" id="ent0013"><rect fill="#FFFFFF" height="62" rx="2.5" ry="2.5" style="stroke:#000000;stroke-width:1;" width="157.7305" x="735.13" y="284"/><text fill="#000000" font-family="Helvetica" font-size="14" lengthAdjust="spacing" textLength="62.2549" x="745.13" y="304.7803">Managers</text><text fill="#000000" font-family="Helvetica" font-size="14" lengthAdjust="spacing" textLength="137.7305" x="745.13" y="318.7803">Driver, Authentication,</text><text fill="#000000" font-family="Helvetica" font-size="14" lengthAdjust="spacing" textLength="63.0068" x="745.13" y="332.7803">User, Mail</text></g><!--entity MinkExt--><g class="entity" data-qualified-name="drevops.behat-steps.Integration - src.Behat.MinkExt" data-source-line="30" id="ent0014"><rect fill="#FFFFFF" height="48" rx="2.5" ry="2.5" style="stroke:#000000;stroke-width:1;" width="111.041" x="589.48" y="291"/><text fill="#000000" font-family="Helvetica" font-size="14" lengthAdjust="spacing" textLength="91.041" x="599.48" y="311.7803">MinkExtension</text><text fill="#000000" font-family="Helvetica" font-size="14" lengthAdjust="spacing" textLength="85.5654" x="599.48" y="325.7803">first-party fork</text></g><!--entity DriverIface--><g class="entity" data-qualified-name="drevops.behat-steps.Driver - src.Driver.DriverIface" data-source-line="34" id="ent0016"><rect fill="#FFFFFF" height="48" rx="2.5" ry="2.5" style="stroke:#000000;stroke-width:1;" width="174.4785" x="948.76" y="442"/><text fill="#000000" font-family="Helvetica" font-size="14" lengthAdjust="spacing" textLength="91.8066" x="958.76" y="462.7803">DriverInterface</text><text fill="#000000" font-family="Helvetica" font-size="14" lengthAdjust="spacing" textLength="154.4785" x="958.76" y="476.7803">+ 14 capability interfaces</text></g><!--entity DrupalDrv--><g class="entity" data-qualified-name="drevops.behat-steps.Driver - src.Driver.DrupalDrv" data-source-line="35" id="ent0017"><rect fill="#FFFFFF" height="48" rx="2.5" ry="2.5" style="stroke:#000000;stroke-width:1;" width="198.9717" x="1266.51" y="291"/><text fill="#000000" font-family="Helvetica" font-size="14" lengthAdjust="spacing" textLength="78.5723" x="1276.51" y="311.7803">DrupalDriver</text><text fill="#000000" font-family="Helvetica" font-size="14" lengthAdjust="spacing" textLength="178.9717" x="1276.51" y="325.7803">bootstraps Drupal in-process</text></g><!--entity DrushDrv--><g class="entity" data-qualified-name="drevops.behat-steps.Driver - src.Driver.DrushDrv" data-source-line="36" id="ent0018"><rect fill="#FFFFFF" height="48" rx="2.5" ry="2.5" style="stroke:#000000;stroke-width:1;" width="133.6201" x="1098.19" y="291"/><text fill="#000000" font-family="Helvetica" font-size="14" lengthAdjust="spacing" textLength="74.6758" x="1108.19" y="311.7803">DrushDriver</text><text fill="#000000" font-family="Helvetica" font-size="14" lengthAdjust="spacing" textLength="113.6201" x="1108.19" y="325.7803">shells out to drush</text></g><!--entity BlackboxDrv--><g class="entity" data-qualified-name="drevops.behat-steps.Driver - src.Driver.BlackboxDrv" data-source-line="37" id="ent0019"><rect fill="#FFFFFF" height="48" rx="2.5" ry="2.5" style="stroke:#000000;stroke-width:1;" width="114.165" x="948.92" y="291"/><text fill="#000000" font-family="Helvetica" font-size="14" lengthAdjust="spacing" textLength="94.1377" x="958.92" y="311.7803">BlackboxDriver</text><text fill="#000000" font-family="Helvetica" font-size="14" lengthAdjust="spacing" textLength="94.165" x="958.92" y="325.7803">no Drupal at all</text></g><!--entity Core--><g class="entity" data-qualified-name="drevops.behat-steps.Driver - src.Driver.Core" data-source-line="38" id="ent0020"><rect fill="#FFFFFF" height="62" rx="2.5" ry="2.5" style="stroke:#000000;stroke-width:1;" width="176.3994" x="1277.8" y="435"/><text fill="#000000" font-family="Helvetica" font-size="14" lengthAdjust="spacing" textLength="30.3447" x="1287.8" y="455.7803">Core</text><text fill="#000000" font-family="Helvetica" font-size="14" lengthAdjust="spacing" textLength="156.3994" x="1287.8" y="469.7803">field handlers, classifiers,</text><text fill="#000000" font-family="Helvetica" font-size="14" lengthAdjust="spacing" textLength="151.7373" x="1287.8" y="483.7803">parsers, creation aliases</text></g><!--entity Behat--><g class="entity" data-qualified-name="Runtime and targets.Behat" data-source-line="43" id="ent0022"><rect fill="#FFFFFF" height="48" rx="2.5" ry="2.5" style="stroke:#000000;stroke-width:1;" width="175.6543" x="1883.17" y="442"/><text fill="#000000" font-family="Helvetica" font-size="14" lengthAdjust="spacing" textLength="36.5859" x="1893.17" y="462.7803">Behat</text><text fill="#000000" font-family="Helvetica" font-size="14" lengthAdjust="spacing" textLength="155.6543" x="1893.17" y="476.7803">step matching and hooks</text></g><!--entity Mink--><g class="entity" data-qualified-name="Runtime and targets.Mink" data-source-line="44" id="ent0023"><rect fill="#FFFFFF" height="34" rx="2.5" ry="2.5" style="stroke:#000000;stroke-width:1;" width="100.917" x="1747.54" y="449"/><text fill="#000000" font-family="Helvetica" font-size="14" lengthAdjust="spacing" textLength="80.917" x="1757.54" y="469.7803">Mink session</text></g><!--entity Browser--><g class="entity" data-qualified-name="Runtime and targets.Browser" data-source-line="45" id="ent0024"><rect fill="#FFFFFF" height="62" rx="2.5" ry="2.5" style="stroke:#000000;stroke-width:1;" width="165.5029" x="1715.25" y="584"/><text fill="#000000" font-family="Helvetica" font-size="14" lengthAdjust="spacing" textLength="51.3447" x="1725.25" y="604.7803">Browser</text><text fill="#000000" font-family="Helvetica" font-size="14" lengthAdjust="spacing" textLength="145.5029" x="1725.25" y="618.7803">BrowserKit, Selenium2,</text><text fill="#000000" font-family="Helvetica" font-size="14" lengthAdjust="spacing" textLength="112.8135" x="1725.25" y="632.7803">Chrome DevTools</text></g><!--entity Site--><g class="entity" data-qualified-name="Runtime and targets.Site" data-source-line="46" id="ent0025"><rect fill="#FFFFFF" height="48" rx="2.5" ry="2.5" style="stroke:#000000;stroke-width:1;" width="167.8545" x="1545.07" y="442"/><text fill="#000000" font-family="Helvetica" font-size="14" lengthAdjust="spacing" textLength="66.917" x="1555.07" y="462.7803">Drupal site</text><text fill="#000000" font-family="Helvetica" font-size="14" lengthAdjust="spacing" textLength="147.8545" x="1555.07" y="476.7803">entity API, config, drush</text></g><g class="entity" data-qualified-name="GMN47" data-source-line="76" id="ent0048"><path d="M856.78,590.5 L856.78,639.5 A0,0 0 0 0 856.78,639.5 L1215.2278,639.5 A0,0 0 0 0 1215.2278,639.5 L1215.2278,600.5 L1205.2278,590.5 L1040,590.5 L1036,490.29 L1032,590.5 L856.78,590.5 A0,0 0 0 0 856.78,590.5" fill="#FFFFFF" style="stroke:#000000;stroke-width:1;"/><path d="M1205.2278,590.5 L1205.2278,600.5 L1215.2278,600.5 L1205.2278,590.5" fill="#FFFFFF" style="stroke:#000000;stroke-width:1;"/><text fill="#000000" font-family="Helvetica" font-size="13" lengthAdjust="spacing" textLength="318.6396" x="862.78" y="605.5103">The driver layer references nothing from Behat or Mink,</text><text fill="#000000" font-family="Helvetica" font-size="13" lengthAdjust="spacing" textLength="207.4097" x="862.78" y="618.5103">so it is usable without Behat loaded.</text><text fill="#000000" font-family="Helvetica" font-size="13" lengthAdjust="spacing" textLength="337.4478" x="862.78" y="631.5103">scripts/lint-layers.php fails the build on any such reference.</text></g><!--link Features to Behat--><g class="link" data-entity-1="ent0002" data-entity-2="ent0022" data-link-type="dependency" data-source-line="49" id="lnk26"><path d="M2365.39,339.49 C2353.53,350.14 2338.42,362.1 2323,370 C2287.79,388.04 2276.06,386.71 2237,393 C2176.34,402.76 2158.36,385.16 2099,401 C2066.47,409.68 2036.8361,424.5759 2012.0761,439.0559" fill="none" id="Features-to-Behat" style="stroke:#000000;stroke-width:1;"/><polygon fill="#000000" points="2007.76,441.58,2017.5483,440.4895,2012.0761,439.0559,2013.5097,433.5837,2007.76,441.58" style="stroke:#000000;stroke-width:1;stroke-linejoin:miter;stroke-miterlimit:10;"/><text fill="#000000" font-family="Helvetica" font-size="13" lengthAdjust="spacing" textLength="31.0718" x="2306.97" y="389.0103">steps</text></g><!--link Config to Ext--><g class="link" data-entity-1="ent0003" data-entity-2="ent0011" data-link-type="dependency" data-source-line="50" id="lnk27"><path d="M2396.69,441.7 C2417.73,424.57 2443.25,399.25 2455,370 C2476.04,317.62 2494.32,283.5 2455,243 C2385.74,171.66 764.01,206.75 666,190 C656.63,188.4 651.7154,187.4261 642.2354,184.7761" fill="none" id="Config-to-Ext" style="stroke:#000000;stroke-width:1;"/><polygon fill="#000000" points="637.42,183.43,645.0109,189.7053,642.2354,184.7761,647.1646,182.0006,637.42,183.43" style="stroke:#000000;stroke-width:1;stroke-linejoin:miter;stroke-miterlimit:10;"/><text fill="#000000" font-family="Helvetica" font-size="13" lengthAdjust="spacing" textLength="59.979" x="2479.13" y="318.5103">configures</text></g><!--link Behat to Consumer--><g class="link" data-entity-1="ent0022" data-entity-2="ent0004" data-link-type="dependency" data-source-line="51" id="lnk28"><path d="M2008.61,441.55 C2049.85,415.84 2111.9272,377.1454 2157.1072,348.9754" fill="none" id="Behat-to-Consumer" style="stroke:#000000;stroke-width:1;"/><polygon fill="#000000" points="2161.35,346.33,2151.5965,347.6975,2157.1072,348.9754,2155.8292,354.4861,2161.35,346.33" style="stroke:#000000;stroke-width:1;stroke-linejoin:miter;stroke-miterlimit:10;"/><text fill="#000000" font-family="Helvetica" font-size="13" lengthAdjust="spacing" textLength="122.1226" x="2105.81" y="389.0103">matches and invokes</text></g><!--link Generic to Consumer--><g class="link" data-entity-1="ent0007" data-entity-2="ent0004" data-link-type="dependency" data-source-line="53" id="lnk29"><path d="M179,183.42 C187.62,186.05 196.46,188.37 205,190 C358.79,219.44 752.56,213.21 909,220 C1059.67,226.54 1097.3,229.08 1248,235 C1351.54,239.07 1377.61,236.2 1481,243 C1708.6,257.98 1970.1924,286.2514 2109.3724,302.1814" fill="none" id="Generic-to-Consumer" style="stroke:#000000;stroke-width:1;"/><polygon fill="#000000" points="2114.34,302.75,2105.8532,297.7525,2109.3724,302.1814,2104.9435,305.7006,2114.34,302.75" style="stroke:#000000;stroke-width:1;stroke-linejoin:miter;stroke-miterlimit:10;"/><text fill="#000000" font-family="Helvetica" font-size="13" lengthAdjust="spacing" textLength="59.249" x="1249" y="231.0103">mixed into</text></g><!--link DrupalSteps to Consumer--><g class="link" data-entity-1="ent0008" data-entity-2="ent0004" data-link-type="dependency" data-source-line="54" id="lnk30"><path d="M393.79,177.44 C420.93,182.31 451.12,187.07 479,190 C849.64,228.96 945.24,193.81 1317,220 C1608.18,240.51 1946.1987,280.689 2109.4187,301.119" fill="none" id="DrupalSteps-to-Consumer" style="stroke:#000000;stroke-width:1;"/><polygon fill="#000000" points="2114.38,301.74,2105.9465,296.6532,2109.4187,301.119,2104.9529,304.5912,2114.38,301.74" style="stroke:#000000;stroke-width:1;stroke-linejoin:miter;stroke-miterlimit:10;"/><text fill="#000000" font-family="Helvetica" font-size="13" lengthAdjust="spacing" textLength="59.249" x="1489.27" y="231.0103">mixed into</text></g><!--link Generic to Helpers--><g class="link" data-entity-1="ent0007" data-entity-2="ent0009" data-link-type="dependency" data-source-line="55" id="lnk31"><path d="M129.48,183.39 C142.49,212.42 162.4953,257.0672 175.4953,286.0772" fill="none" id="Generic-to-Helpers" style="stroke:#000000;stroke-width:1;stroke-dasharray:7,7;"/><polygon fill="#000000" points="177.54,290.64,177.5098,280.7912,175.4953,286.0772,170.2093,284.0627,177.54,290.64" style="stroke:#000000;stroke-width:1;stroke-linejoin:miter;stroke-miterlimit:10;"/><text fill="#000000" font-family="Helvetica" font-size="13" lengthAdjust="spacing" textLength="27.46" x="152.43" y="231.0103">uses</text></g><!--link DrupalSteps to Helpers--><g class="link" data-entity-1="ent0008" data-entity-2="ent0009" data-link-type="dependency" data-source-line="56" id="lnk32"><path d="M289.77,183.39 C267.15,212.42 231.8837,257.6863 209.2737,286.6963" fill="none" id="DrupalSteps-to-Helpers" style="stroke:#000000;stroke-width:1;stroke-dasharray:7,7;"/><polygon fill="#000000" points="206.2,290.64,214.8875,286.0003,209.2737,286.6963,208.5776,281.0824,206.2,290.64" style="stroke:#000000;stroke-width:1;stroke-linejoin:miter;stroke-miterlimit:10;"/><text fill="#000000" font-family="Helvetica" font-size="13" lengthAdjust="spacing" textLength="27.46" x="259.75" y="231.0103">uses</text></g><!--link Consumer to RawCtx--><g class="link" data-entity-1="ent0004" data-entity-2="ent0012" data-link-type="extension" data-source-line="58" id="lnk33"><path d="M2154.97,283.71 C2111.99,261.7 2050.01,233.49 1992,220 C1784.58,171.77 1164.1195,162.4423 910.9695,160.5823" fill="none" id="Consumer-to-RawCtx" style="stroke:#000000;stroke-width:1;"/><polygon fill="none" points="892.97,160.45,910.9254,166.5821,911.0136,154.5824,892.97,160.45" style="stroke:#000000;stroke-width:1;stroke-linejoin:miter;stroke-miterlimit:10;"/></g><!--link Ext to Managers--><g class="link" data-entity-1="ent0011" data-entity-2="ent0013" data-link-type="dependency" data-source-line="59" id="lnk34"><path d="M647.91,183.36 C672.63,192.76 699.48,204.98 722,220 C748.21,237.49 769.6596,259.6322 786.8496,279.8322" fill="none" id="Ext-to-Managers" style="stroke:#000000;stroke-width:1;"/><polygon fill="#000000" points="790.09,283.64,787.3035,274.1936,786.8496,279.8322,781.211,279.3782,790.09,283.64" style="stroke:#000000;stroke-width:1;stroke-linejoin:miter;stroke-miterlimit:10;"/><text fill="#000000" font-family="Helvetica" font-size="13" lengthAdjust="spacing" textLength="49.8481" x="740.21" y="231.0103">registers</text></g><!--link Ext to DriverIface--><g class="link" data-entity-1="ent0011" data-entity-2="ent0016" data-link-type="dependency" data-source-line="60" id="lnk35"><path d="M532.14,183.47 C511.86,197.82 489.19,218.19 478,243 C454.79,294.45 441.59,326.87 478,370 C537.15,440.07 801.6129,458.2897 943.3129,463.1197" fill="none" id="Ext-to-DriverIface" style="stroke:#000000;stroke-width:1;"/><polygon fill="#000000" points="948.31,463.29,939.4515,458.9857,943.3129,463.1197,939.179,466.9811,948.31,463.29" style="stroke:#000000;stroke-width:1;stroke-linejoin:miter;stroke-miterlimit:10;"/><text fill="#000000" font-family="Helvetica" font-size="13" lengthAdjust="spacing" textLength="92.4663" x="479" y="318.5103">registers drivers</text></g><!--link Ext to MinkExt--><g class="link" data-entity-1="ent0011" data-entity-2="ent0014" data-link-type="dependency" data-source-line="61" id="lnk36"><path d="M564.31,183.17 C560.55,198.45 558.14,218.59 565,235 C574.41,257.51 589.8062,273.7434 607.0862,287.6634" fill="none" id="Ext-to-MinkExt" style="stroke:#000000;stroke-width:1;"/><polygon fill="#000000" points="610.98,290.8,606.4805,282.039,607.0862,287.6634,601.4619,288.269,610.98,290.8" style="stroke:#000000;stroke-width:1;stroke-linejoin:miter;stroke-miterlimit:10;"/><text fill="#000000" font-family="Helvetica" font-size="13" lengthAdjust="spacing" textLength="151.0171" x="566" y="231.0103">aliases DocumentElement</text></g><!--link RawCtx to Managers--><g class="link" data-entity-1="ent0012" data-entity-2="ent0013" data-link-type="dependency" data-source-line="62" id="lnk37"><path d="M803.32,190.42 C807.26,199.68 810.96,210.05 813,220 C817.3,240.94 817.7041,260.0755 816.8341,278.6355" fill="none" id="RawCtx-to-Managers" style="stroke:#000000;stroke-width:1;"/><polygon fill="#000000" points="816.6,283.63,821.017,274.8272,816.8341,278.6355,813.0258,274.4526,816.6,283.63" style="stroke:#000000;stroke-width:1;stroke-linejoin:miter;stroke-miterlimit:10;"/></g><!--link Managers to DriverIface--><g class="link" data-entity-1="ent0013" data-entity-2="ent0016" data-link-type="dependency" data-source-line="64" id="lnk38"><path d="M848.14,346.39 C865.5,361.2 887.27,378.84 908,393 C934.11,410.83 960.5379,425.9276 985.4079,439.1876" fill="none" id="Managers-to-DriverIface" style="stroke:#000000;stroke-width:1;"/><polygon fill="#000000" points="989.82,441.54,983.7602,433.7761,985.4079,439.1876,979.9964,440.8353,989.82,441.54" style="stroke:#000000;stroke-width:1;stroke-linejoin:miter;stroke-miterlimit:10;"/><text fill="#000000" font-family="Helvetica" font-size="13" lengthAdjust="spacing" textLength="101.8799" x="909" y="389.0103">resolves by name</text></g><!--link DrupalDrv to DriverIface--><g class="link" data-entity-1="ent0017" data-entity-2="ent0016" data-link-type="extension" data-source-line="65" id="lnk39"><path d="M1315.67,339.4 C1295.04,348.95 1270.9,360.06 1249,370 C1194.61,394.68 1148.6482,415.1711 1105.4982,434.2811" fill="none" id="DrupalDrv-to-DriverIface" style="stroke:#000000;stroke-width:1;stroke-dasharray:7,7;"/><polygon fill="none" points="1089.04,441.57,1107.9278,439.7672,1103.0686,428.795,1089.04,441.57" style="stroke:#000000;stroke-width:1;stroke-linejoin:miter;stroke-miterlimit:10;"/></g><!--link DrushDrv to DriverIface--><g class="link" data-entity-1="ent0018" data-entity-2="ent0016" data-link-type="extension" data-source-line="66" id="lnk40"><path d="M1144.84,339.28 C1120.61,367.27 1091.9739,400.3534 1067.7939,428.2734" fill="none" id="DrushDrv-to-DriverIface" style="stroke:#000000;stroke-width:1;stroke-dasharray:7,7;"/><polygon fill="none" points="1056.01,441.88,1072.3295,432.2014,1063.2584,424.3454,1056.01,441.88" style="stroke:#000000;stroke-width:1;stroke-linejoin:miter;stroke-miterlimit:10;"/></g><!--link BlackboxDrv to DriverIface--><g class="link" data-entity-1="ent0019" data-entity-2="ent0016" data-link-type="extension" data-source-line="67" id="lnk41"><path d="M1010.69,339.28 C1016.32,367.27 1022.162,396.3152 1027.792,424.2352" fill="none" id="BlackboxDrv-to-DriverIface" style="stroke:#000000;stroke-width:1;stroke-dasharray:7,7;"/><polygon fill="none" points="1031.35,441.88,1033.6736,423.0491,1021.9103,425.4212,1031.35,441.88" style="stroke:#000000;stroke-width:1;stroke-linejoin:miter;stroke-miterlimit:10;"/></g><!--link DrupalDrv to Core--><g class="link" data-entity-1="ent0017" data-entity-2="ent0020" data-link-type="dependency" data-source-line="68" id="lnk42"><path d="M1366,339.28 C1366,364.98 1366,401.44 1366,429.67" fill="none" id="DrupalDrv-to-Core" style="stroke:#000000;stroke-width:1;"/><polygon fill="#000000" points="1366,434.67,1370,425.67,1366,429.67,1362,425.67,1366,434.67" style="stroke:#000000;stroke-width:1;stroke-linejoin:miter;stroke-miterlimit:10;"/></g><!--link Consumer to Mink--><g class="link" data-entity-1="ent0004" data-entity-2="ent0023" data-link-type="dependency" data-source-line="70" id="lnk43"><path d="M2114.38,326.3 C2042.57,337.11 1943.66,358.71 1866,401 C1843.93,413.02 1826.9144,430.1441 1814.3544,444.7941" fill="none" id="Consumer-to-Mink" style="stroke:#000000;stroke-width:1;"/><polygon fill="#000000" points="1811.1,448.59,1819.9946,444.3609,1814.3544,444.7941,1813.9212,439.1538,1811.1,448.59" style="stroke:#000000;stroke-width:1;stroke-linejoin:miter;stroke-miterlimit:10;"/></g><!--link Mink to Browser--><g class="link" data-entity-1="ent0023" data-entity-2="ent0024" data-link-type="dependency" data-source-line="71" id="lnk44"><path d="M1798,483.29 C1798,507.44 1798,548.14 1798,578.59" fill="none" id="Mink-to-Browser" style="stroke:#000000;stroke-width:1;"/><polygon fill="#000000" points="1798,583.59,1802,574.59,1798,578.59,1794,574.59,1798,583.59" style="stroke:#000000;stroke-width:1;stroke-linejoin:miter;stroke-miterlimit:10;"/></g><!--link DrupalDrv to Site--><g class="link" data-entity-1="ent0017" data-entity-2="ent0025" data-link-type="dependency" data-source-line="72" id="lnk45"><path d="M1432.65,339.49 C1459.02,349.86 1489.15,363.09 1515,378 C1547.14,396.53 1576.6651,419.7278 1598.9251,438.5878" fill="none" id="DrupalDrv-to-Site" style="stroke:#000000;stroke-width:1;"/><polygon fill="#000000" points="1602.74,441.82,1598.459,432.9502,1598.9251,438.5878,1593.2875,439.054,1602.74,441.82" style="stroke:#000000;stroke-width:1;stroke-linejoin:miter;stroke-miterlimit:10;"/></g><!--link DrushDrv to Site--><g class="link" data-entity-1="ent0018" data-entity-2="ent0025" data-link-type="dependency" data-source-line="73" id="lnk46"><path d="M1194.4,339.45 C1209.79,350.51 1229.47,362.83 1249,370 C1346.65,405.87 1380.75,373.2 1481,401 C1516.74,410.91 1550.6291,425.5324 1579.3591,439.4324" fill="none" id="DrushDrv-to-Site" style="stroke:#000000;stroke-width:1;"/><polygon fill="#000000" points="1583.86,441.61,1577.5005,434.0896,1579.3591,439.4324,1574.0163,441.291,1583.86,441.61" style="stroke:#000000;stroke-width:1;stroke-linejoin:miter;stroke-miterlimit:10;"/></g><!--link Features to Config--><!--link Generic to DrupalSteps--><!--link DrupalDrv to DrushDrv--><!--link DrushDrv to BlackboxDrv--><?plantuml-src VLPDRzj64BtpLqoTGu1Kb1Ex1XeV32IMb0Q5Yy9sSwcAOaMEn8rNkyJkKhRGvB_txIv9KH_jnQOuRxxV3ESrbPOtfdRd2ww4pvtdsb5EIcpPSac5MTT6i_OaR559puLlB8-pr_HeHG70qffrGZcsuw_Ew14vMvm_14FdwVbZCDq-JwpSiCMFw6-yNQiHZBd2ojgxSoMrpwDlDwwhElYvvnLhji8pCJItzF3b4prBNrqJrKfetwmLvTvjLbIQmfqFupn_CwuXpdxm5QyvmANEt9FKjR1YJGjHFAsiQNHvQvInz1mK1_AIbw9HVcQq_qr0_nTM6_Qo40ECgqHfdgLUqL8eDzJkI_VWjuh98YIXLuepBpr-tvwiR9RL24gicCvkZNRDEbYkhVaAyHczcircbzEtz4z6WywSpLW4NLfAnMwktuoNwSKP2KUjqEshzDMVw_ZuTsgyO-_XqKLD1B2KgvEk8FByukSQVrYNZkx5S_jkDDSj7HoXx5HKUDJahP2-jul4s6RV1zcUeE4PyeJt7lB556BHA04Ev3kEeIhJozd5R1AhiXTibC_ddm9_P37N5-_RC4Pq9_KJ6QssCQ8MyH_w4zlK0eMwVDkhQmRrGtPbf7Cqac1Hvz0GY5EpVGpAI4VQkGPjmdWfiv85p1bgCuQT17PezkNqQdO5Mz_tol0PPLvX7gJHRHtYV9rr2iTrYF8Os3Iqoq4J4R3To88nIXOTZvuXFLJTzHKQ1MjXfI4bbrni2yNeDL3IRwcm72CQ4LuBtTGZgenvIXa58_xbqFITqCZ7Wh1f9upeGuEIwZ1WqTHS_-72wpiXLRJJQHnPGZC7cIsbTJx742AkfR5FIJTXZggPVBU5dBJTV3NzUNOrVNzSoGG87R1BhB-v_f7U_KI5gCL2gb07sObSouc83o-EJGMw9026q1ZlmAwwun4ivPXx6783TativeGTLtLcNCLAEJAD9sz0JeWwxG0wKlweK8U5UUdqGSJMlS1UKgdiEz2H_gsn70hEggHAw5AXEu42mZc9j_Wn3zlGfTSjHs1O2iVTCh0Scp9S1lSDM8252ulaXLsnZsD-EvtDtXqklqXkP0vwqrfuh59ipA2uur-4P4UKmRPpWJ4zFmuCM_FiGb7QXr-b7z43AzQoMLyWiTiAtpwc2MyUZL6jguJDJhIQ79PyFp0VVl-CYiGDEneqwY5yWL2ARcjJdj-a-EawxOWihUKe0A7nEbc9EpuXWwXRif37gi1KA8hK6_C4ODQkl2EiVE60yYORxBF_GNLsnkERVdDTKuFIxXau8SvwWtd-xQPR4Y6buAsRTQ0jhoHInzntmi5O3UNjDjxXsg47fgKSJKm1bzfF5OT_MVAwvp7BUj-dV3c38y3HOaiQDq7MpoLI_BQ7phgXEvOC9kgaMcinLJqS1ODIfQooIE18ZfPn-sgHHtq0_PjC6znH2-CzhZQpFDXFZ_q7BTr_o7Q9Ar1Z2U4JvUDanNilqGmNKuXY14rd29yswT1PiL0SxxEmX19G6L5oEGwuqtSURYUfqhcmQ2HsILWIUakkAQfT4ECCfqO8X8VpyMSbovBrNxZ2TDxTB3sxEwcLgyhdUz_eGS6EKMbRxWfuW1Wqy5y0?></g></svg>