<svg xmlns="http://www.w3.org/2000/svg" xmlns:xlink="http://www.w3.org/1999/xlink" contentStyleType="text/css" data-diagram-type="DESCRIPTION" height="1001px" preserveAspectRatio="none" style="width:2551px;height:1001px;background:#FFFFFF;" version="1.1" viewBox="0 0 2551 1001" width="2551px" zoomAndPan="magnify"><?plantuml 1.2026.6?><defs/><g><g class="title" data-source-line="11"><text fill="#000000" font-family="Helvetica" font-size="22" font-weight="700" lengthAdjust="spacing" textLength="254.2568" x="1147.4216" y="31.9404">Component architecture</text></g><!--cluster Consuming project--><g class="cluster" data-qualified-name="Consuming project" data-source-line="13" id="ent0001"><path d="M1699.5,239 L1828.0586,239 A3.75,3.75 0 0 1 1830.5586,241.5 L1837.5586,259 L2049.5,259 A2.5,2.5 0 0 1 2052,261.5 L2052,484.5 A2.5,2.5 0 0 1 2049.5,487 L1699.5,487 A2.5,2.5 0 0 1 1697,484.5 L1697,241.5 A2.5,2.5 0 0 1 1699.5,239" fill="#FFF3E0" style="stroke:#000000;stroke-width:1;"/><line style="stroke:#000000;stroke-width:1;" x1="1697" x2="1837.5586" y1="259" y2="259"/><text fill="#000000" font-family="Helvetica" font-size="14" font-weight="700" lengthAdjust="spacing" textLength="127.5586" x="1701" y="251.7803">Consuming project</text></g><!--cluster drevops/behat-steps--><g class="cluster" data-qualified-name="drevops.behat-steps" data-source-line="19" id="ent0005"><path d="M13.5,54 L151.4238,54 A3.75,3.75 0 0 1 153.9238,56.5 L160.9238,74 L1644.5,74 A2.5,2.5 0 0 1 1647,76.5 L1647,858.5 A2.5,2.5 0 0 1 1644.5,861 L13.5,861 A2.5,2.5 0 0 1 11,858.5 L11,56.5 A2.5,2.5 0 0 1 13.5,54" fill="#FFFFFF" style="stroke:#000000;stroke-width:1;"/><line style="stroke:#000000;stroke-width:1;" x1="11" x2="160.9238" y1="74" y2="74"/><text fill="#000000" font-family="Helvetica" font-size="14" font-weight="700" lengthAdjust="spacing" textLength="136.9238" x="15" y="66.7803">drevops/behat-steps</text></g><!--cluster Vocabulary - src/Steps--><g class="cluster" data-qualified-name="drevops.behat-steps.Vocabulary - src.Steps" data-source-line="21" id="ent0006"><path d="M1067.5,95 L1219.4512,95 A3.75,3.75 0 0 1 1221.9512,97.5 L1228.9512,115 L1436.5,115 A2.5,2.5 0 0 1 1439,117.5 L1439,189.5 A2.5,2.5 0 0 1 1436.5,192 L1067.5,192 A2.5,2.5 0 0 1 1065,189.5 L1065,97.5 A2.5,2.5 0 0 1 1067.5,95" fill="#E3F2FD" style="stroke:#000000;stroke-width:1;"/><line style="stroke:#000000;stroke-width:1;" x1="1065" x2="1228.9512" y1="115" y2="115"/><text fill="#000000" font-family="Helvetica" font-size="14" font-weight="700" lengthAdjust="spacing" textLength="150.9512" x="1069" y="107.7803">Vocabulary - src/Steps</text></g><!--cluster Helpers - src/Helper--><g class="cluster" data-qualified-name="drevops.behat-steps.Helpers - src.Helper" data-source-line="26" id="ent0009"><path d="M37.5,534 L170.7822,534 A3.75,3.75 0 0 1 173.2822,536.5 L180.2822,554 L465.5,554 A2.5,2.5 0 0 1 468,556.5 L468,670.5 A2.5,2.5 0 0 1 465.5,673 L37.5,673 A2.5,2.5 0 0 1 35,670.5 L35,536.5 A2.5,2.5 0 0 1 37.5,534" fill="#F3E5F5" style="stroke:#000000;stroke-width:1;"/><line style="stroke:#000000;stroke-width:1;" x1="35" x2="180.2822" y1="554" y2="554"/><text fill="#000000" font-family="Helvetica" font-size="14" font-weight="700" lengthAdjust="spacing" textLength="132.2822" x="39" y="546.7803">Helpers - src/Helper</text></g><!--cluster Integration - src/Behat--><g class="cluster" data-qualified-name="drevops.behat-steps.Integration - src.Behat" data-source-line="31" id="ent0012"><path d="M1210.5,239 L1360.0791,239 A3.75,3.75 0 0 1 1362.5791,241.5 L1369.5791,259 L1620.5,259 A2.5,2.5 0 0 1 1623,261.5 L1623,656.5 A2.5,2.5 0 0 1 1620.5,659 L1210.5,659 A2.5,2.5 0 0 1 1208,656.5 L1208,241.5 A2.5,2.5 0 0 1 1210.5,239" fill="#F3E5F5" style="stroke:#000000;stroke-width:1;"/><line style="stroke:#000000;stroke-width:1;" x1="1208" x2="1369.5791" y1="259" y2="259"/><text fill="#000000" font-family="Helvetica" font-size="14" font-weight="700" lengthAdjust="spacing" textLength="148.5791" x="1212" y="251.7803">Integration - src/Behat</text></g><!--cluster Driver - src/Driver--><g class="cluster" data-qualified-name="drevops.behat-steps.Driver - src.Driver" data-source-line="39" id="ent0018"><path d="M637.5,555 L756.7891,555 A3.75,3.75 0 0 1 759.2891,557.5 L766.2891,575 L1181.5,575 A2.5,2.5 0 0 1 1184,577.5 L1184,834.5 A2.5,2.5 0 0 1 1181.5,837 L637.5,837 A2.5,2.5 0 0 1 635,834.5 L635,557.5 A2.5,2.5 0 0 1 637.5,555" fill="#E8F5E9" style="stroke:#000000;stroke-width:1;"/><line style="stroke:#000000;stroke-width:1;" x1="635" x2="766.2891" y1="575" y2="575"/><text fill="#000000" font-family="Helvetica" font-size="14" font-weight="700" lengthAdjust="spacing" textLength="118.2891" x="639" y="567.7803">Driver - src/Driver</text></g><!--cluster Runtime and targets--><g class="cluster" data-qualified-name="Runtime and targets" data-source-line="48" id="ent0024"><path d="M1673.5,733 L1809.8516,733 A3.75,3.75 0 0 1 1812.3516,735.5 L1819.3516,753 L2214.5,753 A2.5,2.5 0 0 1 2217,755.5 L2217,983.5 A2.5,2.5 0 0 1 2214.5,986 L1673.5,986 A2.5,2.5 0 0 1 1671,983.5 L1671,735.5 A2.5,2.5 0 0 1 1673.5,733" fill="#ECEFF1" style="stroke:#000000;stroke-width:1;"/><line style="stroke:#000000;stroke-width:1;" x1="1671" x2="1819.3516" y1="753" y2="753"/><text fill="#000000" font-family="Helvetica" font-size="14" font-weight="700" lengthAdjust="spacing" textLength="135.3516" x="1675" y="745.7803">Runtime and targets</text></g><!--entity Features--><g class="entity" data-qualified-name="Consuming project.Features" data-source-line="14" id="ent0002"><rect fill="#FFFFFF" height="48" rx="2.5" ry="2.5" style="stroke:#000000;stroke-width:1;" width="97.0342" x="1938.48" y="279"/><text fill="#000000" font-family="Helvetica" font-size="14" lengthAdjust="spacing" textLength="77.0342" x="1948.48" y="299.7803">Feature files</text><ellipse cx="1953.98" cy="309.5" fill="#000000" rx="2.5" ry="2.5"/><text fill="#000000" font-family="Helvetica" font-size="14" lengthAdjust="spacing" textLength="47.4756" x="1960.48" y="313.7803">.feature</text></g><!--entity Config--><g class="entity" data-qualified-name="Consuming project.Config" data-source-line="15" id="ent0003"><rect fill="#FFFFFF" height="62" rx="2.5" ry="2.5" style="stroke:#000000;stroke-width:1;" width="149.958" x="1713.02" y="409"/><text fill="#000000" font-family="Helvetica" font-size="14" lengthAdjust="spacing" textLength="62.2822" x="1723.02" y="429.7803">behat.php</text><text fill="#000000" font-family="Helvetica" font-size="14" lengthAdjust="spacing" textLength="115.958" x="1723.02" y="443.7803">extension settings,</text><text fill="#000000" font-family="Helvetica" font-size="14" lengthAdjust="spacing" textLength="129.958" x="1723.02" y="457.7803">registers one context</text></g><!--entity Consumer--><g class="entity" data-qualified-name="Consuming project.Consumer" data-source-line="16" id="ent0004"><rect fill="#FFFFFF" height="62" rx="2.5" ry="2.5" style="stroke:#000000;stroke-width:1;" width="190.4199" x="1712.79" y="272"/><text fill="#000000" font-family="Helvetica" font-size="14" lengthAdjust="spacing" textLength="77.8135" x="1722.79" y="292.7803">Own context</text><text fill="#000000" font-family="Helvetica" font-size="14" lengthAdjust="spacing" textLength="161.8545" x="1722.79" y="306.7803">extends WebRawContext,</text><text fill="#000000" font-family="Helvetica" font-size="14" lengthAdjust="spacing" textLength="170.4199" x="1722.79" y="320.7803">composes the chosen traits</text></g><!--entity WebSteps--><g class="entity" data-qualified-name="drevops.behat-steps.Vocabulary - src.Steps.WebSteps" data-source-line="22" id="ent0007"><rect fill="#FFFFFF" height="48" rx="2.5" ry="2.5" style="stroke:#000000;stroke-width:1;" width="136.71" x="1286.65" y="128"/><text fill="#000000" font-family="Helvetica" font-size="14" lengthAdjust="spacing" textLength="68.4756" x="1296.65" y="148.7803">Steps\Web</text><text fill="#000000" font-family="Helvetica" font-size="14" lengthAdjust="spacing" textLength="116.71" x="1296.65" y="162.7803">28 traits, Mink only</text></g><!--entity DrupalSteps--><g class="entity" data-qualified-name="drevops.behat-steps.Vocabulary - src.Steps.DrupalSteps" data-source-line="23" id="ent0008"><rect fill="#FFFFFF" height="48" rx="2.5" ry="2.5" style="stroke:#000000;stroke-width:1;" width="170.9717" x="1080.51" y="128"/><text fill="#000000" font-family="Helvetica" font-size="14" lengthAdjust="spacing" textLength="80.9307" x="1090.51" y="148.7803">Steps\Drupal</text><text fill="#000000" font-family="Helvetica" font-size="14" lengthAdjust="spacing" textLength="150.9717" x="1090.51" y="162.7803">29 traits, need the driver</text></g><!--entity WebHelpers--><g class="entity" data-qualified-name="drevops.behat-steps.Helpers - src.Helper.WebHelpers" data-source-line="27" id="ent0010"><rect fill="#FFFFFF" height="90" rx="2.5" ry="2.5" style="stroke:#000000;stroke-width:1;" width="174.082" x="50.96" y="567"/><text fill="#000000" font-family="Helvetica" font-size="14" lengthAdjust="spacing" textLength="73.917" x="60.96" y="587.7803">Helper\Web</text><text fill="#000000" font-family="Helvetica" font-size="14" lengthAdjust="spacing" textLength="105.8203" x="60.96" y="601.7803">5 traits: last step,</text><text fill="#000000" font-family="Helvetica" font-size="14" lengthAdjust="spacing" textLength="154.082" x="60.96" y="615.7803">request headers, strings,</text><text fill="#000000" font-family="Helvetica" font-size="14" lengthAdjust="spacing" textLength="119.834" x="60.96" y="629.7803">JavaScript support,</text><text fill="#000000" font-family="Helvetica" font-size="14" lengthAdjust="spacing" textLength="95.7305" x="60.96" y="643.7803">table transpose</text></g><!--entity DrupalHelpers--><g class="entity" data-qualified-name="drevops.behat-steps.Helpers - src.Helper.DrupalHelpers" data-source-line="28" id="ent0011"><rect fill="#FFFFFF" height="76" rx="2.5" ry="2.5" style="stroke:#000000;stroke-width:1;" width="192.7715" x="259.61" y="574"/><text fill="#000000" font-family="Helvetica" font-size="14" lengthAdjust="spacing" textLength="86.3721" x="269.61" y="594.7803">Helper\Drupal</text><text fill="#000000" font-family="Helvetica" font-size="14" lengthAdjust="spacing" textLength="140.8271" x="269.61" y="608.7803">5 traits: entity lifecycle,</text><text fill="#000000" font-family="Helvetica" font-size="14" lengthAdjust="spacing" textLength="172.7715" x="269.61" y="622.7803">authentication, static cache,</text><text fill="#000000" font-family="Helvetica" font-size="14" lengthAdjust="spacing" textLength="120.6064" x="269.61" y="636.7803">fixture files, queries</text></g><!--entity Ext--><g class="entity" data-qualified-name="drevops.behat-steps.Integration - src.Behat.Ext" data-source-line="32" id="ent0013"><rect fill="#FFFFFF" height="48" rx="2.5" ry="2.5" style="stroke:#000000;stroke-width:1;" width="153.8682" x="1453.07" y="416"/><text fill="#000000" font-family="Helvetica" font-size="14" lengthAdjust="spacing" textLength="133.8682" x="1463.07" y="436.7803">BehatStepsExtension</text><text fill="#000000" font-family="Helvetica" font-size="14" lengthAdjust="spacing" textLength="84.7998" x="1463.07" y="450.7803">service wiring</text></g><!--entity WebRawCtx--><g class="entity" data-qualified-name="drevops.behat-steps.Integration - src.Behat.WebRawCtx" data-source-line="33" id="ent0014"><rect fill="#FFFFFF" height="62" rx="2.5" ry="2.5" style="stroke:#000000;stroke-width:1;" width="194.3027" x="1223.85" y="409"/><text fill="#000000" font-family="Helvetica" font-size="14" lengthAdjust="spacing" textLength="105.041" x="1233.85" y="429.7803">WebRawContext</text><text fill="#000000" font-family="Helvetica" font-size="14" lengthAdjust="spacing" textLength="174.3027" x="1233.85" y="443.7803">driver access, configuration,</text><text fill="#000000" font-family="Helvetica" font-size="14" lengthAdjust="spacing" textLength="147.0957" x="1233.85" y="457.7803">hook dispatch, no steps</text></g><!--entity Vocabularies--><g class="entity" data-qualified-name="drevops.behat-steps.Integration - src.Behat.Vocabularies" data-source-line="34" id="ent0015"><rect fill="#FFFFFF" height="62" rx="2.5" ry="2.5" style="stroke:#000000;stroke-width:1;" width="196.668" x="1256.67" y="272"/><text fill="#000000" font-family="Helvetica" font-size="14" lengthAdjust="spacing" textLength="77.0342" x="1266.67" y="292.7803">WebContext</text><text fill="#000000" font-family="Helvetica" font-size="14" lengthAdjust="spacing" textLength="89.4893" x="1266.67" y="306.7803">DrupalContext</text><text fill="#000000" font-family="Helvetica" font-size="14" lengthAdjust="spacing" textLength="176.668" x="1266.67" y="320.7803">one chain, whole vocabulary</text></g><!--entity Managers--><g class="entity" data-qualified-name="drevops.behat-steps.Integration - src.Behat.Managers" data-source-line="35" id="ent0016"><rect fill="#FFFFFF" height="62" rx="2.5" ry="2.5" style="stroke:#000000;stroke-width:1;" width="157.7305" x="1242.13" y="581"/><text fill="#000000" font-family="Helvetica" font-size="14" lengthAdjust="spacing" textLength="62.2549" x="1252.13" y="601.7803">Managers</text><text fill="#000000" font-family="Helvetica" font-size="14" lengthAdjust="spacing" textLength="137.7305" x="1252.13" y="615.7803">Driver, Authentication,</text><text fill="#000000" font-family="Helvetica" font-size="14" lengthAdjust="spacing" textLength="63.0068" x="1252.13" y="629.7803">User, Mail</text></g><!--entity MinkExt--><g class="entity" data-qualified-name="drevops.behat-steps.Integration - src.Behat.MinkExt" data-source-line="36" id="ent0017"><rect fill="#FFFFFF" height="62" rx="2.5" ry="2.5" style="stroke:#000000;stroke-width:1;" width="168.1758" x="1438.91" y="581"/><text fill="#000000" font-family="Helvetica" font-size="14" lengthAdjust="spacing" textLength="91.041" x="1448.91" y="601.7803">MinkExtension</text><text fill="#000000" font-family="Helvetica" font-size="14" lengthAdjust="spacing" textLength="148.1758" x="1448.91" y="615.7803">wraps Mink's extension,</text><text fill="#000000" font-family="Helvetica" font-size="14" lengthAdjust="spacing" textLength="129.1787" x="1448.91" y="629.7803">adds browserkit_http</text></g><!--entity DriverIface--><g class="entity" data-qualified-name="drevops.behat-steps.Driver - src.Driver.DriverIface" data-source-line="40" id="ent0019"><rect fill="#FFFFFF" height="48" rx="2.5" ry="2.5" style="stroke:#000000;stroke-width:1;" width="174.4785" x="879.76" y="766"/><text fill="#000000" font-family="Helvetica" font-size="14" lengthAdjust="spacing" textLength="91.8066" x="889.76" y="786.7803">DriverInterface</text><text fill="#000000" font-family="Helvetica" font-size="14" lengthAdjust="spacing" textLength="154.4785" x="889.76" y="800.7803">+ 16 capability interfaces</text></g><!--entity DrupalDrv--><g class="entity" data-qualified-name="drevops.behat-steps.Driver - src.Driver.DrupalDrv" data-source-line="41" id="ent0020"><rect fill="#FFFFFF" height="48" rx="2.5" ry="2.5" style="stroke:#000000;stroke-width:1;" width="198.9717" x="800.51" y="588"/><text fill="#000000" font-family="Helvetica" font-size="14" lengthAdjust="spacing" textLength="78.5723" x="810.51" y="608.7803">DrupalDriver</text><text fill="#000000" font-family="Helvetica" font-size="14" lengthAdjust="spacing" textLength="178.9717" x="810.51" y="622.7803">bootstraps Drupal in-process</text></g><!--entity DrushDrv--><g class="entity" data-qualified-name="drevops.behat-steps.Driver - src.Driver.DrushDrv" data-source-line="42" id="ent0021"><rect fill="#FFFFFF" height="48" rx="2.5" ry="2.5" style="stroke:#000000;stroke-width:1;" width="133.6201" x="1034.19" y="588"/><text fill="#000000" font-family="Helvetica" font-size="14" lengthAdjust="spacing" textLength="74.6758" x="1044.19" y="608.7803">DrushDriver</text><text fill="#000000" font-family="Helvetica" font-size="14" lengthAdjust="spacing" textLength="113.6201" x="1044.19" y="622.7803">shells out to drush</text></g><!--entity BlackboxDrv--><g class="entity" data-qualified-name="drevops.behat-steps.Driver - src.Driver.BlackboxDrv" data-source-line="43" id="ent0022"><rect fill="#FFFFFF" height="48" rx="2.5" ry="2.5" style="stroke:#000000;stroke-width:1;" width="114.165" x="650.92" y="588"/><text fill="#000000" font-family="Helvetica" font-size="14" lengthAdjust="spacing" textLength="94.1377" x="660.92" y="608.7803">BlackboxDriver</text><text fill="#000000" font-family="Helvetica" font-size="14" lengthAdjust="spacing" textLength="94.165" x="660.92" y="622.7803">no Drupal at all</text></g><!--entity Core--><g class="entity" data-qualified-name="drevops.behat-steps.Driver - src.Driver.Core" data-source-line="44" id="ent0023"><rect fill="#FFFFFF" height="62" rx="2.5" ry="2.5" style="stroke:#000000;stroke-width:1;" width="176.3994" x="668.8" y="759"/><text fill="#000000" font-family="Helvetica" font-size="14" lengthAdjust="spacing" textLength="30.3447" x="678.8" y="779.7803">Core</text><text fill="#000000" font-family="Helvetica" font-size="14" lengthAdjust="spacing" textLength="156.3994" x="678.8" y="793.7803">field handlers, classifiers,</text><text fill="#000000" font-family="Helvetica" font-size="14" lengthAdjust="spacing" textLength="151.7373" x="678.8" y="807.7803">parsers, creation aliases</text></g><!--entity Behat--><g class="entity" data-qualified-name="Runtime and targets.Behat" data-source-line="49" id="ent0025"><rect fill="#FFFFFF" height="48" rx="2.5" ry="2.5" style="stroke:#000000;stroke-width:1;" width="175.6543" x="2025.17" y="766"/><text fill="#000000" font-family="Helvetica" font-size="14" lengthAdjust="spacing" textLength="36.5859" x="2035.17" y="786.7803">Behat</text><text fill="#000000" font-family="Helvetica" font-size="14" lengthAdjust="spacing" textLength="155.6543" x="2035.17" y="800.7803">step matching and hooks</text></g><!--entity Mink--><g class="entity" data-qualified-name="Runtime and targets.Mink" data-source-line="50" id="ent0026"><rect fill="#FFFFFF" height="34" rx="2.5" ry="2.5" style="stroke:#000000;stroke-width:1;" width="100.917" x="1889.54" y="773"/><text fill="#000000" font-family="Helvetica" font-size="14" lengthAdjust="spacing" textLength="80.917" x="1899.54" y="793.7803">Mink session</text></g><!--entity Browser--><g class="entity" data-qualified-name="Runtime and targets.Browser" data-source-line="51" id="ent0027"><rect fill="#FFFFFF" height="62" rx="2.5" ry="2.5" style="stroke:#000000;stroke-width:1;" width="165.5029" x="1857.25" y="908"/><text fill="#000000" font-family="Helvetica" font-size="14" lengthAdjust="spacing" textLength="51.3447" x="1867.25" y="928.7803">Browser</text><text fill="#000000" font-family="Helvetica" font-size="14" lengthAdjust="spacing" textLength="145.5029" x="1867.25" y="942.7803">BrowserKit, Selenium2,</text><text fill="#000000" font-family="Helvetica" font-size="14" lengthAdjust="spacing" textLength="112.8135" x="1867.25" y="956.7803">Chrome DevTools</text></g><!--entity Site--><g class="entity" data-qualified-name="Runtime and targets.Site" data-source-line="52" id="ent0028"><rect fill="#FFFFFF" height="48" rx="2.5" ry="2.5" style="stroke:#000000;stroke-width:1;" width="167.8545" x="1687.07" y="766"/><text fill="#000000" font-family="Helvetica" font-size="14" lengthAdjust="spacing" textLength="66.917" x="1697.07" y="786.7803">Drupal site</text><text fill="#000000" font-family="Helvetica" font-size="14" lengthAdjust="spacing" textLength="147.8545" x="1697.07" y="800.7803">entity API, config, drush</text></g><g class="entity" data-qualified-name="GMN62" data-source-line="94" id="ent0063"><path d="M789.93,908 L789.93,970 A0,0 0 0 0 789.93,970 L1144.0677,970 A0,0 0 0 0 1144.0677,970 L1144.0677,918 L1134.0677,908 L971,908 L967,814.29 L963,908 L789.93,908 A0,0 0 0 0 789.93,908" fill="#FFFFFF" style="stroke:#000000;stroke-width:1;"/><path d="M1134.0677,908 L1134.0677,918 L1144.0677,918 L1134.0677,908" fill="#FFFFFF" style="stroke:#000000;stroke-width:1;"/><text fill="#000000" font-family="Helvetica" font-size="13" lengthAdjust="spacing" textLength="318.6396" x="795.93" y="923.0103">The driver layer references nothing from Behat or Mink,</text><text fill="#000000" font-family="Helvetica" font-size="13" lengthAdjust="spacing" textLength="285.4541" x="795.93" y="936.0103">so it is usable without Behat loaded. The web half</text><text fill="#000000" font-family="Helvetica" font-size="13" lengthAdjust="spacing" textLength="333.1377" x="795.93" y="949.0103">references no Drupal class beyond the random generator.</text><text fill="#000000" font-family="Helvetica" font-size="13" lengthAdjust="spacing" textLength="317.9351" x="795.93" y="962.0103">scripts/lint-layers.php fails the build on either reference.</text></g><!--link Features to Behat--><g class="link" data-entity-1="ent0002" data-entity-2="ent0025" data-link-type="dependency" data-source-line="55" id="lnk29"><path d="M2035.92,303.62 C2096.73,305.39 2201.45,315.96 2275,364 C2338.5,405.48 2350.9,430.76 2374,503 C2400.73,586.6 2536.1,467 2275,717 C2252.44,738.6 2226.9466,752.5536 2198.7866,763.7436" fill="none" id="Features-to-Behat" style="stroke:#000000;stroke-width:1;"/><polygon fill="#000000" points="2194.14,765.59,2203.981,765.9837,2198.7866,763.7436,2201.0267,758.5492,2194.14,765.59" style="stroke:#000000;stroke-width:1;stroke-linejoin:miter;stroke-miterlimit:10;"/><text fill="#000000" font-family="Helvetica" font-size="13" lengthAdjust="spacing" textLength="31.0718" x="2381.95" y="514.0103">steps</text></g><!--link Config to Ext--><g class="link" data-entity-1="ent0003" data-entity-2="ent0013" data-link-type="dependency" data-source-line="56" id="lnk30"><path d="M1712.86,440 C1679.72,440 1645.8,440 1612.41,440" fill="none" id="Config-to-Ext" style="stroke:#000000;stroke-width:1;"/><polygon fill="#000000" points="1607.41,440,1616.41,444,1612.41,440,1616.41,436,1607.41,440" style="stroke:#000000;stroke-width:1;stroke-linejoin:miter;stroke-miterlimit:10;"/><text fill="#000000" font-family="Helvetica" font-size="13" lengthAdjust="spacing" textLength="59.979" x="1630.48" y="433.0103">configures</text></g><!--link Config to MinkExt--><g class="link" data-entity-1="ent0003" data-entity-2="ent0017" data-link-type="dependency" data-source-line="57" id="lnk31"><path d="M1740.62,471.39 C1692.54,502.24 1622.7187,547.0306 1574.6187,577.8806" fill="none" id="Config-to-MinkExt" style="stroke:#000000;stroke-width:1;"/><polygon fill="#000000" points="1570.41,580.58,1580.1452,579.0881,1574.6187,577.8806,1575.8262,572.3542,1570.41,580.58" style="stroke:#000000;stroke-width:1;stroke-linejoin:miter;stroke-miterlimit:10;"/><text fill="#000000" font-family="Helvetica" font-size="13" lengthAdjust="spacing" textLength="59.979" x="1688.03" y="514.0103">configures</text></g><!--link Config to Vocabularies--><g class="link" data-entity-1="ent0003" data-entity-2="ent0015" data-link-type="dependency" data-source-line="58" id="lnk32"><path d="M1755.03,408.72 C1736.14,393 1711.23,374.87 1686,364 C1611.84,332.06 1526.2235,317.6339 1458.5735,310.6439" fill="none" id="Config-to-Vocabularies" style="stroke:#000000;stroke-width:1;"/><polygon fill="#000000" points="1453.6,310.13,1462.1412,315.0338,1458.5735,310.6439,1462.9635,307.0762,1453.6,310.13" style="stroke:#000000;stroke-width:1;stroke-linejoin:miter;stroke-miterlimit:10;"/><text fill="#000000" font-family="Helvetica" font-size="13" lengthAdjust="spacing" textLength="49.8481" x="1714.49" y="375.0103">registers</text></g><!--link Behat to Consumer--><g class="link" data-entity-1="ent0025" data-entity-2="ent0004" data-link-type="dependency" data-source-line="59" id="lnk33"><path d="M2125.45,765.78 C2159.06,699.6 2242.79,508.39 2146,409 C2072.46,333.48 2023.05,360.41 1921,334 C1915.3,332.53 1914.2759,332.2704 1908.3759,330.7204" fill="none" id="Behat-to-Consumer" style="stroke:#000000;stroke-width:1;"/><polygon fill="#000000" points="1903.54,329.45,1911.2283,335.6055,1908.3759,330.7204,1913.261,327.8681,1903.54,329.45" style="stroke:#000000;stroke-width:1;stroke-linejoin:miter;stroke-miterlimit:10;"/><text fill="#000000" font-family="Helvetica" font-size="13" lengthAdjust="spacing" textLength="122.1226" x="2191.62" y="514.0103">matches and invokes</text></g><!--link Behat to Vocabularies--><g class="link" data-entity-1="ent0025" data-entity-2="ent0015" data-link-type="dependency" data-source-line="60" id="lnk34"><path d="M2110.88,765.6 C2104.74,712.93 2081.92,585.05 2002,526 C1988.3,515.88 1712.07,502.93 1697,495 C1652.63,471.66 1664.82,438.11 1624,409 C1572.88,372.54 1512.1567,348.1294 1458.5967,331.1694" fill="none" id="Behat-to-Vocabularies" style="stroke:#000000;stroke-width:1;"/><polygon fill="#000000" points="1453.83,329.66,1461.2026,336.1903,1458.5967,331.1694,1463.6176,328.5635,1453.83,329.66" style="stroke:#000000;stroke-width:1;stroke-linejoin:miter;stroke-miterlimit:10;"/><text fill="#000000" font-family="Helvetica" font-size="13" lengthAdjust="spacing" textLength="122.1226" x="1950.38" y="514.0103">matches and invokes</text></g><!--link WebSteps to Vocabularies--><g class="link" data-entity-1="ent0007" data-entity-2="ent0015" data-link-type="dependency" data-source-line="62" id="lnk35"><path d="M1355,176.28 C1355,201.98 1355,238.44 1355,266.67" fill="none" id="WebSteps-to-Vocabularies" style="stroke:#000000;stroke-width:1;"/><polygon fill="#000000" points="1355,271.67,1359,262.67,1355,266.67,1351,262.67,1355,271.67" style="stroke:#000000;stroke-width:1;stroke-linejoin:miter;stroke-miterlimit:10;"/><text fill="#000000" font-family="Helvetica" font-size="13" lengthAdjust="spacing" textLength="77.3208" x="1356" y="219.0103">composed by</text></g><!--link DrupalSteps to Vocabularies--><g class="link" data-entity-1="ent0008" data-entity-2="ent0015" data-link-type="dependency" data-source-line="63" id="lnk36"><path d="M1195.53,176.28 C1228.13,201.98 1276.7934,240.3446 1312.6034,268.5746" fill="none" id="DrupalSteps-to-Vocabularies" style="stroke:#000000;stroke-width:1;"/><polygon fill="#000000" points="1316.53,271.67,1311.9385,262.9569,1312.6034,268.5746,1306.9858,269.2395,1316.53,271.67" style="stroke:#000000;stroke-width:1;stroke-linejoin:miter;stroke-miterlimit:10;"/><text fill="#000000" font-family="Helvetica" font-size="13" lengthAdjust="spacing" textLength="77.3208" x="1250.18" y="219.0103">composed by</text></g><!--link WebSteps to Consumer--><g class="link" data-entity-1="ent0007" data-entity-2="ent0004" data-link-type="dependency" data-source-line="64" id="lnk37"><path d="M1423.85,155.92 C1490.57,160.78 1593.52,173.68 1676,208 C1712.76,223.29 1745.3792,247.1867 1770.6292,268.3667" fill="none" id="WebSteps-to-Consumer" style="stroke:#000000;stroke-width:1;"/><polygon fill="#000000" points="1774.46,271.58,1770.1353,262.7315,1770.6292,268.3667,1764.994,268.8607,1774.46,271.58" style="stroke:#000000;stroke-width:1;stroke-linejoin:miter;stroke-miterlimit:10;"/><text fill="#000000" font-family="Helvetica" font-size="13" lengthAdjust="spacing" textLength="59.249" x="1704.69" y="219.0103">mixed into</text></g><!--link DrupalSteps to Consumer--><g class="link" data-entity-1="ent0008" data-entity-2="ent0004" data-link-type="dependency" data-source-line="65" id="lnk38"><path d="M1207.78,176.47 C1226.01,185.53 1247.98,194.92 1269,200 C1306.41,209.04 1403.66,204.68 1442,208 C1522.79,214.99 1544.36,211.22 1623,231 C1662.87,241.03 1701.214,255.2483 1735.684,269.5983" fill="none" id="DrupalSteps-to-Consumer" style="stroke:#000000;stroke-width:1;"/><polygon fill="#000000" points="1740.3,271.52,1733.5286,264.3682,1735.684,269.5983,1730.4539,271.7538,1740.3,271.52" style="stroke:#000000;stroke-width:1;stroke-linejoin:miter;stroke-miterlimit:10;"/><text fill="#000000" font-family="Helvetica" font-size="13" lengthAdjust="spacing" textLength="59.249" x="1586.4" y="219.0103">mixed into</text></g><!--link WebSteps to WebHelpers--><g class="link" data-entity-1="ent0007" data-entity-2="ent0010" data-link-type="dependency" data-source-line="66" id="lnk39"><path d="M1318.04,176.35 C1303.26,184.84 1285.77,193.85 1269,200 C1252.39,206.09 1247.11,203.5 1230,208 C783.84,325.19 647.2,305.53 242,526 C221.82,536.98 205.5936,548.8564 188.5636,563.2964" fill="none" id="WebSteps-to-WebHelpers" style="stroke:#000000;stroke-width:1;stroke-dasharray:7,7;"/><polygon fill="#000000" points="184.75,566.53,194.2014,563.7604,188.5636,563.2964,189.0276,557.6586,184.75,566.53" style="stroke:#000000;stroke-width:1;stroke-linejoin:miter;stroke-miterlimit:10;"/><text fill="#000000" font-family="Helvetica" font-size="13" lengthAdjust="spacing" textLength="59.249" x="597.87" y="375.0103">composes</text></g><!--link DrupalSteps to WebHelpers--><g class="link" data-entity-1="ent0008" data-entity-2="ent0010" data-link-type="dependency" data-source-line="67" id="lnk40"><path d="M1080.06,152.2 C911.94,152.24 547.22,160.7 447,231 C314.74,323.78 211.1133,483.8434 165.1733,562.4334" fill="none" id="DrupalSteps-to-WebHelpers" style="stroke:#000000;stroke-width:1;stroke-dasharray:7,7;"/><polygon fill="#000000" points="162.65,566.75,170.6452,560.9987,165.1733,562.4334,163.7386,556.9615,162.65,566.75" style="stroke:#000000;stroke-width:1;stroke-linejoin:miter;stroke-miterlimit:10;"/><text fill="#000000" font-family="Helvetica" font-size="13" lengthAdjust="spacing" textLength="59.249" x="305.96" y="375.0103">composes</text></g><!--link DrupalSteps to DrupalHelpers--><g class="link" data-entity-1="ent0008" data-entity-2="ent0011" data-link-type="dependency" data-source-line="68" id="lnk41"><path d="M1080.26,156.28 C919.9,163.04 586.66,180.26 542,208 C473.04,250.84 469.43,285.98 447,364 C428.08,429.78 470.91,454.64 445,518 C436.29,539.31 423.803,555.0742 407.653,570.4342" fill="none" id="DrupalSteps-to-DrupalHelpers" style="stroke:#000000;stroke-width:1;stroke-dasharray:7,7;"/><polygon fill="#000000" points="404.03,573.88,413.3081,570.576,407.653,570.4342,407.7948,564.7791,404.03,573.88" style="stroke:#000000;stroke-width:1;stroke-linejoin:miter;stroke-miterlimit:10;"/><text fill="#000000" font-family="Helvetica" font-size="13" lengthAdjust="spacing" textLength="59.249" x="448" y="375.0103">composes</text></g><!--link WebRawCtx to WebHelpers--><g class="link" data-entity-1="ent0014" data-entity-2="ent0010" data-link-type="dependency" data-source-line="69" id="lnk42"><path d="M1223.4,445.83 C1062.41,454.28 731.23,473.68 452,503 C403.8,508.06 392.18,512.77 344,518 C321.4,520.45 263.1,517.53 242,526 C219.28,535.12 201.4339,547.7346 183.8839,563.3646" fill="none" id="WebRawCtx-to-WebHelpers" style="stroke:#000000;stroke-width:1;stroke-dasharray:7,7;"/><polygon fill="#000000" points="180.15,566.69,189.5313,563.6914,183.8839,563.3646,184.2107,557.7172,180.15,566.69" style="stroke:#000000;stroke-width:1;stroke-linejoin:miter;stroke-miterlimit:10;"/><text fill="#000000" font-family="Helvetica" font-size="13" lengthAdjust="spacing" textLength="59.249" x="453" y="514.0103">composes</text></g><!--link Consumer to WebHelpers--><g class="link" data-entity-1="ent0004" data-entity-2="ent0010" data-link-type="dependency" data-source-line="70" id="lnk43"><path d="M1836.38,334.25 C1870.89,374.75 1919.88,447.04 1880,495 C1844.16,538.1 1811.8,512.72 1756,518 C1714.13,521.96 281.57,511.77 242,526 C218.52,534.44 200.2031,547.3204 182.5231,563.3604" fill="none" id="Consumer-to-WebHelpers" style="stroke:#000000;stroke-width:1;stroke-dasharray:7,7;"/><polygon fill="#000000" points="178.82,566.72,188.1733,563.6352,182.5231,563.3604,182.7979,557.7102,178.82,566.72" style="stroke:#000000;stroke-width:1;stroke-linejoin:miter;stroke-miterlimit:10;"/><text fill="#000000" font-family="Helvetica" font-size="13" lengthAdjust="spacing" textLength="59.249" x="1895.9" y="443.5103">composes</text></g><!--link Consumer to DrupalHelpers--><g class="link" data-entity-1="ent0004" data-entity-2="ent0011" data-link-type="dependency" data-source-line="71" id="lnk44"><path d="M1902.99,334.5 C1922.31,342.66 1941.93,352.49 1959,364 C2009.81,398.25 2035.25,443.53 2002,495 C1995.25,505.44 1963.15,515.35 1951,518 C1911.51,526.61 534.89,515 496,526 C462.35,535.52 432.7981,552.6312 406.9381,570.8412" fill="none" id="Consumer-to-DrupalHelpers" style="stroke:#000000;stroke-width:1;stroke-dasharray:7,7;"/><polygon fill="#000000" points="402.85,573.72,412.5116,571.8087,406.9381,570.8412,407.9056,565.2677,402.85,573.72" style="stroke:#000000;stroke-width:1;stroke-linejoin:miter;stroke-miterlimit:10;"/><text fill="#000000" font-family="Helvetica" font-size="13" lengthAdjust="spacing" textLength="59.249" x="2018" y="443.5103">composes</text></g><!--link Consumer to WebRawCtx--><g class="link" data-entity-1="ent0004" data-entity-2="ent0014" data-link-type="extension" data-source-line="73" id="lnk45"><path d="M1712.37,330.51 C1627.46,354.05 1521.3059,383.4716 1435.8459,407.1616" fill="none" id="Consumer-to-WebRawCtx" style="stroke:#000000;stroke-width:1;"/><polygon fill="none" points="1418.5,411.97,1437.4487,412.9436,1434.2431,401.3797,1418.5,411.97" style="stroke:#000000;stroke-width:1;stroke-linejoin:miter;stroke-miterlimit:10;"/></g><!--link Vocabularies to WebRawCtx--><g class="link" data-entity-1="ent0015" data-entity-2="ent0014" data-link-type="extension" data-source-line="74" id="lnk46"><path d="M1347.37,334.3 C1341.77,356.53 1338.6008,369.1363 1333.0008,391.3463" fill="none" id="Vocabularies-to-WebRawCtx" style="stroke:#000000;stroke-width:1;"/><polygon fill="none" points="1328.6,408.8,1338.8187,392.8132,1327.1828,389.8793,1328.6,408.8" style="stroke:#000000;stroke-width:1;stroke-linejoin:miter;stroke-miterlimit:10;"/></g><!--link Ext to Managers--><g class="link" data-entity-1="ent0013" data-entity-2="ent0016" data-link-type="dependency" data-source-line="75" id="lnk47"><path d="M1499.19,464.47 C1477.21,481.35 1447.05,504.79 1421,526 C1399.09,543.84 1378.7309,561.0798 1359.6609,577.4798" fill="none" id="Ext-to-Managers" style="stroke:#000000;stroke-width:1;"/><polygon fill="#000000" points="1355.87,580.74,1365.3018,577.9044,1359.6609,577.4798,1360.0856,571.8389,1355.87,580.74" style="stroke:#000000;stroke-width:1;stroke-linejoin:miter;stroke-miterlimit:10;"/><text fill="#000000" font-family="Helvetica" font-size="13" lengthAdjust="spacing" textLength="49.8481" x="1448.62" y="514.0103">registers</text></g><!--link Ext to DriverIface--><g class="link" data-entity-1="ent0013" data-entity-2="ent0019" data-link-type="dependency" data-source-line="76" id="lnk48"><path d="M1498.27,464.44 C1480.83,475.93 1458.26,488.65 1436,495 C1388.05,508.68 573.64,490.14 539,526 C491.14,575.55 493.91,628.92 539,681 C575.6,723.27 732.53,710.03 788,717 C821.26,721.18 831.28,714.17 863,725 C889.89,734.18 913.0553,748.3682 932.9053,762.5882" fill="none" id="Ext-to-DriverIface" style="stroke:#000000;stroke-width:1;"/><polygon fill="#000000" points="936.97,765.5,931.9831,757.007,932.9053,762.5882,927.3242,763.5105,936.97,765.5" style="stroke:#000000;stroke-width:1;stroke-linejoin:miter;stroke-miterlimit:10;"/><text fill="#000000" font-family="Helvetica" font-size="13" lengthAdjust="spacing" textLength="92.4663" x="540" y="615.5103">registers drivers</text></g><!--link Ext to MinkExt--><g class="link" data-entity-1="ent0013" data-entity-2="ent0017" data-link-type="dependency" data-source-line="77" id="lnk49"><path d="M1529.04,464.28 C1527.8,494.47 1525.8368,542.2043 1524.4568,575.5443" fill="none" id="Ext-to-MinkExt" style="stroke:#000000;stroke-width:1;stroke-dasharray:7,7;"/><polygon fill="#000000" points="1524.25,580.54,1528.6188,571.7131,1524.4568,575.5443,1520.6256,571.3823,1524.25,580.54" style="stroke:#000000;stroke-width:1;stroke-linejoin:miter;stroke-miterlimit:10;"/><text fill="#000000" font-family="Helvetica" font-size="13" lengthAdjust="spacing" textLength="109.8398" x="1528.33" y="514.0103">reads ajax_timeout</text></g><!--link Ext to Mink--><g class="link" data-entity-1="ent0013" data-entity-2="ent0026" data-link-type="dependency" data-source-line="78" id="lnk50"><path d="M1577.02,464.44 C1603.6,478.02 1633.88,494.14 1646,503 C1766.15,590.83 1882.815,722.0746 1922.805,768.7046" fill="none" id="Ext-to-Mink" style="stroke:#000000;stroke-width:1;stroke-dasharray:7,7;"/><polygon fill="#000000" points="1926.06,772.5,1923.2374,763.0643,1922.805,768.7046,1917.1647,768.2722,1926.06,772.5" style="stroke:#000000;stroke-width:1;stroke-linejoin:miter;stroke-miterlimit:10;"/><text fill="#000000" font-family="Helvetica" font-size="13" lengthAdjust="spacing" textLength="151.0171" x="1841.73" y="615.5103">aliases DocumentElement</text></g><!--link WebRawCtx to Managers--><g class="link" data-entity-1="ent0014" data-entity-2="ent0016" data-link-type="dependency" data-source-line="79" id="lnk51"><path d="M1321,471.39 C1321,502.24 1321,544.73 1321,575.58" fill="none" id="WebRawCtx-to-Managers" style="stroke:#000000;stroke-width:1;"/><polygon fill="#000000" points="1321,580.58,1325,571.58,1321,575.58,1317,571.58,1321,580.58" style="stroke:#000000;stroke-width:1;stroke-linejoin:miter;stroke-miterlimit:10;"/></g><!--link Managers to DriverIface--><g class="link" data-entity-1="ent0016" data-entity-2="ent0019" data-link-type="dependency" data-source-line="81" id="lnk52"><path d="M1259.74,643.46 C1189.99,678.14 1081.9972,731.8241 1018.6972,763.2941" fill="none" id="Managers-to-DriverIface" style="stroke:#000000;stroke-width:1;"/><polygon fill="#000000" points="1014.22,765.52,1024.0597,765.0952,1018.6972,763.2941,1020.4983,757.9316,1014.22,765.52" style="stroke:#000000;stroke-width:1;stroke-linejoin:miter;stroke-miterlimit:10;"/><text fill="#000000" font-family="Helvetica" font-size="13" lengthAdjust="spacing" textLength="123.5571" x="1166.19" y="706.5103">resolves by capability</text></g><!--link DrupalDrv to DriverIface--><g class="link" data-entity-1="ent0020" data-entity-2="ent0019" data-link-type="extension" data-source-line="82" id="lnk53"><path d="M908.9,636.37 C921.71,670.03 938.8229,714.9989 951.6629,748.7089" fill="none" id="DrupalDrv-to-DriverIface" style="stroke:#000000;stroke-width:1;stroke-dasharray:7,7;"/><polygon fill="none" points="958.07,765.53,957.2699,746.5732,946.0559,750.8446,958.07,765.53" style="stroke:#000000;stroke-width:1;stroke-linejoin:miter;stroke-miterlimit:10;"/></g><!--link DrushDrv to DriverIface--><g class="link" data-entity-1="ent0021" data-entity-2="ent0019" data-link-type="extension" data-source-line="83" id="lnk54"><path d="M1083.21,636.37 C1057.58,670.03 1021.4451,717.4994 995.7751,751.2094" fill="none" id="DrushDrv-to-DriverIface" style="stroke:#000000;stroke-width:1;stroke-dasharray:7,7;"/><polygon fill="none" points="984.87,765.53,1000.5486,754.8444,991.0015,747.5744,984.87,765.53" style="stroke:#000000;stroke-width:1;stroke-linejoin:miter;stroke-miterlimit:10;"/></g><!--link BlackboxDrv to DriverIface--><g class="link" data-entity-1="ent0022" data-entity-2="ent0019" data-link-type="extension" data-source-line="84" id="lnk55"><path d="M730.78,636.24 C745.06,650.14 764.26,667.63 783,681 C816.03,704.57 827.93,704.58 863,725 C885.54,738.12 895.1482,743.8825 914.9282,756.2225" fill="none" id="BlackboxDrv-to-DriverIface" style="stroke:#000000;stroke-width:1;stroke-dasharray:7,7;"/><polygon fill="none" points="930.2,765.75,918.1041,751.1319,911.7524,761.3131,930.2,765.75" style="stroke:#000000;stroke-width:1;stroke-linejoin:miter;stroke-miterlimit:10;"/></g><!--link DrupalDrv to Core--><g class="link" data-entity-1="ent0020" data-entity-2="ent0023" data-link-type="dependency" data-source-line="85" id="lnk56"><path d="M881.01,636.37 C855.41,667.88 812.9327,720.1592 784.7427,754.8592" fill="none" id="DrupalDrv-to-Core" style="stroke:#000000;stroke-width:1;"/><polygon fill="#000000" points="781.59,758.74,790.3695,754.2768,784.7427,754.8592,784.1603,749.2324,781.59,758.74" style="stroke:#000000;stroke-width:1;stroke-linejoin:miter;stroke-miterlimit:10;"/></g><!--link MinkExt to Mink--><g class="link" data-entity-1="ent0017" data-entity-2="ent0026" data-link-type="dependency" data-source-line="87" id="lnk57"><path d="M1522.42,643.32 C1523.76,667.42 1529.97,699.83 1552,717 C1566.03,727.93 1855.55,718.24 1872,725 C1895.84,734.8 1913.2264,753.1763 1925.3064,768.6763" fill="none" id="MinkExt-to-Mink" style="stroke:#000000;stroke-width:1;"/><polygon fill="#000000" points="1928.38,772.62,1926.0026,763.0624,1925.3064,768.6763,1919.6926,767.9801,1928.38,772.62" style="stroke:#000000;stroke-width:1;stroke-linejoin:miter;stroke-miterlimit:10;"/><text fill="#000000" font-family="Helvetica" font-size="13" lengthAdjust="spacing" textLength="91.7681" x="1572.1509" y="700.0103">builds sessions,</text><text fill="#000000" font-family="Helvetica" font-size="13" lengthAdjust="spacing" textLength="130.0698" x="1553" y="713.0103">picks one per scenario</text></g><!--link Consumer to Mink--><g class="link" data-entity-1="ent0004" data-entity-2="ent0026" data-link-type="dependency" data-source-line="88" id="lnk58"><path d="M1903.56,331.94 C1932.89,341.29 1965.05,352.32 1994,364 C2036.21,381.03 2050.98,379.93 2086,409 C2126.08,442.27 2139.61,453.56 2156,503 C2158.1,509.33 2158.2,511.71 2156,518 C2134.99,578.06 2004.6807,720.2032 1958.8307,769.0832" fill="none" id="Consumer-to-Mink" style="stroke:#000000;stroke-width:1;"/><polygon fill="#000000" points="1955.41,772.73,1964.4847,768.9024,1958.8307,769.0832,1958.6499,763.4293,1955.41,772.73" style="stroke:#000000;stroke-width:1;stroke-linejoin:miter;stroke-miterlimit:10;"/></g><!--link Mink to Browser--><g class="link" data-entity-1="ent0026" data-entity-2="ent0027" data-link-type="dependency" data-source-line="89" id="lnk59"><path d="M1940,807.29 C1940,831.44 1940,872.14 1940,902.59" fill="none" id="Mink-to-Browser" style="stroke:#000000;stroke-width:1;"/><polygon fill="#000000" points="1940,907.59,1944,898.59,1940,902.59,1936,898.59,1940,907.59" style="stroke:#000000;stroke-width:1;stroke-linejoin:miter;stroke-miterlimit:10;"/></g><!--link DrupalDrv to Site--><g class="link" data-entity-1="ent0020" data-entity-2="ent0028" data-link-type="dependency" data-source-line="90" id="lnk60"><path d="M930.33,636.34 C952.88,652.22 985.14,671.93 1017,681 C1077.08,698.11 1236.2,679.85 1298,689 C1344.93,695.95 1354.8,706.24 1401,717 C1498.52,739.71 1606.708,760.1101 1681.948,773.5601" fill="none" id="DrupalDrv-to-Site" style="stroke:#000000;stroke-width:1;"/><polygon fill="#000000" points="1686.87,774.44,1678.7143,768.9187,1681.948,773.5601,1677.3066,776.7938,1686.87,774.44" style="stroke:#000000;stroke-width:1;stroke-linejoin:miter;stroke-miterlimit:10;"/></g><!--link DrushDrv to Site--><g class="link" data-entity-1="ent0021" data-entity-2="ent0028" data-link-type="dependency" data-source-line="91" id="lnk61"><path d="M1128.45,636.23 C1148.93,652.04 1178.38,671.73 1208,681 C1249.81,694.09 1361.7,682.29 1405,689 C1460.25,697.56 1598.3576,737.3043 1688.3776,764.0843" fill="none" id="DrushDrv-to-Site" style="stroke:#000000;stroke-width:1;"/><polygon fill="#000000" points="1693.17,765.51,1685.6842,759.1098,1688.3776,764.0843,1683.4031,766.7777,1693.17,765.51" style="stroke:#000000;stroke-width:1;stroke-linejoin:miter;stroke-miterlimit:10;"/></g><!--link Features to Config--><!--link WebSteps to DrupalSteps--><!--link DrupalDrv to DrushDrv--><!--link DrushDrv to BlackboxDrv--><?plantuml-src ZLTDZzis4BthLqmtXm2fFve4MoGv16XsxJOjqXRPD3tKHK1BOujPcbH9obwZoN_l8od9akrDSxBCcNaSphoP8HzIONbhAZTTSYdys7ck78r9YJrRBYWtcyferfw4pKlfEVUrvKdsaDvPaKDXPSqcQJcsau_Ew14vcqzl0j0qVV_4gc8x_PENmuLhMrT2JKT02wklWWUDnhMLMsW4KNHiKfKL9BcLbNTJ9RKVHnTT40HttlAQDLlXcHYMUxfv_oFjf2zV45LAQ5zl58szswwfCBcRzeypVJIf8Cw-yILlEAXBdRbRgIjXnOQM8hzTMrFhuieeOsaN37loWbUYLdvkjFzLm1wdsxANkUZfk58KPYVrcbP2kRvr5-4RlrTC5Yu9lLQSUUdn_-fi0hAiWbDYpNHnPRIhDm6vikOZn1VqO3wVFvrzH_zcr4lWnPn5iAMLLEmM-j5abHOkI3XgX6veqiL-eVdEitRIQ7BiFVPpeuMsl9QWZ7K40nXg3xM81xTMSZr4-ssdMvq6ht04LhmLkwkq3CY6IuwG3CfBV6hoLaZlMbmSbstskHU3Cno-mEcnUwVotkHYMIi1PemF14MiPa_dJ-RNCLO3PwDyiO1x2_taMUF2YDv8VOl3gdtq1jAeTuzn8ZZidtVscb4quMX5P7X4IMejqEU1twbKNEDq-XSo_7HsERyyzJefD6vVDhk-G3axJo4kCMV_r8o_9Oi2oAWgRvjq_YosuYRM6BcwgemD2V5Y2Hu2IRkGcFRSZMFtET0U_U03nDBlISaLv_jSCQ15ZKZeK2fUniRXyP5JBl8oY5Voxa3O4S5jAzdrGdRmOHYqro3JsaRG9d2njtmXRb4UCp1hURxGw6XRcJFQI0XGt1VIOzC1WHSwvPL4dhE3qtciWpevWpELnjnI8LqbV5w23eOQkegk5FpTcIqw_7Joxc-ikn8DQuI-P92eRKVqYDdnNl99hju8ZN1P5q23qoFwOPYGXVx3XUKtGgg8rbgS8A4gUe7RMO4f4XOVEkeQHqXuWOfVMhC3xAtq7qhlgmIS04uocHnhadZTbCo3sRFvvUpvQHQJGiY-NM4wBVItzFXxqAaIIwa2-MGhQbaKzSF2ALG8Sr9OwAKn7cKIJfK4G1gZtuOSz_XuRRTdS5pPmhYIbKAlh3rvWmu0KMiTb4wCNod4OMdkMdkmfTbUO1web9E3qedzbR4SoeXLGQNGXOhrdgCRE8bL6seUKyYbPSkfOeIImd7RRYt7fFJRxTiQ5C6W0o9vOTViOoEzcitdZu-7JYmid1mafqtWV9XKmJ0KGjeZgcGdVCASSO4s7J-EW1EB5hhv-4Nw4TsmOYthpHCSxAh4rOJfchVlZ57DLaatEvDgSXYk2zrqgHz-VztMxgYNg9im-H6ATbhIUFmo-KylKY5dQV150GYDvRO3y43M4FvUURzkeTGDsYpj5bJQKGXnZ2mKGs2btffRxYiUOPrJpjf9TiwW6Sa5BVTPRrRzd-e0ik-ilEEmipSdQEUrEg39v6Llz1osSmEWhzSQJ96-OjU9lm3M-VgLAlTkTb0RZp-zx4s1GMoFP84xaKTDHnvmf1Ns-bjVtjmzabvmxK16z01qQF5Ht7q89OvEDL22HjCTwDhay5dxcUBmqmjPtwqiwnmyvv0pk2fZ8knxJJhhUYcs_JImoTf6UIhfTS6pPWrY8bcuGBTdReiH_YnhgN3wfk_4vYZpstItHTBm_62DP9X-mf9nH4lDeEammorZt-YSxrOoRV1UMHhlyOWogwDvzAwx9QRd6EArmgDCO-ZWtk1Z9utFhrJfU9a4BqQmT8Qa9-ceTl7o5jv1OUWaHMLmyIic4N_7Iqm6jOBH0BsTCt5Mu0csDpfTMt4DBB1byzWoTXAsE_yimrD7gdIFZv5578dXIVyaamoFW70QxZVLlqfP5Ap_nfD9ZzkdnA6Tj68hrwKV3wxFlR2VQgKPUqZ3aKQFGly1?></g></svg>