<svg xmlns="http://www.w3.org/2000/svg" xmlns:xlink="http://www.w3.org/1999/xlink" contentStyleType="text/css" data-diagram-type="DESCRIPTION" height="1124px" preserveAspectRatio="none" style="width:2004px;height:1124px;background:#FFFFFF;" version="1.1" viewBox="0 0 2004 1124" width="2004px" zoomAndPan="magnify"><?plantuml 1.2026.6?><defs/><g><g class="title" data-source-line="11"><text fill="#000000" font-family="Helvetica" font-size="22" font-weight="700" lengthAdjust="spacing" textLength="254.2568" x="874.2425" y="31.9404">Component architecture</text></g><!--cluster Consuming project--><g class="cluster" data-qualified-name="Consuming project" data-source-line="13" id="ent0001"><path d="M1279.5,239 L1408.0586,239 A3.75,3.75 0 0 1 1410.5586,241.5 L1417.5586,259 L1629.5,259 A2.5,2.5 0 0 1 1632,261.5 L1632,484.5 A2.5,2.5 0 0 1 1629.5,487 L1279.5,487 A2.5,2.5 0 0 1 1277,484.5 L1277,241.5 A2.5,2.5 0 0 1 1279.5,239" fill="#FFF3E0" style="stroke:#000000;stroke-width:1;"/><line style="stroke:#000000;stroke-width:1;" x1="1277" x2="1417.5586" y1="259" y2="259"/><text fill="#000000" font-family="Helvetica" font-size="14" font-weight="700" lengthAdjust="spacing" textLength="127.5586" x="1281" y="251.7803">Consuming project</text></g><!--cluster drevops/behat-steps--><g class="cluster" data-qualified-name="drevops.behat-steps" data-source-line="19" id="ent0005"><path d="M13.5,54 L151.4238,54 A3.75,3.75 0 0 1 153.9238,56.5 L160.9238,74 L1250.5,74 A2.5,2.5 0 0 1 1253,76.5 L1253,997.5 A2.5,2.5 0 0 1 1250.5,1000 L13.5,1000 A2.5,2.5 0 0 1 11,997.5 L11,56.5 A2.5,2.5 0 0 1 13.5,54" fill="#FFFFFF" style="stroke:#000000;stroke-width:1;"/><line style="stroke:#000000;stroke-width:1;" x1="11" x2="160.9238" y1="74" y2="74"/><text fill="#000000" font-family="Helvetica" font-size="14" font-weight="700" lengthAdjust="spacing" textLength="136.9238" x="15" y="66.7803">drevops/behat-steps</text></g><!--cluster Vocabulary - src/Steps--><g class="cluster" data-qualified-name="drevops.behat-steps.Vocabulary - src.Steps" data-source-line="21" id="ent0006"><path d="M749.5,95 L901.4512,95 A3.75,3.75 0 0 1 903.9512,97.5 L910.9512,115 L1118.5,115 A2.5,2.5 0 0 1 1121,117.5 L1121,189.5 A2.5,2.5 0 0 1 1118.5,192 L749.5,192 A2.5,2.5 0 0 1 747,189.5 L747,97.5 A2.5,2.5 0 0 1 749.5,95" fill="#E3F2FD" style="stroke:#000000;stroke-width:1;"/><line style="stroke:#000000;stroke-width:1;" x1="747" x2="910.9512" y1="115" y2="115"/><text fill="#000000" font-family="Helvetica" font-size="14" font-weight="700" lengthAdjust="spacing" textLength="150.9512" x="751" y="107.7803">Vocabulary - src/Steps</text></g><!--cluster Helpers - src/Helper--><g class="cluster" data-qualified-name="drevops.behat-steps.Helpers - src.Helper" data-source-line="26" id="ent0009"><path d="M739.5,534 L872.7822,534 A3.75,3.75 0 0 1 875.2822,536.5 L882.2822,554 L1167.5,554 A2.5,2.5 0 0 1 1170,556.5 L1170,670.5 A2.5,2.5 0 0 1 1167.5,673 L739.5,673 A2.5,2.5 0 0 1 737,670.5 L737,536.5 A2.5,2.5 0 0 1 739.5,534" fill="#F3E5F5" style="stroke:#000000;stroke-width:1;"/><line style="stroke:#000000;stroke-width:1;" x1="737" x2="882.2822" y1="554" y2="554"/><text fill="#000000" font-family="Helvetica" font-size="14" font-weight="700" lengthAdjust="spacing" textLength="132.2822" x="741" y="546.7803">Helpers - src/Helper</text></g><!--cluster Integration - src/Behat--><g class="cluster" data-qualified-name="drevops.behat-steps.Integration - src.Behat" data-source-line="31" id="ent0012"><path d="M37.5,239 L187.0791,239 A3.75,3.75 0 0 1 189.5791,241.5 L196.5791,259 L641.5,259 A2.5,2.5 0 0 1 644,261.5 L644,834.5 A2.5,2.5 0 0 1 641.5,837 L37.5,837 A2.5,2.5 0 0 1 35,834.5 L35,241.5 A2.5,2.5 0 0 1 37.5,239" fill="#F3E5F5" style="stroke:#000000;stroke-width:1;"/><line style="stroke:#000000;stroke-width:1;" x1="35" x2="196.5791" y1="259" y2="259"/><text fill="#000000" font-family="Helvetica" font-size="14" font-weight="700" lengthAdjust="spacing" textLength="148.5791" x="39" y="251.7803">Integration - src/Behat</text></g><!--cluster Driver - src/Driver--><g class="cluster" data-qualified-name="drevops.behat-steps.Driver - src.Driver" data-source-line="40" id="ent0019"><path d="M670.5,733 L789.7891,733 A3.75,3.75 0 0 1 792.2891,735.5 L799.2891,753 L1213.5,753 A2.5,2.5 0 0 1 1216,755.5 L1216,973.5 A2.5,2.5 0 0 1 1213.5,976 L670.5,976 A2.5,2.5 0 0 1 668,973.5 L668,735.5 A2.5,2.5 0 0 1 670.5,733" fill="#E8F5E9" style="stroke:#000000;stroke-width:1;"/><line style="stroke:#000000;stroke-width:1;" x1="668" x2="799.2891" y1="753" y2="753"/><text fill="#000000" font-family="Helvetica" font-size="14" font-weight="700" lengthAdjust="spacing" textLength="118.2891" x="672" y="745.7803">Driver - src/Driver</text></g><!--cluster Runtime and targets--><g class="cluster" data-qualified-name="Runtime and targets" data-source-line="49" id="ent0025"><path d="M1279.5,733 L1415.8516,733 A3.75,3.75 0 0 1 1418.3516,735.5 L1425.3516,753 L1820.5,753 A2.5,2.5 0 0 1 1823,755.5 L1823,973.5 A2.5,2.5 0 0 1 1820.5,976 L1279.5,976 A2.5,2.5 0 0 1 1277,973.5 L1277,735.5 A2.5,2.5 0 0 1 1279.5,733" fill="#ECEFF1" style="stroke:#000000;stroke-width:1;"/><line style="stroke:#000000;stroke-width:1;" x1="1277" x2="1425.3516" y1="753" y2="753"/><text fill="#000000" font-family="Helvetica" font-size="14" font-weight="700" lengthAdjust="spacing" textLength="135.3516" x="1281" y="745.7803">Runtime and targets</text></g><!--entity Features--><g class="entity" data-qualified-name="Consuming project.Features" data-source-line="14" id="ent0002"><rect fill="#FFFFFF" height="48" rx="2.5" ry="2.5" style="stroke:#000000;stroke-width:1;" width="97.0342" x="1518.48" y="279"/><text fill="#000000" font-family="Helvetica" font-size="14" lengthAdjust="spacing" textLength="77.0342" x="1528.48" y="299.7803">Feature files</text><ellipse cx="1533.98" cy="309.5" fill="#000000" rx="2.5" ry="2.5"/><text fill="#000000" font-family="Helvetica" font-size="14" lengthAdjust="spacing" textLength="47.4756" x="1540.48" y="313.7803">.feature</text></g><!--entity Config--><g class="entity" data-qualified-name="Consuming project.Config" data-source-line="15" id="ent0003"><rect fill="#FFFFFF" height="62" rx="2.5" ry="2.5" style="stroke:#000000;stroke-width:1;" width="149.958" x="1293.02" y="409"/><text fill="#000000" font-family="Helvetica" font-size="14" lengthAdjust="spacing" textLength="62.2822" x="1303.02" y="429.7803">behat.php</text><text fill="#000000" font-family="Helvetica" font-size="14" lengthAdjust="spacing" textLength="115.958" x="1303.02" y="443.7803">extension settings,</text><text fill="#000000" font-family="Helvetica" font-size="14" lengthAdjust="spacing" textLength="129.958" x="1303.02" y="457.7803">registers one context</text></g><!--entity Consumer--><g class="entity" data-qualified-name="Consuming project.Consumer" data-source-line="16" id="ent0004"><rect fill="#FFFFFF" height="62" rx="2.5" ry="2.5" style="stroke:#000000;stroke-width:1;" width="190.4199" x="1292.79" y="272"/><text fill="#000000" font-family="Helvetica" font-size="14" lengthAdjust="spacing" textLength="77.8135" x="1302.79" y="292.7803">Own context</text><text fill="#000000" font-family="Helvetica" font-size="14" lengthAdjust="spacing" textLength="161.8545" x="1302.79" y="306.7803">extends WebRawContext,</text><text fill="#000000" font-family="Helvetica" font-size="14" lengthAdjust="spacing" textLength="170.4199" x="1302.79" y="320.7803">composes the chosen traits</text></g><!--entity WebSteps--><g class="entity" data-qualified-name="drevops.behat-steps.Vocabulary - src.Steps.WebSteps" data-source-line="22" id="ent0007"><rect fill="#FFFFFF" height="48" rx="2.5" ry="2.5" style="stroke:#000000;stroke-width:1;" width="136.71" x="762.65" y="128"/><text fill="#000000" font-family="Helvetica" font-size="14" lengthAdjust="spacing" textLength="68.4756" x="772.65" y="148.7803">Steps\Web</text><text fill="#000000" font-family="Helvetica" font-size="14" lengthAdjust="spacing" textLength="116.71" x="772.65" y="162.7803">28 traits, Mink only</text></g><!--entity DrupalSteps--><g class="entity" data-qualified-name="drevops.behat-steps.Vocabulary - src.Steps.DrupalSteps" data-source-line="23" id="ent0008"><rect fill="#FFFFFF" height="48" rx="2.5" ry="2.5" style="stroke:#000000;stroke-width:1;" width="170.9717" x="934.51" y="128"/><text fill="#000000" font-family="Helvetica" font-size="14" lengthAdjust="spacing" textLength="80.9307" x="944.51" y="148.7803">Steps\Drupal</text><text fill="#000000" font-family="Helvetica" font-size="14" lengthAdjust="spacing" textLength="150.9717" x="944.51" y="162.7803">29 traits, need the driver</text></g><!--entity WebHelpers--><g class="entity" data-qualified-name="drevops.behat-steps.Helpers - src.Helper.WebHelpers" data-source-line="27" id="ent0010"><rect fill="#FFFFFF" height="90" rx="2.5" ry="2.5" style="stroke:#000000;stroke-width:1;" width="174.082" x="752.96" y="567"/><text fill="#000000" font-family="Helvetica" font-size="14" lengthAdjust="spacing" textLength="73.917" x="762.96" y="587.7803">Helper\Web</text><text fill="#000000" font-family="Helvetica" font-size="14" lengthAdjust="spacing" textLength="105.8203" x="762.96" y="601.7803">5 traits: last step,</text><text fill="#000000" font-family="Helvetica" font-size="14" lengthAdjust="spacing" textLength="154.082" x="762.96" y="615.7803">request headers, strings,</text><text fill="#000000" font-family="Helvetica" font-size="14" lengthAdjust="spacing" textLength="119.834" x="762.96" y="629.7803">JavaScript support,</text><text fill="#000000" font-family="Helvetica" font-size="14" lengthAdjust="spacing" textLength="95.7305" x="762.96" y="643.7803">table transpose</text></g><!--entity DrupalHelpers--><g class="entity" data-qualified-name="drevops.behat-steps.Helpers - src.Helper.DrupalHelpers" data-source-line="28" id="ent0011"><rect fill="#FFFFFF" height="76" rx="2.5" ry="2.5" style="stroke:#000000;stroke-width:1;" width="192.7715" x="961.61" y="574"/><text fill="#000000" font-family="Helvetica" font-size="14" lengthAdjust="spacing" textLength="86.3721" x="971.61" y="594.7803">Helper\Drupal</text><text fill="#000000" font-family="Helvetica" font-size="14" lengthAdjust="spacing" textLength="140.8271" x="971.61" y="608.7803">5 traits: entity lifecycle,</text><text fill="#000000" font-family="Helvetica" font-size="14" lengthAdjust="spacing" textLength="172.7715" x="971.61" y="622.7803">authentication, static cache,</text><text fill="#000000" font-family="Helvetica" font-size="14" lengthAdjust="spacing" textLength="120.6064" x="971.61" y="636.7803">fixture files, queries</text></g><!--entity Ext--><g class="entity" data-qualified-name="drevops.behat-steps.Integration - src.Behat.Ext" data-source-line="32" id="ent0013"><rect fill="#FFFFFF" height="48" rx="2.5" ry="2.5" style="stroke:#000000;stroke-width:1;" width="153.8682" x="456.07" y="416"/><text fill="#000000" font-family="Helvetica" font-size="14" lengthAdjust="spacing" textLength="133.8682" x="466.07" y="436.7803">BehatStepsExtension</text><text fill="#000000" font-family="Helvetica" font-size="14" lengthAdjust="spacing" textLength="84.7998" x="466.07" y="450.7803">service wiring</text></g><!--entity WebRawCtx--><g class="entity" data-qualified-name="drevops.behat-steps.Integration - src.Behat.WebRawCtx" data-source-line="33" id="ent0014"><rect fill="#FFFFFF" height="62" rx="2.5" ry="2.5" style="stroke:#000000;stroke-width:1;" width="191.1924" x="229.4" y="409"/><text fill="#000000" font-family="Helvetica" font-size="14" lengthAdjust="spacing" textLength="105.041" x="239.4" y="429.7803">WebRawContext</text><text fill="#000000" font-family="Helvetica" font-size="14" lengthAdjust="spacing" textLength="171.1924" x="239.4" y="443.7803">driver access, option reads,</text><text fill="#000000" font-family="Helvetica" font-size="14" lengthAdjust="spacing" textLength="147.0957" x="239.4" y="457.7803">hook dispatch, no steps</text></g><!--entity Vocabularies--><g class="entity" data-qualified-name="drevops.behat-steps.Integration - src.Behat.Vocabularies" data-source-line="34" id="ent0015"><rect fill="#FFFFFF" height="62" rx="2.5" ry="2.5" style="stroke:#000000;stroke-width:1;" width="196.668" x="431.67" y="272"/><text fill="#000000" font-family="Helvetica" font-size="14" lengthAdjust="spacing" textLength="77.0342" x="441.67" y="292.7803">WebContext</text><text fill="#000000" font-family="Helvetica" font-size="14" lengthAdjust="spacing" textLength="89.4893" x="441.67" y="306.7803">DrupalContext</text><text fill="#000000" font-family="Helvetica" font-size="14" lengthAdjust="spacing" textLength="176.668" x="441.67" y="320.7803">one chain, whole vocabulary</text></g><!--entity Managers--><g class="entity" data-qualified-name="drevops.behat-steps.Integration - src.Behat.Managers" data-source-line="35" id="ent0016"><rect fill="#FFFFFF" height="62" rx="2.5" ry="2.5" style="stroke:#000000;stroke-width:1;" width="176.3926" x="209.8" y="759"/><text fill="#000000" font-family="Helvetica" font-size="14" lengthAdjust="spacing" textLength="62.2549" x="219.8" y="779.7803">Managers</text><text fill="#000000" font-family="Helvetica" font-size="14" lengthAdjust="spacing" textLength="137.7305" x="219.8" y="793.7803">Driver, Authentication,</text><text fill="#000000" font-family="Helvetica" font-size="14" lengthAdjust="spacing" textLength="156.3926" x="219.8" y="807.7803">User, Mail, Scenario tags</text></g><!--entity OptionConfig--><g class="entity" data-qualified-name="drevops.behat-steps.Integration - src.Behat.OptionConfig" data-source-line="36" id="ent0017"><rect fill="#FFFFFF" height="62" rx="2.5" ry="2.5" style="stroke:#000000;stroke-width:1;" width="216.875" x="87.56" y="581"/><text fill="#000000" font-family="Helvetica" font-size="14" lengthAdjust="spacing" textLength="40.4688" x="97.56" y="601.7803">Config</text><text fill="#000000" font-family="Helvetica" font-size="14" lengthAdjust="spacing" textLength="196.875" x="97.56" y="615.7803">schema reader, option resolver,</text><text fill="#000000" font-family="Helvetica" font-size="14" lengthAdjust="spacing" textLength="80.9307" x="97.56" y="629.7803">tag overrides</text></g><!--entity MinkExt--><g class="entity" data-qualified-name="drevops.behat-steps.Integration - src.Behat.MinkExt" data-source-line="37" id="ent0018"><rect fill="#FFFFFF" height="62" rx="2.5" ry="2.5" style="stroke:#000000;stroke-width:1;" width="168.1758" x="459.91" y="581"/><text fill="#000000" font-family="Helvetica" font-size="14" lengthAdjust="spacing" textLength="91.041" x="469.91" y="601.7803">MinkExtension</text><text fill="#000000" font-family="Helvetica" font-size="14" lengthAdjust="spacing" textLength="148.1758" x="469.91" y="615.7803">wraps Mink's extension,</text><text fill="#000000" font-family="Helvetica" font-size="14" lengthAdjust="spacing" textLength="129.1787" x="469.91" y="629.7803">adds browserkit_http</text></g><!--entity DriverIface--><g class="entity" data-qualified-name="drevops.behat-steps.Driver - src.Driver.DriverIface" data-source-line="41" id="ent0020"><rect fill="#FFFFFF" height="48" rx="2.5" ry="2.5" style="stroke:#000000;stroke-width:1;" width="174.4785" x="901.76" y="905"/><text fill="#000000" font-family="Helvetica" font-size="14" lengthAdjust="spacing" textLength="91.8066" x="911.76" y="925.7803">DriverInterface</text><text fill="#000000" font-family="Helvetica" font-size="14" lengthAdjust="spacing" textLength="154.4785" x="911.76" y="939.7803">+ 16 capability interfaces</text></g><!--entity DrupalDrv--><g class="entity" data-qualified-name="drevops.behat-steps.Driver - src.Driver.DrupalDrv" data-source-line="42" id="ent0021"><rect fill="#FFFFFF" height="48" rx="2.5" ry="2.5" style="stroke:#000000;stroke-width:1;" width="198.9717" x="683.51" y="766"/><text fill="#000000" font-family="Helvetica" font-size="14" lengthAdjust="spacing" textLength="78.5723" x="693.51" y="786.7803">DrupalDriver</text><text fill="#000000" font-family="Helvetica" font-size="14" lengthAdjust="spacing" textLength="178.9717" x="693.51" y="800.7803">bootstraps Drupal in-process</text></g><!--entity DrushDrv--><g class="entity" data-qualified-name="drevops.behat-steps.Driver - src.Driver.DrushDrv" data-source-line="43" id="ent0022"><rect fill="#FFFFFF" height="48" rx="2.5" ry="2.5" style="stroke:#000000;stroke-width:1;" width="133.6201" x="917.19" y="766"/><text fill="#000000" font-family="Helvetica" font-size="14" lengthAdjust="spacing" textLength="74.6758" x="927.19" y="786.7803">DrushDriver</text><text fill="#000000" font-family="Helvetica" font-size="14" lengthAdjust="spacing" textLength="113.6201" x="927.19" y="800.7803">shells out to drush</text></g><!--entity BlackboxDrv--><g class="entity" data-qualified-name="drevops.behat-steps.Driver - src.Driver.BlackboxDrv" data-source-line="44" id="ent0023"><rect fill="#FFFFFF" height="48" rx="2.5" ry="2.5" style="stroke:#000000;stroke-width:1;" width="114.165" x="1085.92" y="766"/><text fill="#000000" font-family="Helvetica" font-size="14" lengthAdjust="spacing" textLength="94.1377" x="1095.92" y="786.7803">BlackboxDriver</text><text fill="#000000" font-family="Helvetica" font-size="14" lengthAdjust="spacing" textLength="94.165" x="1095.92" y="800.7803">no Drupal at all</text></g><!--entity Core--><g class="entity" data-qualified-name="drevops.behat-steps.Driver - src.Driver.Core" data-source-line="45" id="ent0024"><rect fill="#FFFFFF" height="62" rx="2.5" ry="2.5" style="stroke:#000000;stroke-width:1;" width="176.3994" x="690.8" y="898"/><text fill="#000000" font-family="Helvetica" font-size="14" lengthAdjust="spacing" textLength="30.3447" x="700.8" y="918.7803">Core</text><text fill="#000000" font-family="Helvetica" font-size="14" lengthAdjust="spacing" textLength="156.3994" x="700.8" y="932.7803">field handlers, classifiers,</text><text fill="#000000" font-family="Helvetica" font-size="14" lengthAdjust="spacing" textLength="151.7373" x="700.8" y="946.7803">parsers, creation aliases</text></g><!--entity Behat--><g class="entity" data-qualified-name="Runtime and targets.Behat" data-source-line="50" id="ent0026"><rect fill="#FFFFFF" height="48" rx="2.5" ry="2.5" style="stroke:#000000;stroke-width:1;" width="175.6543" x="1428.17" y="766"/><text fill="#000000" font-family="Helvetica" font-size="14" lengthAdjust="spacing" textLength="36.5859" x="1438.17" y="786.7803">Behat</text><text fill="#000000" font-family="Helvetica" font-size="14" lengthAdjust="spacing" textLength="155.6543" x="1438.17" y="800.7803">step matching and hooks</text></g><!--entity Mink--><g class="entity" data-qualified-name="Runtime and targets.Mink" data-source-line="51" id="ent0027"><rect fill="#FFFFFF" height="34" rx="2.5" ry="2.5" style="stroke:#000000;stroke-width:1;" width="100.917" x="1292.54" y="773"/><text fill="#000000" font-family="Helvetica" font-size="14" lengthAdjust="spacing" textLength="80.917" x="1302.54" y="793.7803">Mink session</text></g><!--entity Browser--><g class="entity" data-qualified-name="Runtime and targets.Browser" data-source-line="52" id="ent0028"><rect fill="#FFFFFF" height="62" rx="2.5" ry="2.5" style="stroke:#000000;stroke-width:1;" width="165.5029" x="1293.25" y="898"/><text fill="#000000" font-family="Helvetica" font-size="14" lengthAdjust="spacing" textLength="51.3447" x="1303.25" y="918.7803">Browser</text><text fill="#000000" font-family="Helvetica" font-size="14" lengthAdjust="spacing" textLength="145.5029" x="1303.25" y="932.7803">BrowserKit, Selenium2,</text><text fill="#000000" font-family="Helvetica" font-size="14" lengthAdjust="spacing" textLength="112.8135" x="1303.25" y="946.7803">Chrome DevTools</text></g><!--entity Site--><g class="entity" data-qualified-name="Runtime and targets.Site" data-source-line="53" id="ent0029"><rect fill="#FFFFFF" height="48" rx="2.5" ry="2.5" style="stroke:#000000;stroke-width:1;" width="167.8545" x="1639.07" y="766"/><text fill="#000000" font-family="Helvetica" font-size="14" lengthAdjust="spacing" textLength="66.917" x="1649.07" y="786.7803">Drupal site</text><text fill="#000000" font-family="Helvetica" font-size="14" lengthAdjust="spacing" textLength="147.8545" x="1649.07" y="800.7803">entity API, config, drush</text></g><g class="entity" data-qualified-name="GMN66" data-source-line="98" id="ent0067"><path d="M811.93,1047 L811.93,1109 A0,0 0 0 0 811.93,1109 L1166.0677,1109 A0,0 0 0 0 1166.0677,1109 L1166.0677,1057 L1156.0677,1047 L993,1047 L989,953.29 L985,1047 L811.93,1047 A0,0 0 0 0 811.93,1047" fill="#FFFFFF" style="stroke:#000000;stroke-width:1;"/><path d="M1156.0677,1047 L1156.0677,1057 L1166.0677,1057 L1156.0677,1047" fill="#FFFFFF" style="stroke:#000000;stroke-width:1;"/><text fill="#000000" font-family="Helvetica" font-size="13" lengthAdjust="spacing" textLength="318.6396" x="817.93" y="1062.0103">The driver layer references nothing from Behat or Mink,</text><text fill="#000000" font-family="Helvetica" font-size="13" lengthAdjust="spacing" textLength="285.4541" x="817.93" y="1075.0103">so it is usable without Behat loaded. The web half</text><text fill="#000000" font-family="Helvetica" font-size="13" lengthAdjust="spacing" textLength="333.1377" x="817.93" y="1088.0103">references no Drupal class beyond the random generator.</text><text fill="#000000" font-family="Helvetica" font-size="13" lengthAdjust="spacing" textLength="317.9351" x="817.93" y="1101.0103">scripts/lint-layers.php fails the build on either reference.</text></g><!--link Features to Behat--><g class="link" data-entity-1="ent0002" data-entity-2="ent0026" data-link-type="dependency" data-source-line="56" id="lnk30"><path d="M1615.92,303.62 C1676.73,305.39 1781.45,315.96 1855,364 C1923.12,408.5 1972.61,438.79 1954,518 C1931.4,614.16 1938.07,663.55 1855,717 C1833.22,731.02 1646.83,717.62 1622,725 C1593.77,733.39 1569.4502,748.1982 1549.1702,762.8782" fill="none" id="Features-to-Behat" style="stroke:#000000;stroke-width:1;"/><polygon fill="#000000" points="1545.12,765.81,1554.7559,763.7729,1549.1702,762.8782,1550.065,757.2925,1545.12,765.81" style="stroke:#000000;stroke-width:1;stroke-linejoin:miter;stroke-miterlimit:10;"/><text fill="#000000" font-family="Helvetica" font-size="13" lengthAdjust="spacing" textLength="31.0718" x="1957.67" y="514.0103">steps</text></g><!--link Config to Ext--><g class="link" data-entity-1="ent0003" data-entity-2="ent0013" data-link-type="dependency" data-source-line="57" id="lnk31"><path d="M1292.72,440 C1134.78,440 775.23,440 615.43,440" fill="none" id="Config-to-Ext" style="stroke:#000000;stroke-width:1;"/><polygon fill="#000000" points="610.43,440,619.43,444,615.43,440,619.43,436,610.43,440" style="stroke:#000000;stroke-width:1;stroke-linejoin:miter;stroke-miterlimit:10;"/><text fill="#000000" font-family="Helvetica" font-size="13" lengthAdjust="spacing" textLength="59.979" x="921.98" y="433.0103">configures</text></g><!--link Config to MinkExt--><g class="link" data-entity-1="ent0003" data-entity-2="ent0018" data-link-type="dependency" data-source-line="58" id="lnk32"><path d="M1388.98,471.14 C1397.25,486.99 1402.21,505.64 1390,518 C1377.25,530.91 754.73,522.16 737,526 C687.44,536.75 639.4478,558.4174 601.7578,578.1874" fill="none" id="Config-to-MinkExt" style="stroke:#000000;stroke-width:1;"/><polygon fill="#000000" points="597.33,580.51,607.1581,579.8716,601.7578,578.1874,603.442,572.7871,597.33,580.51" style="stroke:#000000;stroke-width:1;stroke-linejoin:miter;stroke-miterlimit:10;"/><text fill="#000000" font-family="Helvetica" font-size="13" lengthAdjust="spacing" textLength="59.979" x="1397.96" y="514.0103">configures</text></g><!--link Config to Vocabularies--><g class="link" data-entity-1="ent0003" data-entity-2="ent0015" data-link-type="dependency" data-source-line="59" id="lnk33"><path d="M1336.32,408.51 C1317.46,392.31 1292.15,373.77 1266,364 C1151.92,321.36 806.7589,309.0626 633.7889,305.5126" fill="none" id="Config-to-Vocabularies" style="stroke:#000000;stroke-width:1;"/><polygon fill="#000000" points="628.79,305.41,637.706,309.5938,633.7889,305.5126,637.8702,301.5955,628.79,305.41" style="stroke:#000000;stroke-width:1;stroke-linejoin:miter;stroke-miterlimit:10;"/><text fill="#000000" font-family="Helvetica" font-size="13" lengthAdjust="spacing" textLength="49.8481" x="1294.86" y="375.0103">registers</text></g><!--link Behat to Consumer--><g class="link" data-entity-1="ent0026" data-entity-2="ent0004" data-link-type="dependency" data-source-line="60" id="lnk34"><path d="M1542.91,765.85 C1609.31,705.83 1770.46,540.71 1698,409 C1652.84,326.92 1591.85,356.87 1501,334 C1495.29,332.56 1494.2709,332.3211 1488.3509,330.7911" fill="none" id="Behat-to-Consumer" style="stroke:#000000;stroke-width:1;"/><polygon fill="#000000" points="1483.51,329.54,1491.2228,335.6648,1488.3509,330.7911,1493.2246,327.9193,1483.51,329.54" style="stroke:#000000;stroke-width:1;stroke-linejoin:miter;stroke-miterlimit:10;"/><text fill="#000000" font-family="Helvetica" font-size="13" lengthAdjust="spacing" textLength="122.1226" x="1715.92" y="514.0103">matches and invokes</text></g><!--link Behat to Vocabularies--><g class="link" data-entity-1="ent0026" data-entity-2="ent0015" data-link-type="dependency" data-source-line="61" id="lnk35"><path d="M1514.39,765.75 C1509.34,712.8 1488.91,583.42 1408,526 C1380.78,506.68 1288.4,531.79 1258,518 C1170.99,478.52 1193.99,405.64 1108,364 C1025.83,324.2 775.9075,310.848 633.5975,306.348" fill="none" id="Behat-to-Vocabularies" style="stroke:#000000;stroke-width:1;"/><polygon fill="#000000" points="628.6,306.19,637.4691,310.4724,633.5975,306.348,637.7219,302.4764,628.6,306.19" style="stroke:#000000;stroke-width:1;stroke-linejoin:miter;stroke-miterlimit:10;"/><text fill="#000000" font-family="Helvetica" font-size="13" lengthAdjust="spacing" textLength="122.1226" x="1259" y="514.0103">matches and invokes</text></g><!--link WebSteps to Vocabularies--><g class="link" data-entity-1="ent0007" data-entity-2="ent0015" data-link-type="dependency" data-source-line="63" id="lnk36"><path d="M783.64,176.45 C731.74,202.14 652.7811,241.2219 595.8911,269.3819" fill="none" id="WebSteps-to-Vocabularies" style="stroke:#000000;stroke-width:1;"/><polygon fill="#000000" points="591.41,271.6,601.2504,271.1923,595.8911,269.3819,597.7015,264.0226,591.41,271.6" style="stroke:#000000;stroke-width:1;stroke-linejoin:miter;stroke-miterlimit:10;"/><text fill="#000000" font-family="Helvetica" font-size="13" lengthAdjust="spacing" textLength="77.3208" x="717.31" y="219.0103">composed by</text></g><!--link DrupalSteps to Vocabularies--><g class="link" data-entity-1="ent0008" data-entity-2="ent0015" data-link-type="dependency" data-source-line="64" id="lnk37"><path d="M975.37,176.47 C957.61,184.98 936.74,193.97 917,200 C896.32,206.32 890.12,203.33 869,208 C787.3,226.08 700.7538,250.309 633.4838,270.249" fill="none" id="DrupalSteps-to-Vocabularies" style="stroke:#000000;stroke-width:1;"/><polygon fill="#000000" points="628.69,271.67,638.4557,272.9473,633.4838,270.249,636.1821,265.2772,628.69,271.67" style="stroke:#000000;stroke-width:1;stroke-linejoin:miter;stroke-miterlimit:10;"/><text fill="#000000" font-family="Helvetica" font-size="13" lengthAdjust="spacing" textLength="77.3208" x="870" y="219.0103">composed by</text></g><!--link WebSteps to Consumer--><g class="link" data-entity-1="ent0007" data-entity-2="ent0004" data-link-type="dependency" data-source-line="65" id="lnk38"><path d="M867.96,176.35 C882.74,184.84 900.23,193.85 917,200 C933.61,206.09 938.69,204.34 956,208 C1071.84,232.48 1200.037,260.5145 1287.527,279.7845" fill="none" id="WebSteps-to-Consumer" style="stroke:#000000;stroke-width:1;"/><polygon fill="#000000" points="1292.41,280.86,1284.4811,275.0177,1287.527,279.7845,1282.7603,282.8305,1292.41,280.86" style="stroke:#000000;stroke-width:1;stroke-linejoin:miter;stroke-miterlimit:10;"/><text fill="#000000" font-family="Helvetica" font-size="13" lengthAdjust="spacing" textLength="59.249" x="1015.81" y="219.0103">mixed into</text></g><!--link DrupalSteps to Consumer--><g class="link" data-entity-1="ent0008" data-entity-2="ent0004" data-link-type="dependency" data-source-line="66" id="lnk39"><path d="M1105.9,162.06 C1155.66,169.68 1218.45,183.44 1270,208 C1303.34,223.88 1332.0998,247.373 1354.4898,268.333" fill="none" id="DrupalSteps-to-Consumer" style="stroke:#000000;stroke-width:1;"/><polygon fill="#000000" points="1358.14,271.75,1354.3033,262.6792,1354.4898,268.333,1348.836,268.5195,1358.14,271.75" style="stroke:#000000;stroke-width:1;stroke-linejoin:miter;stroke-miterlimit:10;"/><text fill="#000000" font-family="Helvetica" font-size="13" lengthAdjust="spacing" textLength="59.249" x="1296.09" y="219.0103">mixed into</text></g><!--link WebSteps to WebHelpers--><g class="link" data-entity-1="ent0007" data-entity-2="ent0010" data-link-type="dependency" data-source-line="67" id="lnk40"><path d="M831.46,176.34 C832.88,248.89 837.1515,466.301 839.0315,561.741" fill="none" id="WebSteps-to-WebHelpers" style="stroke:#000000;stroke-width:1;stroke-dasharray:7,7;"/><polygon fill="#000000" points="839.13,566.74,842.952,557.663,839.0315,561.741,834.9535,557.8205,839.13,566.74" style="stroke:#000000;stroke-width:1;stroke-linejoin:miter;stroke-miterlimit:10;"/><text fill="#000000" font-family="Helvetica" font-size="13" lengthAdjust="spacing" textLength="59.249" x="836.4" y="375.0103">composes</text></g><!--link DrupalSteps to WebHelpers--><g class="link" data-entity-1="ent0008" data-entity-2="ent0010" data-link-type="dependency" data-source-line="68" id="lnk41"><path d="M1010.83,176.34 C982.31,248.89 896.7289,466.6465 859.2189,562.0865" fill="none" id="DrupalSteps-to-WebHelpers" style="stroke:#000000;stroke-width:1;stroke-dasharray:7,7;"/><polygon fill="#000000" points="857.39,566.74,864.4049,559.8268,859.2189,562.0865,856.9593,556.9006,857.39,566.74" style="stroke:#000000;stroke-width:1;stroke-linejoin:miter;stroke-miterlimit:10;"/><text fill="#000000" font-family="Helvetica" font-size="13" lengthAdjust="spacing" textLength="59.249" x="937.23" y="375.0103">composes</text></g><!--link DrupalSteps to DrupalHelpers--><g class="link" data-entity-1="ent0008" data-entity-2="ent0011" data-link-type="dependency" data-source-line="69" id="lnk42"><path d="M1021.94,176.34 C1028.11,250.72 1046.9266,477.5871 1054.4866,568.7071" fill="none" id="DrupalSteps-to-DrupalHelpers" style="stroke:#000000;stroke-width:1;stroke-dasharray:7,7;"/><polygon fill="#000000" points="1054.9,573.69,1058.1422,564.3901,1054.4866,568.7071,1050.1695,565.0516,1054.9,573.69" style="stroke:#000000;stroke-width:1;stroke-linejoin:miter;stroke-miterlimit:10;"/><text fill="#000000" font-family="Helvetica" font-size="13" lengthAdjust="spacing" textLength="59.249" x="1039.56" y="375.0103">composes</text></g><!--link WebRawCtx to WebHelpers--><g class="link" data-entity-1="ent0014" data-entity-2="ent0010" data-link-type="dependency" data-source-line="70" id="lnk43"><path d="M377.88,471.38 C396.59,480.68 418.18,489.81 439,495 C513.25,513.52 536.73,484.54 611,503 C665.18,516.46 717.5603,540.7746 761.0303,564.2446" fill="none" id="WebRawCtx-to-WebHelpers" style="stroke:#000000;stroke-width:1;stroke-dasharray:7,7;"/><polygon fill="#000000" points="765.43,566.62,759.4109,558.8244,761.0303,564.2446,755.6102,565.8639,765.43,566.62" style="stroke:#000000;stroke-width:1;stroke-linejoin:miter;stroke-miterlimit:10;"/><text fill="#000000" font-family="Helvetica" font-size="13" lengthAdjust="spacing" textLength="59.249" x="658.13" y="514.0103">composes</text></g><!--link Consumer to WebHelpers--><g class="link" data-entity-1="ent0004" data-entity-2="ent0010" data-link-type="dependency" data-source-line="71" id="lnk44"><path d="M1416.44,334.45 C1455.77,380.19 1516.5,466.72 1466,518 C1455.82,528.33 957.62,521.02 944,526 C920.56,534.56 902.2561,547.4637 884.5661,563.4837" fill="none" id="Consumer-to-WebHelpers" style="stroke:#000000;stroke-width:1;stroke-dasharray:7,7;"/><polygon fill="#000000" points="880.86,566.84,890.2161,563.7636,884.5661,563.4837,884.846,557.8338,880.86,566.84" style="stroke:#000000;stroke-width:1;stroke-linejoin:miter;stroke-miterlimit:10;"/><text fill="#000000" font-family="Helvetica" font-size="13" lengthAdjust="spacing" textLength="59.249" x="1486.18" y="443.5103">composes</text></g><!--link Consumer to DrupalHelpers--><g class="link" data-entity-1="ent0004" data-entity-2="ent0011" data-link-type="dependency" data-source-line="72" id="lnk45"><path d="M1482.99,334.5 C1502.31,342.66 1521.93,352.49 1539,364 C1589.81,398.25 1613.5,442.44 1582,495 C1570.86,513.59 1559.96,512.5 1539,518 C1500.52,528.1 1218.85,513.73 1181,526 C1150.88,535.77 1125.4315,552.4029 1102.9615,570.4129" fill="none" id="Consumer-to-DrupalHelpers" style="stroke:#000000;stroke-width:1;stroke-dasharray:7,7;"/><polygon fill="#000000" points="1099.06,573.54,1108.5843,571.0324,1102.9615,570.4129,1103.581,564.7901,1099.06,573.54" style="stroke:#000000;stroke-width:1;stroke-linejoin:miter;stroke-miterlimit:10;"/><text fill="#000000" font-family="Helvetica" font-size="13" lengthAdjust="spacing" textLength="59.249" x="1597.22" y="443.5103">composes</text></g><!--link Consumer to WebRawCtx--><g class="link" data-entity-1="ent0004" data-entity-2="ent0014" data-link-type="extension" data-source-line="74" id="lnk46"><path d="M1381.9,334.28 C1376.96,350.41 1368.23,368.95 1353,379 C1310.6,406.99 489.27,401.66 439,409 C433.13,409.86 444.7849,407.4532 438.7549,408.6332" fill="none" id="Consumer-to-WebRawCtx" style="stroke:#000000;stroke-width:1;"/><polygon fill="none" points="421.09,412.09,439.9072,414.5215,437.6027,402.7449,421.09,412.09" style="stroke:#000000;stroke-width:1;stroke-linejoin:miter;stroke-miterlimit:10;"/></g><!--link Vocabularies to WebRawCtx--><g class="link" data-entity-1="ent0015" data-entity-2="ent0014" data-link-type="extension" data-source-line="75" id="lnk47"><path d="M483.74,334.46 C450.08,356.63 419.7431,376.6102 386.1231,398.7502" fill="none" id="Vocabularies-to-WebRawCtx" style="stroke:#000000;stroke-width:1;"/><polygon fill="none" points="371.09,408.65,389.423,403.7612,382.8231,393.7391,371.09,408.65" style="stroke:#000000;stroke-width:1;stroke-linejoin:miter;stroke-miterlimit:10;"/></g><!--link Ext to Managers--><g class="link" data-entity-1="ent0013" data-entity-2="ent0016" data-link-type="dependency" data-source-line="76" id="lnk48"><path d="M492.03,464.34 C451.22,487.76 394.18,521.07 391,526 C344.67,597.8 405.9,639.93 369,717 C361.49,732.68 352.8058,743.5471 340.5158,755.2171" fill="none" id="Ext-to-Managers" style="stroke:#000000;stroke-width:1;"/><polygon fill="#000000" points="336.89,758.66,346.1708,755.3634,340.5158,755.2171,340.6621,749.5621,336.89,758.66" style="stroke:#000000;stroke-width:1;stroke-linejoin:miter;stroke-miterlimit:10;"/><text fill="#000000" font-family="Helvetica" font-size="13" lengthAdjust="spacing" textLength="49.8481" x="392" y="615.5103">registers</text></g><!--link Ext to OptionConfig--><g class="link" data-entity-1="ent0013" data-entity-2="ent0017" data-link-type="dependency" data-source-line="77" id="lnk49"><path d="M500.39,464.45 C482.79,475.79 460.17,488.37 438,495 C411.55,502.91 339.4,492.18 314,503 C274.91,519.66 243.6017,551.1395 222.1517,576.8695" fill="none" id="Ext-to-OptionConfig" style="stroke:#000000;stroke-width:1;"/><polygon fill="#000000" points="218.95,580.71,227.7854,576.3584,222.1517,576.8695,221.6406,571.2358,218.95,580.71" style="stroke:#000000;stroke-width:1;stroke-linejoin:miter;stroke-miterlimit:10;"/><text fill="#000000" font-family="Helvetica" font-size="13" lengthAdjust="spacing" textLength="49.8481" x="315" y="514.0103">registers</text></g><!--link Ext to DriverIface--><g class="link" data-entity-1="ent0013" data-entity-2="ent0020" data-link-type="dependency" data-source-line="78" id="lnk50"><path d="M610.11,449.2 C646.37,457.13 687.03,472.65 712,503 C774.68,579.19 680.75,677.14 771,717 C793.72,727.04 1200.6,707.28 1218,725 C1255.37,763.05 1248.62,801.33 1218,845 C1186.2,890.36 1131.8953,910.1135 1081.6453,919.4835" fill="none" id="Ext-to-DriverIface" style="stroke:#000000;stroke-width:1;"/><polygon fill="#000000" points="1076.73,920.4,1086.3107,922.6824,1081.6453,919.4835,1084.8443,914.818,1076.73,920.4" style="stroke:#000000;stroke-width:1;stroke-linejoin:miter;stroke-miterlimit:10;"/><text fill="#000000" font-family="Helvetica" font-size="13" lengthAdjust="spacing" textLength="92.4663" x="772" y="706.5103">registers drivers</text></g><!--link Ext to MinkExt--><g class="link" data-entity-1="ent0013" data-entity-2="ent0018" data-link-type="dependency" data-source-line="79" id="lnk51"><path d="M512.12,464.31 C501.36,479.1 491.38,498.98 496,518 C501.4,540.25 510.5357,558.8336 521.0457,576.3336" fill="none" id="Ext-to-MinkExt" style="stroke:#000000;stroke-width:1;stroke-dasharray:7,7;"/><polygon fill="#000000" points="523.62,580.62,522.4154,570.8451,521.0457,576.3336,515.5572,574.9639,523.62,580.62" style="stroke:#000000;stroke-width:1;stroke-linejoin:miter;stroke-miterlimit:10;"/><text fill="#000000" font-family="Helvetica" font-size="13" lengthAdjust="spacing" textLength="109.8398" x="497" y="514.0103">reads ajax_timeout</text></g><!--link Ext to Mink--><g class="link" data-entity-1="ent0013" data-entity-2="ent0027" data-link-type="dependency" data-source-line="80" id="lnk52"><path d="M610.24,442.58 C759.59,447.03 1081.13,463.76 1170,526 C1233.67,570.59 1207.53,616.57 1251,681 C1274.56,715.91 1304.2399,748.751 1323.6499,769.111" fill="none" id="Ext-to-Mink" style="stroke:#000000;stroke-width:1;stroke-dasharray:7,7;"/><polygon fill="#000000" points="1327.1,772.73,1323.785,763.4558,1323.6499,769.111,1317.9947,768.976,1327.1,772.73" style="stroke:#000000;stroke-width:1;stroke-linejoin:miter;stroke-miterlimit:10;"/><text fill="#000000" font-family="Helvetica" font-size="13" lengthAdjust="spacing" textLength="151.0171" x="1252" y="615.5103">aliases DocumentElement</text></g><!--link WebRawCtx to Managers--><g class="link" data-entity-1="ent0014" data-entity-2="ent0016" data-link-type="dependency" data-source-line="81" id="lnk53"><path d="M229.14,446.29 C172.94,454.91 106.09,475.93 70,526 C29.72,581.89 33.16,622.79 70,681 C100.57,729.3 154.4293,754.9883 204.5893,769.9783" fill="none" id="WebRawCtx-to-Managers" style="stroke:#000000;stroke-width:1;"/><polygon fill="#000000" points="209.38,771.41,201.9021,765.0005,204.5893,769.9783,199.6115,772.6655,209.38,771.41" style="stroke:#000000;stroke-width:1;stroke-linejoin:miter;stroke-miterlimit:10;"/></g><!--link WebRawCtx to OptionConfig--><g class="link" data-entity-1="ent0014" data-entity-2="ent0017" data-link-type="dependency" data-source-line="82" id="lnk54"><path d="M229.3,453.75 C199.98,462.65 170.79,477.68 153,503 C136.29,526.78 149.005,553.9688 165.935,576.7188" fill="none" id="WebRawCtx-to-OptionConfig" style="stroke:#000000;stroke-width:1;"/><polygon fill="#000000" points="168.92,580.73,166.7559,571.1218,165.935,576.7188,160.338,575.8979,168.92,580.73" style="stroke:#000000;stroke-width:1;stroke-linejoin:miter;stroke-miterlimit:10;"/><text fill="#000000" font-family="Helvetica" font-size="13" lengthAdjust="spacing" textLength="119.2217" x="154" y="514.0103">resolves trait options</text></g><!--link OptionConfig to Managers--><g class="link" data-entity-1="ent0017" data-entity-2="ent0016" data-link-type="dependency" data-source-line="83" id="lnk55"><path d="M197.85,643.44 C200.29,665.18 205.94,694.43 219,717 C228.11,732.74 238.0297,743.7191 251.4897,755.2991" fill="none" id="OptionConfig-to-Managers" style="stroke:#000000;stroke-width:1;"/><polygon fill="#000000" points="255.28,758.56,251.0662,749.6581,251.4897,755.2991,245.8487,755.7226,255.28,758.56" style="stroke:#000000;stroke-width:1;stroke-linejoin:miter;stroke-miterlimit:10;"/><text fill="#000000" font-family="Helvetica" font-size="13" lengthAdjust="spacing" textLength="144.1172" x="220" y="706.5103">reads the scenario's tags</text></g><!--link Managers to DriverIface--><g class="link" data-entity-1="ent0016" data-entity-2="ent0020" data-link-type="dependency" data-source-line="85" id="lnk56"><path d="M386.58,804.3 C502.01,822.28 709.78,856.87 885,898 C893.42,899.98 897.3316,900.9113 906.0316,903.2513" fill="none" id="Managers-to-DriverIface" style="stroke:#000000;stroke-width:1;"/><polygon fill="#000000" points="910.86,904.55,903.2078,898.3497,906.0316,903.2513,901.1299,906.0751,910.86,904.55" style="stroke:#000000;stroke-width:1;stroke-linejoin:miter;stroke-miterlimit:10;"/><text fill="#000000" font-family="Helvetica" font-size="13" lengthAdjust="spacing" textLength="123.5571" x="742.05" y="864.0103">resolves by capability</text></g><!--link DrupalDrv to DriverIface--><g class="link" data-entity-1="ent0021" data-entity-2="ent0020" data-link-type="extension" data-source-line="86" id="lnk57"><path d="M817.95,814.24 C855.83,839.43 900.9534,869.44 938.8934,894.68" fill="none" id="DrupalDrv-to-DriverIface" style="stroke:#000000;stroke-width:1;stroke-dasharray:7,7;"/><polygon fill="none" points="953.88,904.65,942.2167,889.6844,935.57,899.6755,953.88,904.65" style="stroke:#000000;stroke-width:1;stroke-linejoin:miter;stroke-miterlimit:10;"/></g><!--link DrushDrv to DriverIface--><g class="link" data-entity-1="ent0022" data-entity-2="ent0020" data-link-type="extension" data-source-line="87" id="lnk58"><path d="M984.85,814.24 C985.77,839.43 986.5743,861.4219 987.4943,886.6619" fill="none" id="DrushDrv-to-DriverIface" style="stroke:#000000;stroke-width:1;stroke-dasharray:7,7;"/><polygon fill="none" points="988.15,904.65,993.4904,886.4434,981.4983,886.8805,988.15,904.65" style="stroke:#000000;stroke-width:1;stroke-linejoin:miter;stroke-miterlimit:10;"/></g><!--link BlackboxDrv to DriverIface--><g class="link" data-entity-1="ent0023" data-entity-2="ent0020" data-link-type="extension" data-source-line="88" id="lnk59"><path d="M1116.88,814.24 C1088.56,839.43 1057.0681,867.4456 1028.6981,892.6856" fill="none" id="BlackboxDrv-to-DriverIface" style="stroke:#000000;stroke-width:1;stroke-dasharray:7,7;"/><polygon fill="none" points="1015.25,904.65,1032.6863,897.1683,1024.71,888.2029,1015.25,904.65" style="stroke:#000000;stroke-width:1;stroke-linejoin:miter;stroke-miterlimit:10;"/></g><!--link DrupalDrv to Core--><g class="link" data-entity-1="ent0021" data-entity-2="ent0024" data-link-type="dependency" data-source-line="89" id="lnk60"><path d="M782.32,814.24 C781.65,837.22 780.765,867.5021 780.035,892.6721" fill="none" id="DrupalDrv-to-Core" style="stroke:#000000;stroke-width:1;"/><polygon fill="#000000" points="779.89,897.67,784.1492,888.7897,780.035,892.6721,776.1526,888.5578,779.89,897.67" style="stroke:#000000;stroke-width:1;stroke-linejoin:miter;stroke-miterlimit:10;"/></g><!--link MinkExt to Mink--><g class="link" data-entity-1="ent0018" data-entity-2="ent0027" data-link-type="dependency" data-source-line="91" id="lnk61"><path d="M615.05,643.41 C650.94,657.37 695.56,672.65 737,681 C796.36,692.96 812.76,682.87 873,689 C959.23,697.78 979.75,708.46 1066,717 C1099.22,720.29 1183.74,716.42 1216,725 C1253.94,735.09 1289.4969,754.6949 1314.2169,770.1049" fill="none" id="MinkExt-to-Mink" style="stroke:#000000;stroke-width:1;"/><polygon fill="#000000" points="1318.46,772.75,1312.9385,764.5944,1314.2169,770.1049,1308.7064,771.3834,1318.46,772.75" style="stroke:#000000;stroke-width:1;stroke-linejoin:miter;stroke-miterlimit:10;"/><text fill="#000000" font-family="Helvetica" font-size="13" lengthAdjust="spacing" textLength="91.7681" x="1086.1509" y="700.0103">builds sessions,</text><text fill="#000000" font-family="Helvetica" font-size="13" lengthAdjust="spacing" textLength="130.0698" x="1067" y="713.0103">picks one per scenario</text></g><!--link Consumer to Mink--><g class="link" data-entity-1="ent0004" data-entity-2="ent0027" data-link-type="dependency" data-source-line="92" id="lnk62"><path d="M1483.59,331.87 C1512.92,341.21 1545.08,352.26 1574,364 C1615.81,380.97 1641.19,370.67 1665,409 C1685.17,441.47 1680.5,460.06 1665,495 C1603.25,634.21 1522.9,621.7 1411,725 C1393.61,741.06 1377.5683,756.1697 1363.8683,769.1597" fill="none" id="Consumer-to-Mink" style="stroke:#000000;stroke-width:1;"/><polygon fill="#000000" points="1360.24,772.6,1369.5232,769.3102,1363.8683,769.1597,1364.0187,763.5049,1360.24,772.6" style="stroke:#000000;stroke-width:1;stroke-linejoin:miter;stroke-miterlimit:10;"/></g><!--link Mink to Browser--><g class="link" data-entity-1="ent0027" data-entity-2="ent0028" data-link-type="dependency" data-source-line="93" id="lnk63"><path d="M1346.92,807.25 C1352.26,829.44 1360.7688,864.7591 1367.4888,892.6491" fill="none" id="Mink-to-Browser" style="stroke:#000000;stroke-width:1;"/><polygon fill="#000000" points="1368.66,897.51,1370.4405,887.8234,1367.4888,892.6491,1362.6631,889.6974,1368.66,897.51" style="stroke:#000000;stroke-width:1;stroke-linejoin:miter;stroke-miterlimit:10;"/></g><!--link DrupalDrv to Site--><g class="link" data-entity-1="ent0021" data-entity-2="ent0029" data-link-type="dependency" data-source-line="94" id="lnk64"><path d="M809.98,765.76 C835.57,744.52 876.16,715.21 917.5,703 C990.6,681.42 1531.02,679.41 1603.5,703 C1641.32,715.31 1673.5193,741.1723 1695.9093,762.3723" fill="none" id="DrupalDrv-to-Site" style="stroke:#000000;stroke-width:1;"/><polygon fill="#000000" points="1699.54,765.81,1695.7549,756.7175,1695.9093,762.3723,1690.2546,762.5266,1699.54,765.81" style="stroke:#000000;stroke-width:1;stroke-linejoin:miter;stroke-miterlimit:10;"/></g><!--link DrushDrv to Site--><g class="link" data-entity-1="ent0022" data-entity-2="ent0029" data-link-type="dependency" data-source-line="95" id="lnk65"><path d="M1003.18,765.89 C1021.67,744.74 1051.76,715.48 1085.5,703 C1139.48,683.03 1548.77,685.19 1603.5,703 C1641.32,715.31 1673.5193,741.1723 1695.9093,762.3723" fill="none" id="DrushDrv-to-Site" style="stroke:#000000;stroke-width:1;"/><polygon fill="#000000" points="1699.54,765.81,1695.7549,756.7175,1695.9093,762.3723,1690.2546,762.5266,1699.54,765.81" style="stroke:#000000;stroke-width:1;stroke-linejoin:miter;stroke-miterlimit:10;"/></g><!--link Features to Config--><!--link WebSteps to DrupalSteps--><!--link DrupalDrv to DrushDrv--><!--link DrushDrv to BlackboxDrv--><?plantuml-src ZLTDanCt4BtFhr2M0rN47m5gKy21AjYr4v8Yf5X23d6AacTaZrXPcaWQUrs1_vxNacQiiGtXvB7wTQi_dhgb-wooOciQDrsAclknyw9nRCmKtmihAbQQJMEqq9vnMzRIYzAtLaoA--oTvIK0Asis4UM4dNnqHe-Oi-NqXWnDu_VFGZN2JlyKo-72jMqRhgOZMAFLb-H1GbnRkGM2HC6nILCta9HMDjvDbTH-75nq921ttegrqC9oBvY0vfxTlF-9xQIldp7MAAvzkr5ixDrspIfJkcaUplJ1f86u-CxNOYC8BdNXRgLkkEKRjkJbxTgQLbTNHXdBTgIOoIknugtoSwFzRnpwY6uhl2nvXd4rhynEwZLRSULoxJx3Dtwl1BDmYUkr4eMN7l-lpXQWA1eunTU2NLmPxTeDMMwi-GZn1RitdyyVptvW_nOiA-35N73IPIkfX5le1vDLNBXWtB4aT4ELFlSBBUwyq4uQpPpm7lkvqK9RiPQWZ7KC2b3K7h1W3swjv7fexSrETvXaht8Ch7ZBTrTn6IOJbnn3CLXPurCpRxdqhhEBS8KjFcSvECFX2qIFtNl8UrFoPQiuc34-41IvcZsUFvfVXrmDd0tonGBkBVIZ9yc54NijzIs2LVlW3QG1zmNbI73eF-trjS2XeT2gmF1W9S8wGvy7ViUZufBJyHzL-F7iSdvvwdK49BSlqwxFS9oTPvINKBD_Me6_jU0LBEDKUPlA-GlVyfjmnfXhcyPOAeZdI_0GbhIZmdHn9yU-v40N-i47YANVCoLNejoNIi0qRv49JKV5oz0uF3vALlAo9l5AtXq8Es9msqhXifGTV1WcxHN8jBR1Q4fSw2rVoLkGXmhCEfulD3hQLfO2ROGI5FQ5z5XrGE25ZdLbl2o5WzEc2LvO99ioN1jpoohf6kxB6cmmBB6LzoV1tvtPeJSV0-__XcDNer-Dq9OCwhJjUHvizhINugHKhxb6jgmZe-JpYBqOrcEX_t2q_9fBDM8tfT2mOvZdw-XmP-3OS3pxo1_AkE4XTZBJfy8PHTiHjTRCuDFAAjNrJS3qpMFeBuvULfsTvHXLj7ZViRux4Qigj9MbDJiuVolzXzhx9leR3PpG9OQVc7ATpkMzsPFvvUpfALKYW2XcLnY12_qzU_WZEDlmfLJ4SDc9Ege6F2sScg9YHi12ButnE8iKLHJ0qXXDdOYKaVxQRi_OSNLdnjL2AJJarZDlq6OWwhG9TAByKY4FItFNwOEJQNkEeQDKK3w0jgVLjeBEgb0LgxckL6Wg9LgEarYrH7kCEXUNGOR00guaTwBhwLQ4ekGz_MqB8cAQmY8OPzV2XsvzDPlF7nvFjd1w4JcE4jlGoQ9nI8fqtE8U0LASy0d3p15jUduS6OuiMkZqyQlqE0X22ItRpIC4TbNZ_YFOjTY-CqQbhIAsE5DgvZ315pgrmXU_lnhHG0JNHrcXRkXwWLHq8vcDny-Z_-nPR1T5F211049ZELe90poJ9S9_KPvt1u3wQLx4tGZIpLk8GsO1fCHAlJMt8WSUsJe7BhfnUKuXpVsABVT5DX3_3pemcJihxmJjxCs9jVEetj1ayZoRRuVjtC3GjwC6eoe7zlt-AyPwNxyHyiND3h3n-DFpRDOCSdia8-u47gL6F-189ynRzbb0rW1pURe1HHpvVc1hc9QCV-Ht7wW7e9KDG42azi6kJOcWj9yfGJzPJdE_ZvPFF0u3oSMRIXfJhXYWJh903j8rpgMfY1b4Sx4eUjIvqDD6otqsBug-hIF0JmETeklPfvAi8PzLInOZt-d1q6MtwmlmPzbAXJ1I2mnzMfQtyIuF_lInvTo9oi5Qx4kfsGst32siTxvVARJ1-snflCUZqQoEHkEx_bOSdv_8rmgFK8tvXukI3qqzF3TZqy5BZBmOGTCPXi99nreNBglqxgFv5u7AuFvHJOBzdLXYIAaLb0RMkv4NnXQUd7kZupKTrzuAMwR7fR4JskxyCnHFEwaYAq9caKScu4aUoQJ0euUY4Nb__wkMLINqttWYwd7tT3fqjavivRhsuy5p8KlxAIgE-qCPZX0PXVu3?></g></svg>