<svg xmlns="http://www.w3.org/2000/svg" xmlns:xlink="http://www.w3.org/1999/xlink" contentStyleType="text/css" data-diagram-type="DESCRIPTION" height="1166px" preserveAspectRatio="none" style="width:1855px;height:1166px;background:#FFFFFF;" version="1.1" viewBox="0 0 1855 1166" width="1855px" zoomAndPan="magnify"><?plantuml 1.2026.6?><defs/><g><g class="title" data-source-line="10"><text fill="#000000" font-family="Helvetica" font-size="22" font-weight="700" lengthAdjust="spacing" textLength="254.2568" x="799.4075" y="31.9404">Component architecture</text></g><!--cluster Consuming project--><g class="cluster" data-qualified-name="Consuming project" data-source-line="12" id="ent0001"><path d="M1253.5,239 L1382.0586,239 A3.75,3.75 0 0 1 1384.5586,241.5 L1391.5586,259 L1603.5,259 A2.5,2.5 0 0 1 1606,261.5 L1606,498.5 A2.5,2.5 0 0 1 1603.5,501 L1253.5,501 A2.5,2.5 0 0 1 1251,498.5 L1251,241.5 A2.5,2.5 0 0 1 1253.5,239" fill="#FFF3E0" style="stroke:#000000;stroke-width:1;"/><line style="stroke:#000000;stroke-width:1;" x1="1251" x2="1391.5586" y1="259" y2="259"/><text fill="#000000" font-family="Helvetica" font-size="14" font-weight="700" lengthAdjust="spacing" textLength="127.5586" x="1255" y="251.7803">Consuming project</text></g><!--cluster drevops/behat-steps--><g class="cluster" data-qualified-name="drevops.behat-steps" data-source-line="18" id="ent0005"><path d="M13.5,54 L151.4238,54 A3.75,3.75 0 0 1 153.9238,56.5 L160.9238,74 L1184.5,74 A2.5,2.5 0 0 1 1187,76.5 L1187,1023.5 A2.5,2.5 0 0 1 1184.5,1026 L13.5,1026 A2.5,2.5 0 0 1 11,1023.5 L11,56.5 A2.5,2.5 0 0 1 13.5,54" fill="#FFFFFF" style="stroke:#000000;stroke-width:1;"/><line style="stroke:#000000;stroke-width:1;" x1="11" x2="160.9238" y1="74" y2="74"/><text fill="#000000" font-family="Helvetica" font-size="14" font-weight="700" lengthAdjust="spacing" textLength="136.9238" x="15" y="66.7803">drevops/behat-steps</text></g><!--cluster Vocabulary - src/Steps--><g class="cluster" data-qualified-name="drevops.behat-steps.Vocabulary - src.Steps" data-source-line="20" id="ent0006"><path d="M791.5,95 L943.4512,95 A3.75,3.75 0 0 1 945.9512,97.5 L952.9512,115 L1160.5,115 A2.5,2.5 0 0 1 1163,117.5 L1163,189.5 A2.5,2.5 0 0 1 1160.5,192 L791.5,192 A2.5,2.5 0 0 1 789,189.5 L789,97.5 A2.5,2.5 0 0 1 791.5,95" fill="#E3F2FD" style="stroke:#000000;stroke-width:1;"/><line style="stroke:#000000;stroke-width:1;" x1="789" x2="952.9512" y1="115" y2="115"/><text fill="#000000" font-family="Helvetica" font-size="14" font-weight="700" lengthAdjust="spacing" textLength="150.9512" x="793" y="107.7803">Vocabulary - src/Steps</text></g><!--cluster Helpers - src/Helper--><g class="cluster" data-qualified-name="drevops.behat-steps.Helpers - src.Helper" data-source-line="25" id="ent0009"><path d="M500.5,548 L633.7822,548 A3.75,3.75 0 0 1 636.2822,550.5 L643.2822,568 L721.5,568 A2.5,2.5 0 0 1 724,570.5 L724,684.5 A2.5,2.5 0 0 1 721.5,687 L500.5,687 A2.5,2.5 0 0 1 498,684.5 L498,550.5 A2.5,2.5 0 0 1 500.5,548" fill="#F3E5F5" style="stroke:#000000;stroke-width:1;"/><line style="stroke:#000000;stroke-width:1;" x1="498" x2="643.2822" y1="568" y2="568"/><text fill="#000000" font-family="Helvetica" font-size="14" font-weight="700" lengthAdjust="spacing" textLength="132.2822" x="502" y="560.7803">Helpers - src/Helper</text></g><!--cluster Integration - src/Behat--><g class="cluster" data-qualified-name="drevops.behat-steps.Integration - src.Behat" data-source-line="29" id="ent0011"><path d="M750.5,239 L900.0791,239 A3.75,3.75 0 0 1 902.5791,241.5 L909.5791,259 L1160.5,259 A2.5,2.5 0 0 1 1163,261.5 L1163,835.5 A2.5,2.5 0 0 1 1160.5,838 L750.5,838 A2.5,2.5 0 0 1 748,835.5 L748,241.5 A2.5,2.5 0 0 1 750.5,239" fill="#F3E5F5" style="stroke:#000000;stroke-width:1;"/><line style="stroke:#000000;stroke-width:1;" x1="748" x2="909.5791" y1="259" y2="259"/><text fill="#000000" font-family="Helvetica" font-size="14" font-weight="700" lengthAdjust="spacing" textLength="148.5791" x="752" y="251.7803">Integration - src/Behat</text></g><!--cluster Driver - src/Driver--><g class="cluster" data-qualified-name="drevops.behat-steps.Driver - src.Driver" data-source-line="39" id="ent0019"><path d="M177.5,734 L296.7891,734 A3.75,3.75 0 0 1 299.2891,736.5 L306.2891,754 L721.5,754 A2.5,2.5 0 0 1 724,756.5 L724,999.5 A2.5,2.5 0 0 1 721.5,1002 L177.5,1002 A2.5,2.5 0 0 1 175,999.5 L175,736.5 A2.5,2.5 0 0 1 177.5,734" fill="#E8F5E9" style="stroke:#000000;stroke-width:1;"/><line style="stroke:#000000;stroke-width:1;" x1="175" x2="306.2891" y1="754" y2="754"/><text fill="#000000" font-family="Helvetica" font-size="14" font-weight="700" lengthAdjust="spacing" textLength="118.2891" x="179" y="746.7803">Driver - src/Driver</text></g><!--cluster Runtime and targets--><g class="cluster" data-qualified-name="Runtime and targets" data-source-line="48" id="ent0025"><path d="M1213.5,898 L1349.8516,898 A3.75,3.75 0 0 1 1352.3516,900.5 L1359.3516,918 L1754.5,918 A2.5,2.5 0 0 1 1757,920.5 L1757,1148.5 A2.5,2.5 0 0 1 1754.5,1151 L1213.5,1151 A2.5,2.5 0 0 1 1211,1148.5 L1211,900.5 A2.5,2.5 0 0 1 1213.5,898" fill="#ECEFF1" style="stroke:#000000;stroke-width:1;"/><line style="stroke:#000000;stroke-width:1;" x1="1211" x2="1359.3516" y1="918" y2="918"/><text fill="#000000" font-family="Helvetica" font-size="14" font-weight="700" lengthAdjust="spacing" textLength="135.3516" x="1215" y="910.7803">Runtime and targets</text></g><!--entity Features--><g class="entity" data-qualified-name="Consuming project.Features" data-source-line="13" id="ent0002"><rect fill="#FFFFFF" height="48" rx="2.5" ry="2.5" style="stroke:#000000;stroke-width:1;" width="97.0342" x="1492.48" y="279"/><text fill="#000000" font-family="Helvetica" font-size="14" lengthAdjust="spacing" textLength="77.0342" x="1502.48" y="299.7803">Feature files</text><ellipse cx="1507.98" cy="309.5" fill="#000000" rx="2.5" ry="2.5"/><text fill="#000000" font-family="Helvetica" font-size="14" lengthAdjust="spacing" textLength="47.4756" x="1514.48" y="313.7803">.feature</text></g><!--entity Config--><g class="entity" data-qualified-name="Consuming project.Config" data-source-line="14" id="ent0003"><rect fill="#FFFFFF" height="76" rx="2.5" ry="2.5" style="stroke:#000000;stroke-width:1;" width="154.6064" x="1315.7" y="409"/><text fill="#000000" font-family="Helvetica" font-size="14" lengthAdjust="spacing" textLength="62.2822" x="1325.7" y="429.7803">behat.php</text><text fill="#000000" font-family="Helvetica" font-size="14" lengthAdjust="spacing" textLength="115.958" x="1325.7" y="443.7803">extension settings,</text><text fill="#000000" font-family="Helvetica" font-size="14" lengthAdjust="spacing" textLength="134.6064" x="1325.7" y="457.7803">registers WebContext</text><text fill="#000000" font-family="Helvetica" font-size="14" lengthAdjust="spacing" textLength="116.7373" x="1325.7" y="471.7803">and DrupalContext</text></g><!--entity Consumer--><g class="entity" data-qualified-name="Consuming project.Consumer" data-source-line="15" id="ent0004"><rect fill="#FFFFFF" height="62" rx="2.5" ry="2.5" style="stroke:#000000;stroke-width:1;" width="190.4199" x="1266.79" y="272"/><text fill="#000000" font-family="Helvetica" font-size="14" lengthAdjust="spacing" textLength="77.8135" x="1276.79" y="292.7803">Own context</text><text fill="#000000" font-family="Helvetica" font-size="14" lengthAdjust="spacing" textLength="140.0752" x="1276.79" y="306.7803">extends a raw context,</text><text fill="#000000" font-family="Helvetica" font-size="14" lengthAdjust="spacing" textLength="170.4199" x="1276.79" y="320.7803">composes the chosen traits</text></g><!--entity WebSteps--><g class="entity" data-qualified-name="drevops.behat-steps.Vocabulary - src.Steps.WebSteps" data-source-line="21" id="ent0007"><rect fill="#FFFFFF" height="48" rx="2.5" ry="2.5" style="stroke:#000000;stroke-width:1;" width="136.71" x="804.65" y="128"/><text fill="#000000" font-family="Helvetica" font-size="14" lengthAdjust="spacing" textLength="68.4756" x="814.65" y="148.7803">Steps\Web</text><text fill="#000000" font-family="Helvetica" font-size="14" lengthAdjust="spacing" textLength="116.71" x="814.65" y="162.7803">28 traits, Mink only</text></g><!--entity DrupalSteps--><g class="entity" data-qualified-name="drevops.behat-steps.Vocabulary - src.Steps.DrupalSteps" data-source-line="22" id="ent0008"><rect fill="#FFFFFF" height="48" rx="2.5" ry="2.5" style="stroke:#000000;stroke-width:1;" width="170.9717" x="976.51" y="128"/><text fill="#000000" font-family="Helvetica" font-size="14" lengthAdjust="spacing" textLength="80.9307" x="986.51" y="148.7803">Steps\Drupal</text><text fill="#000000" font-family="Helvetica" font-size="14" lengthAdjust="spacing" textLength="150.9717" x="986.51" y="162.7803">29 traits, need the driver</text></g><!--entity Helpers--><g class="entity" data-qualified-name="drevops.behat-steps.Helpers - src.Helper.Helpers" data-source-line="26" id="ent0010"><rect fill="#FFFFFF" height="90" rx="2.5" ry="2.5" style="stroke:#000000;stroke-width:1;" width="194.3096" x="513.85" y="581"/><text fill="#000000" font-family="Helvetica" font-size="14" lengthAdjust="spacing" textLength="95.71" x="523.85" y="601.7803">7 concern traits</text><text fill="#000000" font-family="Helvetica" font-size="14" lengthAdjust="spacing" textLength="164.9854" x="523.85" y="615.7803">last step, request headers,</text><text fill="#000000" font-family="Helvetica" font-size="14" lengthAdjust="spacing" textLength="168.8477" x="523.85" y="629.7803">strings, JavaScript support,</text><text fill="#000000" font-family="Helvetica" font-size="14" lengthAdjust="spacing" textLength="174.3096" x="523.85" y="643.7803">table transpose, fixture files,</text><text fill="#000000" font-family="Helvetica" font-size="14" lengthAdjust="spacing" textLength="91.0479" x="523.85" y="657.7803">Drupal queries</text></g><!--entity Ext--><g class="entity" data-qualified-name="drevops.behat-steps.Integration - src.Behat.Ext" data-source-line="30" id="ent0012"><rect fill="#FFFFFF" height="48" rx="2.5" ry="2.5" style="stroke:#000000;stroke-width:1;" width="153.8682" x="993.07" y="602"/><text fill="#000000" font-family="Helvetica" font-size="14" lengthAdjust="spacing" textLength="133.8682" x="1003.07" y="622.7803">BehatStepsExtension</text><text fill="#000000" font-family="Helvetica" font-size="14" lengthAdjust="spacing" textLength="84.7998" x="1003.07" y="636.7803">service wiring</text></g><!--entity RawCtx--><g class="entity" data-qualified-name="drevops.behat-steps.Integration - src.Behat.RawCtx" data-source-line="31" id="ent0013"><rect fill="#FFFFFF" height="62" rx="2.5" ry="2.5" style="stroke:#000000;stroke-width:1;" width="194.3027" x="763.85" y="595"/><text fill="#000000" font-family="Helvetica" font-size="14" lengthAdjust="spacing" textLength="76.2549" x="773.85" y="615.7803">RawContext</text><text fill="#000000" font-family="Helvetica" font-size="14" lengthAdjust="spacing" textLength="174.3027" x="773.85" y="629.7803">driver access, configuration,</text><text fill="#000000" font-family="Helvetica" font-size="14" lengthAdjust="spacing" textLength="86.3926" x="773.85" y="643.7803">hook dispatch</text></g><!--entity WebRawCtx--><g class="entity" data-qualified-name="drevops.behat-steps.Integration - src.Behat.WebRawCtx" data-source-line="32" id="ent0014"><rect fill="#FFFFFF" height="48" rx="2.5" ry="2.5" style="stroke:#000000;stroke-width:1;" width="167.0889" x="777.46" y="423"/><text fill="#000000" font-family="Helvetica" font-size="14" lengthAdjust="spacing" textLength="105.041" x="787.46" y="443.7803">WebRawContext</text><text fill="#000000" font-family="Helvetica" font-size="14" lengthAdjust="spacing" textLength="147.0889" x="787.46" y="457.7803">web plumbing, no steps</text></g><!--entity DrupalRawCtx--><g class="entity" data-qualified-name="drevops.behat-steps.Integration - src.Behat.DrupalRawCtx" data-source-line="33" id="ent0015"><rect fill="#FFFFFF" height="62" rx="2.5" ry="2.5" style="stroke:#000000;stroke-width:1;" width="167.8682" x="979.07" y="416"/><text fill="#000000" font-family="Helvetica" font-size="14" lengthAdjust="spacing" textLength="117.4961" x="989.07" y="436.7803">DrupalRawContext</text><text fill="#000000" font-family="Helvetica" font-size="14" lengthAdjust="spacing" textLength="147.8682" x="989.07" y="450.7803">entity creation, cleanup,</text><text fill="#000000" font-family="Helvetica" font-size="14" lengthAdjust="spacing" textLength="74.7168" x="989.07" y="464.7803">login, hooks</text></g><!--entity Vocabularies--><g class="entity" data-qualified-name="drevops.behat-steps.Integration - src.Behat.Vocabularies" data-source-line="34" id="ent0016"><rect fill="#FFFFFF" height="62" rx="2.5" ry="2.5" style="stroke:#000000;stroke-width:1;" width="117.2891" x="1004.36" y="272"/><text fill="#000000" font-family="Helvetica" font-size="14" lengthAdjust="spacing" textLength="77.0342" x="1014.36" y="292.7803">WebContext</text><text fill="#000000" font-family="Helvetica" font-size="14" lengthAdjust="spacing" textLength="89.4893" x="1014.36" y="306.7803">DrupalContext</text><text fill="#000000" font-family="Helvetica" font-size="14" lengthAdjust="spacing" textLength="97.2891" x="1014.36" y="320.7803">whole half each</text></g><!--entity Managers--><g class="entity" data-qualified-name="drevops.behat-steps.Integration - src.Behat.Managers" data-source-line="35" id="ent0017"><rect fill="#FFFFFF" height="62" rx="2.5" ry="2.5" style="stroke:#000000;stroke-width:1;" width="157.7305" x="782.13" y="760"/><text fill="#000000" font-family="Helvetica" font-size="14" lengthAdjust="spacing" textLength="62.2549" x="792.13" y="780.7803">Managers</text><text fill="#000000" font-family="Helvetica" font-size="14" lengthAdjust="spacing" textLength="137.7305" x="792.13" y="794.7803">Driver, Authentication,</text><text fill="#000000" font-family="Helvetica" font-size="14" lengthAdjust="spacing" textLength="63.0068" x="792.13" y="808.7803">User, Mail</text></g><!--entity MinkExt--><g class="entity" data-qualified-name="drevops.behat-steps.Integration - src.Behat.MinkExt" data-source-line="36" id="ent0018"><rect fill="#FFFFFF" height="62" rx="2.5" ry="2.5" style="stroke:#000000;stroke-width:1;" width="168.1758" x="978.91" y="760"/><text fill="#000000" font-family="Helvetica" font-size="14" lengthAdjust="spacing" textLength="91.041" x="988.91" y="780.7803">MinkExtension</text><text fill="#000000" font-family="Helvetica" font-size="14" lengthAdjust="spacing" textLength="148.1758" x="988.91" y="794.7803">wraps Mink's extension,</text><text fill="#000000" font-family="Helvetica" font-size="14" lengthAdjust="spacing" textLength="129.1787" x="988.91" y="808.7803">adds browserkit_http</text></g><!--entity DriverIface--><g class="entity" data-qualified-name="drevops.behat-steps.Driver - src.Driver.DriverIface" data-source-line="40" id="ent0020"><rect fill="#FFFFFF" height="48" rx="2.5" ry="2.5" style="stroke:#000000;stroke-width:1;" width="174.4785" x="419.76" y="931"/><text fill="#000000" font-family="Helvetica" font-size="14" lengthAdjust="spacing" textLength="91.8066" x="429.76" y="951.7803">DriverInterface</text><text fill="#000000" font-family="Helvetica" font-size="14" lengthAdjust="spacing" textLength="154.4785" x="429.76" y="965.7803">+ 16 capability interfaces</text></g><!--entity DrupalDrv--><g class="entity" data-qualified-name="drevops.behat-steps.Driver - src.Driver.DrupalDrv" data-source-line="41" id="ent0021"><rect fill="#FFFFFF" height="48" rx="2.5" ry="2.5" style="stroke:#000000;stroke-width:1;" width="198.9717" x="340.51" y="767"/><text fill="#000000" font-family="Helvetica" font-size="14" lengthAdjust="spacing" textLength="78.5723" x="350.51" y="787.7803">DrupalDriver</text><text fill="#000000" font-family="Helvetica" font-size="14" lengthAdjust="spacing" textLength="178.9717" x="350.51" y="801.7803">bootstraps Drupal in-process</text></g><!--entity DrushDrv--><g class="entity" data-qualified-name="drevops.behat-steps.Driver - src.Driver.DrushDrv" data-source-line="42" id="ent0022"><rect fill="#FFFFFF" height="48" rx="2.5" ry="2.5" style="stroke:#000000;stroke-width:1;" width="133.6201" x="574.19" y="767"/><text fill="#000000" font-family="Helvetica" font-size="14" lengthAdjust="spacing" textLength="74.6758" x="584.19" y="787.7803">DrushDriver</text><text fill="#000000" font-family="Helvetica" font-size="14" lengthAdjust="spacing" textLength="113.6201" x="584.19" y="801.7803">shells out to drush</text></g><!--entity BlackboxDrv--><g class="entity" data-qualified-name="drevops.behat-steps.Driver - src.Driver.BlackboxDrv" data-source-line="43" id="ent0023"><rect fill="#FFFFFF" height="48" rx="2.5" ry="2.5" style="stroke:#000000;stroke-width:1;" width="114.165" x="190.92" y="767"/><text fill="#000000" font-family="Helvetica" font-size="14" lengthAdjust="spacing" textLength="94.1377" x="200.92" y="787.7803">BlackboxDriver</text><text fill="#000000" font-family="Helvetica" font-size="14" lengthAdjust="spacing" textLength="94.165" x="200.92" y="801.7803">no Drupal at all</text></g><!--entity Core--><g class="entity" data-qualified-name="drevops.behat-steps.Driver - src.Driver.Core" data-source-line="44" id="ent0024"><rect fill="#FFFFFF" height="62" rx="2.5" ry="2.5" style="stroke:#000000;stroke-width:1;" width="176.3994" x="208.8" y="924"/><text fill="#000000" font-family="Helvetica" font-size="14" lengthAdjust="spacing" textLength="30.3447" x="218.8" y="944.7803">Core</text><text fill="#000000" font-family="Helvetica" font-size="14" lengthAdjust="spacing" textLength="156.3994" x="218.8" y="958.7803">field handlers, classifiers,</text><text fill="#000000" font-family="Helvetica" font-size="14" lengthAdjust="spacing" textLength="151.7373" x="218.8" y="972.7803">parsers, creation aliases</text></g><!--entity Behat--><g class="entity" data-qualified-name="Runtime and targets.Behat" data-source-line="49" id="ent0026"><rect fill="#FFFFFF" height="48" rx="2.5" ry="2.5" style="stroke:#000000;stroke-width:1;" width="175.6543" x="1565.17" y="931"/><text fill="#000000" font-family="Helvetica" font-size="14" lengthAdjust="spacing" textLength="36.5859" x="1575.17" y="951.7803">Behat</text><text fill="#000000" font-family="Helvetica" font-size="14" lengthAdjust="spacing" textLength="155.6543" x="1575.17" y="965.7803">step matching and hooks</text></g><!--entity Mink--><g class="entity" data-qualified-name="Runtime and targets.Mink" data-source-line="50" id="ent0027"><rect fill="#FFFFFF" height="34" rx="2.5" ry="2.5" style="stroke:#000000;stroke-width:1;" width="100.917" x="1429.54" y="938"/><text fill="#000000" font-family="Helvetica" font-size="14" lengthAdjust="spacing" textLength="80.917" x="1439.54" y="958.7803">Mink session</text></g><!--entity Browser--><g class="entity" data-qualified-name="Runtime and targets.Browser" data-source-line="51" id="ent0028"><rect fill="#FFFFFF" height="62" rx="2.5" ry="2.5" style="stroke:#000000;stroke-width:1;" width="165.5029" x="1397.25" y="1073"/><text fill="#000000" font-family="Helvetica" font-size="14" lengthAdjust="spacing" textLength="51.3447" x="1407.25" y="1093.7803">Browser</text><text fill="#000000" font-family="Helvetica" font-size="14" lengthAdjust="spacing" textLength="145.5029" x="1407.25" y="1107.7803">BrowserKit, Selenium2,</text><text fill="#000000" font-family="Helvetica" font-size="14" lengthAdjust="spacing" textLength="112.8135" x="1407.25" y="1121.7803">Chrome DevTools</text></g><!--entity Site--><g class="entity" data-qualified-name="Runtime and targets.Site" data-source-line="52" id="ent0029"><rect fill="#FFFFFF" height="48" rx="2.5" ry="2.5" style="stroke:#000000;stroke-width:1;" width="167.8545" x="1227.07" y="931"/><text fill="#000000" font-family="Helvetica" font-size="14" lengthAdjust="spacing" textLength="66.917" x="1237.07" y="951.7803">Drupal site</text><text fill="#000000" font-family="Helvetica" font-size="14" lengthAdjust="spacing" textLength="147.8545" x="1237.07" y="965.7803">entity API, config, drush</text></g><g class="entity" data-qualified-name="GMN65" data-source-line="96" id="ent0066"><path d="M329.93,1073 L329.93,1135 A0,0 0 0 0 329.93,1135 L684.0677,1135 A0,0 0 0 0 684.0677,1135 L684.0677,1083 L674.0677,1073 L511,1073 L507,979.29 L503,1073 L329.93,1073 A0,0 0 0 0 329.93,1073" fill="#FFFFFF" style="stroke:#000000;stroke-width:1;"/><path d="M674.0677,1073 L674.0677,1083 L684.0677,1083 L674.0677,1073" fill="#FFFFFF" style="stroke:#000000;stroke-width:1;"/><text fill="#000000" font-family="Helvetica" font-size="13" lengthAdjust="spacing" textLength="318.6396" x="335.93" y="1088.0103">The driver layer references nothing from Behat or Mink,</text><text fill="#000000" font-family="Helvetica" font-size="13" lengthAdjust="spacing" textLength="285.4541" x="335.93" y="1101.0103">so it is usable without Behat loaded. The web half</text><text fill="#000000" font-family="Helvetica" font-size="13" lengthAdjust="spacing" textLength="333.1377" x="335.93" y="1114.0103">references no Drupal class beyond the random generator.</text><text fill="#000000" font-family="Helvetica" font-size="13" lengthAdjust="spacing" textLength="317.9351" x="335.93" y="1127.0103">scripts/lint-layers.php fails the build on either reference.</text></g><!--link Features to Behat--><g class="link" data-entity-1="ent0002" data-entity-2="ent0026" data-link-type="dependency" data-source-line="55" id="lnk30"><path d="M1589.79,308.2 C1666.58,317.79 1807,348.63 1807,446 C1807,446 1807,446 1807,792 C1807,855.45 1748.4876,901.3914 1703.0976,928.1414" fill="none" id="Features-to-Behat" style="stroke:#000000;stroke-width:1;"/><polygon fill="#000000" points="1698.79,930.68,1708.5746,929.5566,1703.0976,928.1414,1704.5128,922.6644,1698.79,930.68" style="stroke:#000000;stroke-width:1;stroke-linejoin:miter;stroke-miterlimit:10;"/><text fill="#000000" font-family="Helvetica" font-size="13" lengthAdjust="spacing" textLength="31.0718" x="1808" y="629.5103">steps</text></g><!--link Config to Ext--><g class="link" data-entity-1="ent0003" data-entity-2="ent0012" data-link-type="dependency" data-source-line="56" id="lnk31"><path d="M1315.38,474.36 C1272.28,490.51 1218.53,513.22 1174,540 C1144.62,557.67 1118.3803,579.6964 1098.2203,598.1264" fill="none" id="Config-to-Ext" style="stroke:#000000;stroke-width:1;"/><polygon fill="#000000" points="1094.53,601.5,1103.8715,598.3797,1098.2203,598.1264,1098.4737,592.4752,1094.53,601.5" style="stroke:#000000;stroke-width:1;stroke-linejoin:miter;stroke-miterlimit:10;"/><text fill="#000000" font-family="Helvetica" font-size="13" lengthAdjust="spacing" textLength="59.979" x="1214.78" y="528.0103">configures</text></g><!--link Config to MinkExt--><g class="link" data-entity-1="ent0003" data-entity-2="ent0018" data-link-type="dependency" data-source-line="57" id="lnk32"><path d="M1398.16,485.16 C1403.4,539.15 1404.14,638.96 1349,695 C1298.51,746.32 1258.12,702.69 1190,726 C1164.54,734.71 1142.1414,745.2564 1119.7614,757.1964" fill="none" id="Config-to-MinkExt" style="stroke:#000000;stroke-width:1;"/><polygon fill="#000000" points="1115.35,759.55,1125.1734,758.8428,1119.7614,757.1964,1121.4077,751.7845,1115.35,759.55" style="stroke:#000000;stroke-width:1;stroke-linejoin:miter;stroke-miterlimit:10;"/><text fill="#000000" font-family="Helvetica" font-size="13" lengthAdjust="spacing" textLength="59.979" x="1401.33" y="629.5103">configures</text></g><!--link Config to Vocabularies--><g class="link" data-entity-1="ent0003" data-entity-2="ent0016" data-link-type="dependency" data-source-line="58" id="lnk33"><path d="M1330.39,408.52 C1303.96,393.56 1272.52,376.87 1243,364 C1203.59,346.82 1162.374,333.0237 1126.734,322.1937" fill="none" id="Config-to-Vocabularies" style="stroke:#000000;stroke-width:1;"/><polygon fill="#000000" points="1121.95,320.74,1129.3982,327.1839,1126.734,322.1937,1131.7242,319.5295,1121.95,320.74" style="stroke:#000000;stroke-width:1;stroke-linejoin:miter;stroke-miterlimit:10;"/><text fill="#000000" font-family="Helvetica" font-size="13" lengthAdjust="spacing" textLength="49.8481" x="1273.63" y="375.0103">registers</text></g><!--link Behat to Consumer--><g class="link" data-entity-1="ent0026" data-entity-2="ent0004" data-link-type="dependency" data-source-line="59" id="lnk34"><path d="M1643.42,930.57 C1631.59,899.46 1613,842.55 1613,792 C1613,446 1613,446 1613,446 C1613,407.07 1525.0436,364.8686 1452.3336,336.2986" fill="none" id="Behat-to-Consumer" style="stroke:#000000;stroke-width:1;"/><polygon fill="#000000" points="1447.68,334.47,1454.5937,341.4843,1452.3336,336.2986,1457.5194,334.0385,1447.68,334.47" style="stroke:#000000;stroke-width:1;stroke-linejoin:miter;stroke-miterlimit:10;"/><text fill="#000000" font-family="Helvetica" font-size="13" lengthAdjust="spacing" textLength="122.1226" x="1614" y="629.5103">matches and invokes</text></g><!--link Behat to Vocabularies--><g class="link" data-entity-1="ent0026" data-entity-2="ent0016" data-link-type="dependency" data-source-line="60" id="lnk35"><path d="M1638.37,930.76 C1607.05,883.23 1528.48,775.26 1432,726 C1346.02,682.1 1284.57,763.95 1217,695 C1161.21,638.07 1210.93,595.1 1195,517 C1185.02,468.07 1188.93,452.27 1164,409 C1147.46,380.29 1125.1172,356.814 1103.6072,337.464" fill="none" id="Behat-to-Vocabularies" style="stroke:#000000;stroke-width:1;"/><polygon fill="#000000" points="1099.89,334.12,1103.9059,343.1129,1103.6072,337.464,1109.2562,337.1653,1099.89,334.12" style="stroke:#000000;stroke-width:1;stroke-linejoin:miter;stroke-miterlimit:10;"/><text fill="#000000" font-family="Helvetica" font-size="13" lengthAdjust="spacing" textLength="122.1226" x="1218" y="629.5103">matches and invokes</text></g><!--link WebSteps to Vocabularies--><g class="link" data-entity-1="ent0007" data-entity-2="ent0016" data-link-type="dependency" data-source-line="62" id="lnk36"><path d="M902.69,176.28 C935.46,201.98 984.3959,240.3541 1020.3859,268.5841" fill="none" id="WebSteps-to-Vocabularies" style="stroke:#000000;stroke-width:1;"/><polygon fill="#000000" points="1024.32,271.67,1019.7073,262.9681,1020.3859,268.5841,1014.7699,269.2627,1024.32,271.67" style="stroke:#000000;stroke-width:1;stroke-linejoin:miter;stroke-miterlimit:10;"/><text fill="#000000" font-family="Helvetica" font-size="13" lengthAdjust="spacing" textLength="77.3208" x="957.62" y="219.0103">composed by</text></g><!--link DrupalSteps to Vocabularies--><g class="link" data-entity-1="ent0008" data-entity-2="ent0016" data-link-type="dependency" data-source-line="63" id="lnk37"><path d="M1062.16,176.28 C1062.33,201.98 1062.5763,238.4401 1062.7663,266.6701" fill="none" id="DrupalSteps-to-Vocabularies" style="stroke:#000000;stroke-width:1;"/><polygon fill="#000000" points="1062.8,271.67,1066.7393,262.6433,1062.7663,266.6701,1058.7395,262.6971,1062.8,271.67" style="stroke:#000000;stroke-width:1;stroke-linejoin:miter;stroke-miterlimit:10;"/><text fill="#000000" font-family="Helvetica" font-size="13" lengthAdjust="spacing" textLength="77.3208" x="1063.44" y="219.0103">composed by</text></g><!--link WebSteps to Consumer--><g class="link" data-entity-1="ent0007" data-entity-2="ent0004" data-link-type="dependency" data-source-line="64" id="lnk38"><path d="M907,176.29 C922.22,185.43 940.8,194.94 959,200 C999.72,211.32 1107.84,198.41 1149,208 C1205.88,221.25 1261.9861,247.1599 1303.9261,269.2499" fill="none" id="WebSteps-to-Consumer" style="stroke:#000000;stroke-width:1;"/><polygon fill="#000000" points="1308.35,271.58,1302.2511,263.8468,1303.9261,269.2499,1298.5229,270.925,1308.35,271.58" style="stroke:#000000;stroke-width:1;stroke-linejoin:miter;stroke-miterlimit:10;"/><text fill="#000000" font-family="Helvetica" font-size="13" lengthAdjust="spacing" textLength="59.249" x="1198.75" y="219.0103">mixed into</text></g><!--link DrupalSteps to Consumer--><g class="link" data-entity-1="ent0008" data-entity-2="ent0004" data-link-type="dependency" data-source-line="65" id="lnk39"><path d="M1147.86,159.86 C1193.09,166.75 1247.77,180.51 1290,208 C1314.29,223.81 1331.1117,246.4241 1343.6117,267.4141" fill="none" id="DrupalSteps-to-Consumer" style="stroke:#000000;stroke-width:1;"/><polygon fill="#000000" points="1346.17,271.71,1345.0018,261.9307,1343.6117,267.4141,1338.1283,266.024,1346.17,271.71" style="stroke:#000000;stroke-width:1;stroke-linejoin:miter;stroke-miterlimit:10;"/><text fill="#000000" font-family="Helvetica" font-size="13" lengthAdjust="spacing" textLength="59.249" x="1308.54" y="219.0103">mixed into</text></g><!--link WebSteps to Helpers--><g class="link" data-entity-1="ent0007" data-entity-2="ent0010" data-link-type="dependency" data-source-line="66" id="lnk40"><path d="M804.21,156.6 C757.41,162.08 696.2,175.51 652,208 C586.59,256.08 578.93,285.84 557,364 C535.94,439.07 563.9861,523.8135 586.9961,576.1035" fill="none" id="WebSteps-to-Helpers" style="stroke:#000000;stroke-width:1;stroke-dasharray:7,7;"/><polygon fill="#000000" points="589.01,580.68,589.0462,570.8312,586.9961,576.1035,581.7238,574.0534,589.01,580.68" style="stroke:#000000;stroke-width:1;stroke-linejoin:miter;stroke-miterlimit:10;"/><text fill="#000000" font-family="Helvetica" font-size="13" lengthAdjust="spacing" textLength="59.249" x="558" y="375.0103">composes</text></g><!--link DrupalSteps to Helpers--><g class="link" data-entity-1="ent0008" data-entity-2="ent0010" data-link-type="dependency" data-source-line="67" id="lnk41"><path d="M1017.94,176.42 C1000.08,185.03 978.98,194.1 959,200 C868.09,226.83 823.84,174.14 748,231 C636.02,314.95 615.2516,491.6845 611.6916,575.7245" fill="none" id="DrupalSteps-to-Helpers" style="stroke:#000000;stroke-width:1;stroke-dasharray:7,7;"/><polygon fill="#000000" points="611.48,580.72,615.8573,571.8974,611.6916,575.7245,607.8645,571.5588,611.48,580.72" style="stroke:#000000;stroke-width:1;stroke-linejoin:miter;stroke-miterlimit:10;"/><text fill="#000000" font-family="Helvetica" font-size="13" lengthAdjust="spacing" textLength="59.249" x="653.99" y="375.0103">composes</text></g><!--link WebRawCtx to Helpers--><g class="link" data-entity-1="ent0014" data-entity-2="ent0010" data-link-type="dependency" data-source-line="68" id="lnk42"><path d="M785.59,471.4 C756.82,482.49 724.77,497.61 699,517 C675.81,534.45 657.9534,555.2209 642.4134,576.6709" fill="none" id="WebRawCtx-to-Helpers" style="stroke:#000000;stroke-width:1;stroke-dasharray:7,7;"/><polygon fill="#000000" points="639.48,580.72,647.9995,575.7784,642.4134,576.6709,641.521,571.0849,639.48,580.72" style="stroke:#000000;stroke-width:1;stroke-linejoin:miter;stroke-miterlimit:10;"/><text fill="#000000" font-family="Helvetica" font-size="13" lengthAdjust="spacing" textLength="59.249" x="700" y="528.0103">composes</text></g><!--link DrupalRawCtx to Helpers--><g class="link" data-entity-1="ent0015" data-entity-2="ent0010" data-link-type="dependency" data-source-line="69" id="lnk43"><path d="M1021.71,478.3 C1004.14,489.74 982.89,501.73 962,509 C935.34,518.27 926.95,513.1 899,517 C831.77,526.39 811.69,516.52 748,540 C721.08,549.93 697.9418,562.7892 674.8418,577.9292" fill="none" id="DrupalRawCtx-to-Helpers" style="stroke:#000000;stroke-width:1;stroke-dasharray:7,7;"/><polygon fill="#000000" points="670.66,580.67,680.38,579.082,674.8418,577.9292,675.9947,572.391,670.66,580.67" style="stroke:#000000;stroke-width:1;stroke-linejoin:miter;stroke-miterlimit:10;"/><text fill="#000000" font-family="Helvetica" font-size="13" lengthAdjust="spacing" textLength="59.249" x="900" y="528.0103">composes</text></g><!--link Consumer to WebRawCtx--><g class="link" data-entity-1="ent0004" data-entity-2="ent0014" data-link-type="extension" data-source-line="71" id="lnk44"><path d="M1266.32,326.42 C1184.83,346.16 1064.93,376.72 962,409 C948.99,413.08 952.1213,411.7302 939.0413,416.4502" fill="none" id="Consumer-to-WebRawCtx" style="stroke:#000000;stroke-width:1;"/><polygon fill="none" points="922.11,422.56,941.0779,422.094,937.0048,410.8064,922.11,422.56" style="stroke:#000000;stroke-width:1;stroke-linejoin:miter;stroke-miterlimit:10;"/></g><!--link Consumer to DrupalRawCtx--><g class="link" data-entity-1="ent0004" data-entity-2="ent0015" data-link-type="extension" data-source-line="72" id="lnk45"><path d="M1344.75,334.17 C1334.47,349.65 1320.09,367.6 1303,379 C1256.57,409.97 1213.6987,423.4606 1165.0187,432.4806" fill="none" id="Consumer-to-DrupalRawCtx" style="stroke:#000000;stroke-width:1;"/><polygon fill="none" points="1147.32,435.76,1166.1119,438.3802,1163.9256,426.581,1147.32,435.76" style="stroke:#000000;stroke-width:1;stroke-linejoin:miter;stroke-miterlimit:10;"/></g><!--link WebRawCtx to RawCtx--><g class="link" data-entity-1="ent0014" data-entity-2="ent0013" data-link-type="extension" data-source-line="73" id="lnk46"><path d="M862.69,471.3 C863.57,484.67 864.56,501.77 865,517 C865.76,543.26 865.5694,555.1324 864.2694,576.7724" fill="none" id="WebRawCtx-to-RawCtx" style="stroke:#000000;stroke-width:1;"/><polygon fill="none" points="863.19,594.74,870.2586,577.1322,858.2802,576.4126,863.19,594.74" style="stroke:#000000;stroke-width:1;stroke-linejoin:miter;stroke-miterlimit:10;"/></g><!--link DrupalRawCtx to RawCtx--><g class="link" data-entity-1="ent0015" data-entity-2="ent0013" data-link-type="extension" data-source-line="74" id="lnk47"><path d="M1028.27,478.43 C991.16,510.95 946.2185,550.3279 909.1485,582.8079" fill="none" id="DrupalRawCtx-to-RawCtx" style="stroke:#000000;stroke-width:1;"/><polygon fill="none" points="895.61,594.67,913.1025,587.3207,905.1944,578.2951,895.61,594.67" style="stroke:#000000;stroke-width:1;stroke-linejoin:miter;stroke-miterlimit:10;"/></g><!--link Vocabularies to WebRawCtx--><g class="link" data-entity-1="ent0016" data-entity-2="ent0014" data-link-type="extension" data-source-line="75" id="lnk48"><path d="M1019.67,334.46 C982.11,360.87 943.2658,388.1686 908.9958,412.2586" fill="none" id="Vocabularies-to-WebRawCtx" style="stroke:#000000;stroke-width:1;"/><polygon fill="none" points="894.27,422.61,912.4462,417.1672,905.5453,407.35,894.27,422.61" style="stroke:#000000;stroke-width:1;stroke-linejoin:miter;stroke-miterlimit:10;"/></g><!--link Vocabularies to DrupalRawCtx--><g class="link" data-entity-1="ent0016" data-entity-2="ent0015" data-link-type="extension" data-source-line="76" id="lnk49"><path d="M1063,334.46 C1063,358.42 1063,373.64 1063,397.59" fill="none" id="Vocabularies-to-DrupalRawCtx" style="stroke:#000000;stroke-width:1;"/><polygon fill="none" points="1063,415.59,1069,397.59,1057,397.59,1063,415.59" style="stroke:#000000;stroke-width:1;stroke-linejoin:miter;stroke-miterlimit:10;"/></g><!--link Ext to Managers--><g class="link" data-entity-1="ent0012" data-entity-2="ent0017" data-link-type="dependency" data-source-line="77" id="lnk50"><path d="M1040.06,650.35 C1003.15,679.14 944.2932,725.0457 903.7232,756.6757" fill="none" id="Ext-to-Managers" style="stroke:#000000;stroke-width:1;"/><polygon fill="#000000" points="899.78,759.75,909.3372,757.3709,903.7232,756.6757,904.4183,751.0617,899.78,759.75" style="stroke:#000000;stroke-width:1;stroke-linejoin:miter;stroke-miterlimit:10;"/><text fill="#000000" font-family="Helvetica" font-size="13" lengthAdjust="spacing" textLength="49.8481" x="972.77" y="714.0103">registers</text></g><!--link Ext to DriverIface--><g class="link" data-entity-1="ent0012" data-entity-2="ent0020" data-link-type="dependency" data-source-line="78" id="lnk51"><path d="M1046.4,650.26 C1028.65,666.09 1002.86,685.79 976,695 C928.83,711.18 113.64,690.14 79,726 C41.94,764.36 44.09,805.68 79,846 C115.6,888.27 272.53,875.03 328,882 C361.26,886.18 371.28,879.17 403,890 C429.89,899.18 453.0553,913.3682 472.9053,927.5882" fill="none" id="Ext-to-DriverIface" style="stroke:#000000;stroke-width:1;"/><polygon fill="#000000" points="476.97,930.5,471.9831,922.007,472.9053,927.5882,467.3242,928.5105,476.97,930.5" style="stroke:#000000;stroke-width:1;stroke-linejoin:miter;stroke-miterlimit:10;"/><text fill="#000000" font-family="Helvetica" font-size="13" lengthAdjust="spacing" textLength="92.4663" x="80" y="794.5103">registers drivers</text></g><!--link Ext to MinkExt--><g class="link" data-entity-1="ent0012" data-entity-2="ent0018" data-link-type="dependency" data-source-line="79" id="lnk52"><path d="M1069,650.35 C1067.76,679.14 1065.8748,723.1246 1064.5148,754.7546" fill="none" id="Ext-to-MinkExt" style="stroke:#000000;stroke-width:1;stroke-dasharray:7,7;"/><polygon fill="#000000" points="1064.3,759.75,1068.6829,750.9301,1064.5148,754.7546,1060.6903,750.5865,1064.3,759.75" style="stroke:#000000;stroke-width:1;stroke-linejoin:miter;stroke-miterlimit:10;"/><text fill="#000000" font-family="Helvetica" font-size="13" lengthAdjust="spacing" textLength="109.8398" x="1067.71" y="714.0103">reads ajax_timeout</text></g><!--link Ext to Mink--><g class="link" data-entity-1="ent0012" data-entity-2="ent0027" data-link-type="dependency" data-source-line="80" id="lnk53"><path d="M1105.89,650.45 C1139.81,672.62 1185.58,702.57 1186,703 C1238.31,756.55 1215.97,799.96 1275,846 C1325.43,885.33 1356.92,857.51 1412,890 C1433.5,902.68 1450.4285,919.5238 1463.1485,933.9138" fill="none" id="Ext-to-Mink" style="stroke:#000000;stroke-width:1;stroke-dasharray:7,7;"/><polygon fill="#000000" points="1466.46,937.66,1463.4963,928.2676,1463.1485,933.9138,1457.5024,933.566,1466.46,937.66" style="stroke:#000000;stroke-width:1;stroke-linejoin:miter;stroke-miterlimit:10;"/><text fill="#000000" font-family="Helvetica" font-size="13" lengthAdjust="spacing" textLength="151.0171" x="1276" y="794.5103">aliases DocumentElement</text></g><!--link RawCtx to Managers--><g class="link" data-entity-1="ent0013" data-entity-2="ent0017" data-link-type="dependency" data-source-line="81" id="lnk54"><path d="M861,657.28 C861,686.46 861,725.39 861,754.61" fill="none" id="RawCtx-to-Managers" style="stroke:#000000;stroke-width:1;"/><polygon fill="#000000" points="861,759.61,865,750.61,861,754.61,857,750.61,861,759.61" style="stroke:#000000;stroke-width:1;stroke-linejoin:miter;stroke-miterlimit:10;"/></g><!--link Managers to DriverIface--><g class="link" data-entity-1="ent0017" data-entity-2="ent0020" data-link-type="dependency" data-source-line="83" id="lnk55"><path d="M794.42,822.47 C725.82,853.86 624.9264,900.0291 562.6364,928.5391" fill="none" id="Managers-to-DriverIface" style="stroke:#000000;stroke-width:1;"/><polygon fill="#000000" points="558.09,930.62,567.9383,930.5115,562.6364,928.5391,564.6088,923.2373,558.09,930.62" style="stroke:#000000;stroke-width:1;stroke-linejoin:miter;stroke-miterlimit:10;"/><text fill="#000000" font-family="Helvetica" font-size="13" lengthAdjust="spacing" textLength="123.5571" x="716.71" y="871.5103">resolves by capability</text></g><!--link DrupalDrv to DriverIface--><g class="link" data-entity-1="ent0021" data-entity-2="ent0020" data-link-type="extension" data-source-line="84" id="lnk56"><path d="M449.6,815.21 C462.3,845.92 477.6791,883.1171 490.4291,913.9371" fill="none" id="DrupalDrv-to-DriverIface" style="stroke:#000000;stroke-width:1;stroke-dasharray:7,7;"/><polygon fill="none" points="497.31,930.57,495.9734,911.6435,484.8848,916.2307,497.31,930.57" style="stroke:#000000;stroke-width:1;stroke-linejoin:miter;stroke-miterlimit:10;"/></g><!--link DrushDrv to DriverIface--><g class="link" data-entity-1="ent0022" data-entity-2="ent0020" data-link-type="extension" data-source-line="85" id="lnk57"><path d="M621.8,815.21 C596.4,845.92 563.3419,885.8793 537.8519,916.6993" fill="none" id="DrushDrv-to-DriverIface" style="stroke:#000000;stroke-width:1;stroke-dasharray:7,7;"/><polygon fill="none" points="526.38,930.57,542.4754,920.5233,533.2283,912.8754,526.38,930.57" style="stroke:#000000;stroke-width:1;stroke-linejoin:miter;stroke-miterlimit:10;"/></g><!--link BlackboxDrv to DriverIface--><g class="link" data-entity-1="ent0023" data-entity-2="ent0020" data-link-type="extension" data-source-line="86" id="lnk58"><path d="M278.8,815.46 C292.13,825.28 308.08,836.57 323,846 C357.31,867.67 367.93,869.58 403,890 C425.54,903.12 435.1482,908.8825 454.9282,921.2225" fill="none" id="BlackboxDrv-to-DriverIface" style="stroke:#000000;stroke-width:1;stroke-dasharray:7,7;"/><polygon fill="none" points="470.2,930.75,458.1041,916.1319,451.7524,926.3131,470.2,930.75" style="stroke:#000000;stroke-width:1;stroke-linejoin:miter;stroke-miterlimit:10;"/></g><!--link DrupalDrv to Core--><g class="link" data-entity-1="ent0021" data-entity-2="ent0024" data-link-type="dependency" data-source-line="87" id="lnk59"><path d="M419.51,815.21 C394.34,843.73 354.8588,888.4514 327.0988,919.9014" fill="none" id="DrupalDrv-to-Core" style="stroke:#000000;stroke-width:1;"/><polygon fill="#000000" points="323.79,923.65,332.7447,919.5495,327.0988,919.9014,326.7469,914.2555,323.79,923.65" style="stroke:#000000;stroke-width:1;stroke-linejoin:miter;stroke-miterlimit:10;"/></g><!--link MinkExt to Mink--><g class="link" data-entity-1="ent0018" data-entity-2="ent0027" data-link-type="dependency" data-source-line="89" id="lnk60"><path d="M1057.98,822.48 C1056.58,842.46 1058.8,867.48 1075,882 C1088.94,894.5 1394.67,882.89 1412,890 C1435.85,899.79 1453.2277,918.1553 1465.3077,933.6653" fill="none" id="MinkExt-to-Mink" style="stroke:#000000;stroke-width:1;"/><polygon fill="#000000" points="1468.38,937.61,1466.0055,928.0517,1465.3077,933.6653,1459.694,932.9674,1468.38,937.61" style="stroke:#000000;stroke-width:1;stroke-linejoin:miter;stroke-miterlimit:10;"/><text fill="#000000" font-family="Helvetica" font-size="13" lengthAdjust="spacing" textLength="91.7681" x="1095.1509" y="865.0103">builds sessions,</text><text fill="#000000" font-family="Helvetica" font-size="13" lengthAdjust="spacing" textLength="130.0698" x="1076" y="878.0103">picks one per scenario</text></g><!--link Consumer to Mink--><g class="link" data-entity-1="ent0004" data-entity-2="ent0027" data-link-type="dependency" data-source-line="90" id="lnk61"><path d="M1435.39,334.45 C1478.66,357.8 1525,394.77 1525,446 C1525,446 1525,446 1525,711.5 C1525,798 1498.4388,894.1975 1486.6188,932.9475" fill="none" id="Consumer-to-Mink" style="stroke:#000000;stroke-width:1;"/><polygon fill="#000000" points="1485.16,937.73,1491.6118,930.2886,1486.6188,932.9475,1483.9599,927.9545,1485.16,937.73" style="stroke:#000000;stroke-width:1;stroke-linejoin:miter;stroke-miterlimit:10;"/></g><!--link Mink to Browser--><g class="link" data-entity-1="ent0027" data-entity-2="ent0028" data-link-type="dependency" data-source-line="91" id="lnk62"><path d="M1480,972.29 C1480,996.44 1480,1037.14 1480,1067.59" fill="none" id="Mink-to-Browser" style="stroke:#000000;stroke-width:1;"/><polygon fill="#000000" points="1480,1072.59,1484,1063.59,1480,1067.59,1476,1063.59,1480,1072.59" style="stroke:#000000;stroke-width:1;stroke-linejoin:miter;stroke-miterlimit:10;"/></g><!--link DrupalDrv to Site--><g class="link" data-entity-1="ent0021" data-entity-2="ent0029" data-link-type="dependency" data-source-line="92" id="lnk63"><path d="M479.96,815.36 C501.92,826.92 530.1,839.7 557,846 C620.21,860.79 784.93,843.57 849,854 C891.19,860.87 899.52,871.68 941,882 C1038.16,906.17 1146.4226,926.3212 1221.7726,939.3012" fill="none" id="DrupalDrv-to-Site" style="stroke:#000000;stroke-width:1;"/><polygon fill="#000000" points="1226.7,940.15,1218.5097,934.6802,1221.7726,939.3012,1217.1516,942.5641,1226.7,940.15" style="stroke:#000000;stroke-width:1;stroke-linejoin:miter;stroke-miterlimit:10;"/></g><!--link DrushDrv to Site--><g class="link" data-entity-1="ent0022" data-entity-2="ent0029" data-link-type="dependency" data-source-line="93" id="lnk64"><path d="M677.57,815.37 C697.56,826.85 723.23,839.57 748,846 C790.41,857.01 901.7,847.29 945,854 C959.18,856.2 1118.8034,900.3881 1222.3934,929.2481" fill="none" id="DrushDrv-to-Site" style="stroke:#000000;stroke-width:1;"/><polygon fill="#000000" points="1227.21,930.59,1219.6137,924.3213,1222.3934,929.2481,1217.4667,932.0279,1227.21,930.59" style="stroke:#000000;stroke-width:1;stroke-linejoin:miter;stroke-miterlimit:10;"/></g><!--link Features to Config--><!--link WebSteps to DrupalSteps--><!--link WebRawCtx to DrupalRawCtx--><!--link DrupalDrv to DrushDrv--><!--link DrushDrv to BlackboxDrv--><?plantuml-src XLTRazCs57xthpXT7fYXIRQmGmiyC0ERfAKTsWvBwKFJOHJx91QhIAua9vif_FT-acp7JhBqAOxELUTyvwA7L5ZUcifTBhaKVkmyLux6fCIUBHUKcqrbD6jFmkQbz9pxsl8aUqZlhSZ1iB9caxWSsyadP_I8dCqlRuAYo_Jz4wkARVFdTR3JV4-jt0O2r4NpawgiGCcjhBoxL5BxSNJ41K8m-exNhDaApyIGtDFDXnzf9ttvWgXIGljwesZitNPDXSdTPT_foqUJ2kJi6r_oXWExr9cxbReILcneAVBRjJMrBgwDCfPsGR17BtWbQkNdHljV1UHngIrxcOiUZoj5ONPIhsabbEjBTt6yyNl5PE6Iq6l5cPSU_w_FXZdBAZWbramNrqQxUXCqLzPy0lc27ipdywlPT_HlHhqqNSnP15bQISLkeHzDLkdWWeIZXkY68bti5vhlF6idZIR7tiEU6osqvRK4CAoZFta9Jpou5bheWgQsheHgZg85VA_aUgZ_jvt6tqOiMYWS2R9Yrnx3I8CXHqWFvIK-DNahf7UjNWI0RVQb5vKpsBr0F62zO_bWSh6ibG1MnWTW8dgpg_cJ-JH6R-1if2yMkEb2FtdMk32YjrBVaj5g7xq1DVBT8vp20ldddRnc54kuMX4n7xKajbRHbu7VgMPSutJw5t9-DNiwVthgzGyXaZdRDcOBhOJp548o0jh-gHd_IXO5T2BOpjkOM_fPRCLDh3ToTLKP6rBXnHAOX2BjGaf6mDBT0LDWI8uJj5h9AJ-DloVtU8Fyhb6m0LBZGmFuobKYFGPbre8H3hFTofnHwy7nQ17KOz5tOjV1CyMPH9wpmqNpYCiwUO8hbCRSKY5T9NnUHdr1sDyTgqIc-rftl4Jdg3TBU86a6cf0bp1nNaMALbyBZgNVKsuvkKEvOg7h2dufivOu2Ewv7aZkTQxJEIX5E5eQvB0KQaKicXjsjI3v1BblXKQ-h0kAGk16zAe6N7NeS4t8_d3X-AsGAcfh9KuqeL9wcTjPWOaI3XywwjeBr8a2NM1fpGvgRwN_M7fV9SL9mGcKacCDYgPD6JsOFPi_dJq_XL5Y2F2pAqogXVwM7dzFkQZ4KgeGVTcIsZX7_d1mFe69OQ6NndZKJxXLKmTIZz6L0yvw6PlQxHazhcpLk9ALScHgJzwWAu3KIWUc4-7N2d5OchjM7jXhp0jC3PLoSc0waRys5a5OILO5OA4B5Je1W2USapYDRG6pogNZ1fbGB8NZjWLRZadfj-1tDI22SHYcWHTspJusr-lPVFxuU3J5oWxDXolQXBeByom87j0UMR8JF64QkG2R3Xz7YXEA5hhv-4Nw4TsmOYthpHDSxBh4ci8qvUrxOrHZAl5cPr9D3YEuAzDNlxzf-yUebwYRi1yW5ErCfV7uPVAVNgIsaALX60a0D8xRBiG3MWFuU-dzkWLJDuwpP2smjECHv1XPC8R0IhqrjzndFD9rZZbhfzivWMPC5xJSPxtvzN-i0vLzP-KT1ylUd6WxpzKfcanUjaFdOCiDjDp3qZNgh-luEa_MkJSUVtxPQ_x3yq7tFXYEjEPqOArF68JpoCefRM0fe2aYg-dH0zIqn5x7wzER3INnXTiVu8ck43QtJ-BkOoXwzAu14pYQVa5JaoC8siyKXv-ikzx1fophl3ldZJFOhp4WzhsUdNMj5JO_3sIojc-UKdfDyQnOep5XBcpTxONRseG_oregNBrfGx5NolmMxLlZ9O5akvmrac7wwK_2KLlg3Kt36PgCRQHplZl9jC4ZPscyn_lAh8x6q_jkaKmlDSHhXVSQDa27fSJ7nXfVPgdmyPm9NemWwGn9Jz9HxUAM5nvFOGObHcMm8HQJg3-iEc5_WD10UpjsukZ0ksrlTDfiiIyMCDcyq8oT17Fdtt9u7qcLLlqOMSIH69xqRpB9y4u8j-5-Z_shb4N1-c-yi_IuVMqSkajBjd9T-l5Wm-vLtrckGJd6N9oofSbyoDOHHmzf_m40?></g></svg>