<svg xmlns="http://www.w3.org/2000/svg" xmlns:xlink="http://www.w3.org/1999/xlink" version="1.1" data-diagram-type="SEQUENCE" style="width:1868px;height:1863px;background:#FFFFFF;" width="1868px" height="1863px" viewBox="0 0 1868 1863" zoomAndPan="magnify" preserveAspectRatio="none" contentStyleType="text/css"><?plantuml 1.2026.8?><defs/><g font-family="sans-serif" lengthAdjust="spacing"><g class="title" data-source-line="15"><text x="819.017" y="31.94" fill="#000" font-size="22" textLength="228.594" font-weight="700" font-family="Helvetica">Data flow: a step runs</text></g><rect x="280.281" y="141" width="837.371" height="109" fill="#FFF" style="stroke:#FFF;stroke-width:1;"/><rect x="280.281" y="141" width="837.371" height="109" fill="none" style="stroke:#000;stroke-width:1;"/><rect x="280.281" y="295" width="1192.048" height="151" fill="#FFF" style="stroke:#FFF;stroke-width:1;"/><rect x="280.281" y="295" width="1192.048" height="151" fill="none" style="stroke:#000;stroke-width:1;"/><rect x="261.281" y="710" width="1399.729" height="229" fill="#FFF" style="stroke:#FFF;stroke-width:1;"/><rect x="261.281" y="710" width="1399.729" height="229" fill="none" style="stroke:#000;stroke-width:1;"/><rect x="280.281" y="860" width="341.351" height="65" fill="#FFF" style="stroke:#FFF;stroke-width:1;"/><rect x="280.281" y="860" width="341.351" height="65" fill="none" style="stroke:#000;stroke-width:1;"/><rect x="570.631" y="1011" width="1252.537" height="401" fill="#FFF" style="stroke:#FFF;stroke-width:1;"/><rect x="570.631" y="1011" width="1252.537" height="401" fill="none" style="stroke:#000;stroke-width:1;"/><rect x="941.763" y="1138" width="714.248" height="123" fill="#FFF" style="stroke:#FFF;stroke-width:1;"/><rect x="941.763" y="1138" width="714.248" height="123" fill="none" style="stroke:#000;stroke-width:1;"/><rect x="589.631" y="1279" width="384.131" height="65" fill="#FFF" style="stroke:#FFF;stroke-width:1;"/><rect x="589.631" y="1279" width="384.131" height="65" fill="none" style="stroke:#000;stroke-width:1;"/><rect x="280.281" y="1430" width="693.482" height="96" fill="#FFF" style="stroke:#FFF;stroke-width:1;"/><rect x="280.281" y="1430" width="693.482" height="96" fill="none" style="stroke:#000;stroke-width:1;"/><g><title>Feature file</title><rect x="56.517" y="102" width="8" height="1701" fill="#000" fill-opacity="0"/><line x1="60.017" y1="102" x2="60.017" y2="1803" style="stroke:#000;stroke-width:1;stroke-dasharray:5,5;"/></g><g><title>Behat</title><rect x="292.781" y="102" width="8" height="1701" fill="#000" fill-opacity="0"/><line x1="296.281" y1="102" x2="296.281" y2="1803" style="stroke:#000;stroke-width:1;stroke-dasharray:5,5;"/></g><g><title></title><rect x="291.281" y="972" width="10" height="587" fill="#FFF" style="stroke:#000;stroke-width:1;"/></g><g><title>WebContext</title><rect x="602.131" y="102" width="8" height="1701" fill="#000" fill-opacity="0"/><line x1="605.631" y1="102" x2="605.631" y2="1803" style="stroke:#000;stroke-width:1;stroke-dasharray:5,5;"/></g><g><title></title><rect x="600.631" y="492" width="10" height="113" fill="#FFF" style="stroke:#000;stroke-width:1;"/></g><g><title></title><rect x="600.631" y="632" width="10" height="321" fill="#FFF" style="stroke:#000;stroke-width:1;"/></g><g><title></title><rect x="600.631" y="1586" width="10" height="199" fill="#FFF" style="stroke:#000;stroke-width:1;"/></g><g><title>Step trait method</title><rect x="954.263" y="102" width="8" height="1701" fill="#000" fill-opacity="0"/><line x1="957.763" y1="102" x2="957.763" y2="1803" style="stroke:#000;stroke-width:1;stroke-dasharray:5,5;"/></g><g><title></title><rect x="952.763" y="999" width="10" height="541" fill="#FFF" style="stroke:#000;stroke-width:1;"/></g><g><title>SkipTagListener</title><rect x="1098.152" y="102" width="8" height="1701" fill="#000" fill-opacity="0"/><line x1="1101.652" y1="102" x2="1101.652" y2="1803" style="stroke:#000;stroke-width:1;stroke-dasharray:5,5;"/></g><g><title></title><rect x="1096.652" y="129" width="10" height="135" fill="#FFF" style="stroke:#000;stroke-width:1;"/></g><g><title>BackendListener</title><rect x="1240.879" y="102" width="8" height="1701" fill="#000" fill-opacity="0"/><line x1="1244.379" y1="102" x2="1244.379" y2="1803" style="stroke:#000;stroke-width:1;stroke-dasharray:5,5;"/></g><g><title></title><rect x="1239.379" y="283" width="10" height="177" fill="#FFF" style="stroke:#000;stroke-width:1;"/></g><g><title>BackendRegistry</title><rect x="1452.829" y="102" width="8" height="1701" fill="#000" fill-opacity="0"/><line x1="1456.329" y1="102" x2="1456.329" y2="1803" style="stroke:#000;stroke-width:1;stroke-dasharray:5,5;"/></g><g><title></title><rect x="1451.329" y="767" width="10" height="27" fill="#FFF" style="stroke:#000;stroke-width:1;"/></g><g><title></title><rect x="1451.329" y="1126" width="10" height="149" fill="#FFF" style="stroke:#000;stroke-width:1;"/></g><g><title>Backend</title><rect x="1636.51" y="102" width="8" height="1701" fill="#000" fill-opacity="0"/><line x1="1640.01" y1="102" x2="1640.01" y2="1803" style="stroke:#000;stroke-width:1;stroke-dasharray:5,5;"/></g><g><title></title><rect x="1635.01" y="821" width="10" height="27" fill="#FFF" style="stroke:#000;stroke-width:1;"/></g><g><title></title><rect x="1635.01" y="1377" width="10" height="27" fill="#FFF" style="stroke:#000;stroke-width:1;"/></g><g><title>Mink session</title><rect x="1798.668" y="102" width="8" height="1701" fill="#000" fill-opacity="0"/><line x1="1802.168" y1="102" x2="1802.168" y2="1803" style="stroke:#000;stroke-width:1;stroke-dasharray:5,5;"/></g><g><title></title><rect x="1797.168" y="1055" width="10" height="27" fill="#FFF" style="stroke:#000;stroke-width:1;"/></g><rect x="20" y="72" width="80.034" height="24" fill="#FFF" style="stroke:#000;stroke-width:1;" rx="2.5" ry="2.5"/><text x="25" y="87.78" fill="#000" font-size="14" textLength="70.034" font-family="Helvetica">Feature file</text><rect x="272.988" y="72" width="46.586" height="24" fill="#FFF" style="stroke:#000;stroke-width:1;" rx="2.5" ry="2.5"/><text x="277.988" y="87.78" fill="#000" font-size="14" textLength="36.586" font-family="Helvetica">Behat</text><rect x="555.887" y="58" width="99.489" height="38" fill="#FFF" style="stroke:#000;stroke-width:1;" rx="2.5" ry="2.5"/><text x="567.114" y="73.78" fill="#000" font-size="14" textLength="77.034" font-family="Helvetica">WebContext</text><text x="560.887" y="87.78" fill="#000" font-size="14" textLength="89.489" font-family="Helvetica">DrupalContext</text><rect x="899.456" y="72" width="116.613" height="24" fill="#FFF" style="stroke:#000;stroke-width:1;" rx="2.5" ry="2.5"/><text x="904.456" y="87.78" fill="#000" font-size="14" textLength="106.613" font-family="Helvetica">Step trait method</text><rect x="1046.069" y="72" width="111.165" height="24" fill="#FFF" style="stroke:#000;stroke-width:1;" rx="2.5" ry="2.5"/><text x="1051.069" y="87.78" fill="#000" font-size="14" textLength="101.165" font-family="Helvetica">SkipTagListener</text><rect x="1187.234" y="72" width="114.289" height="24" fill="#FFF" style="stroke:#000;stroke-width:1;" rx="2.5" ry="2.5"/><text x="1192.234" y="87.78" fill="#000" font-size="14" textLength="104.289" font-family="Helvetica">BackendListener</text><rect x="1398.415" y="72" width="115.827" height="24" fill="#FFF" style="stroke:#000;stroke-width:1;" rx="2.5" ry="2.5"/><text x="1403.415" y="87.78" fill="#000" font-size="14" textLength="105.827" font-family="Helvetica">BackendRegistry</text><rect x="1553.311" y="58" width="173.399" height="38" fill="#FFF" style="stroke:#000;stroke-width:1;" rx="2.5" ry="2.5"/><text x="1612.769" y="73.78" fill="#000" font-size="14" textLength="54.482" font-family="Helvetica">Backend</text><text x="1558.311" y="87.78" fill="#000" font-size="14" textLength="163.399" font-family="Helvetica">Drupal, Drush or Blackbox</text><rect x="1756.71" y="72" width="90.917" height="24" fill="#FFF" style="stroke:#000;stroke-width:1;" rx="2.5" ry="2.5"/><text x="1761.71" y="87.78" fill="#000" font-size="14" textLength="80.917" font-family="Helvetica">Mink session</text><rect x="20" y="1808" width="80.034" height="24" fill="#FFF" style="stroke:#000;stroke-width:1;" rx="2.5" ry="2.5"/><text x="25" y="1823.78" fill="#000" font-size="14" textLength="70.034" font-family="Helvetica">Feature file</text><rect x="272.988" y="1808" width="46.586" height="24" fill="#FFF" style="stroke:#000;stroke-width:1;" rx="2.5" ry="2.5"/><text x="277.988" y="1823.78" fill="#000" font-size="14" textLength="36.586" font-family="Helvetica">Behat</text><rect x="555.887" y="1808" width="99.489" height="38" fill="#FFF" style="stroke:#000;stroke-width:1;" rx="2.5" ry="2.5"/><text x="567.114" y="1823.78" fill="#000" font-size="14" textLength="77.034" font-family="Helvetica">WebContext</text><text x="560.887" y="1837.78" fill="#000" font-size="14" textLength="89.489" font-family="Helvetica">DrupalContext</text><rect x="899.456" y="1808" width="116.613" height="24" fill="#FFF" style="stroke:#000;stroke-width:1;" rx="2.5" ry="2.5"/><text x="904.456" y="1823.78" fill="#000" font-size="14" textLength="106.613" font-family="Helvetica">Step trait method</text><rect x="1046.069" y="1808" width="111.165" height="24" fill="#FFF" style="stroke:#000;stroke-width:1;" rx="2.5" ry="2.5"/><text x="1051.069" y="1823.78" fill="#000" font-size="14" textLength="101.165" font-family="Helvetica">SkipTagListener</text><rect x="1187.234" y="1808" width="114.289" height="24" fill="#FFF" style="stroke:#000;stroke-width:1;" rx="2.5" ry="2.5"/><text x="1192.234" y="1823.78" fill="#000" font-size="14" textLength="104.289" font-family="Helvetica">BackendListener</text><rect x="1398.415" y="1808" width="115.827" height="24" fill="#FFF" style="stroke:#000;stroke-width:1;" rx="2.5" ry="2.5"/><text x="1403.415" y="1823.78" fill="#000" font-size="14" textLength="105.827" font-family="Helvetica">BackendRegistry</text><rect x="1553.311" y="1808" width="173.399" height="38" fill="#FFF" style="stroke:#000;stroke-width:1;" rx="2.5" ry="2.5"/><text x="1612.769" y="1823.78" fill="#000" font-size="14" textLength="54.482" font-family="Helvetica">Backend</text><text x="1558.311" y="1837.78" fill="#000" font-size="14" textLength="163.399" font-family="Helvetica">Drupal, Drush or Blackbox</text><rect x="1756.71" y="1808" width="90.917" height="24" fill="#FFF" style="stroke:#000;stroke-width:1;" rx="2.5" ry="2.5"/><text x="1761.71" y="1823.78" fill="#000" font-size="14" textLength="80.917" font-family="Helvetica">Mink session</text><polygon points="1084.652,125,1094.652,129,1084.652,133,1088.652,129" fill="#000" style="stroke:#000;stroke-width:1;stroke-linejoin:miter;stroke-miterlimit:10;"/><line x1="296.281" y1="129" x2="1090.652" y2="129" style="stroke:#000;stroke-width:1;"/><text x="303.281" y="124.01" fill="#000" font-size="13" textLength="129.353" font-family="Helvetica">BeforeScenarioTested</text><path d="M280.281,141 L340.452,141 L340.452,146 L330.452,156 L280.281,156 L280.281,141" style="stroke:#000;stroke-width:1;" fill="#FFF"/><rect x="280.281" y="141" width="837.371" height="109" fill="none" style="stroke:#000;stroke-width:1;"/><text x="295.281" y="152.01" fill="#000" font-size="13" textLength="15.171" font-weight="700" font-family="Helvetica">alt</text><text x="355.452" y="151.47" fill="#000" font-size="11" textLength="241.839" font-weight="700" font-family="Helvetica">[every "@behat-steps-skip:" tag names a trait]</text><polygon points="307.281,181,297.281,185,307.281,189,303.281,185" fill="#000" style="stroke:#000;stroke-width:1;stroke-linejoin:miter;stroke-miterlimit:10;"/><line x1="301.281" y1="185" x2="1095.652" y2="185" style="stroke:#000;stroke-width:1;stroke-dasharray:2,2;"/><text x="313.281" y="180.01" fill="#000" font-size="13" textLength="49.15" font-family="Helvetica">continue</text><line x1="280.281" y1="194" x2="1117.652" y2="194" style="stroke:#000;stroke-width:1;stroke-dasharray:2,2;"/><text x="285.281" y="204.47" fill="#000" font-size="11" textLength="190.706" font-weight="700" font-family="Helvetica">[one names a hook or anything else]</text><polygon points="307.281,238,297.281,242,307.281,246,303.281,242" fill="#000" style="stroke:#000;stroke-width:1;stroke-linejoin:miter;stroke-miterlimit:10;"/><line x1="301.281" y1="242" x2="1095.652" y2="242" style="stroke:#000;stroke-width:1;"/><text x="313.281" y="224.01" fill="#000" font-size="13" textLength="144.511" font-family="Helvetica">throw RuntimeException,</text><text x="313.281" y="237.01" fill="#000" font-size="13" textLength="172.002" font-family="Helvetica">the run stops before any hook</text><polygon points="1227.379,279,1237.379,283,1227.379,287,1231.379,283" fill="#000" style="stroke:#000;stroke-width:1;stroke-linejoin:miter;stroke-miterlimit:10;"/><line x1="296.281" y1="283" x2="1233.379" y2="283" style="stroke:#000;stroke-width:1;"/><text x="303.281" y="278.01" fill="#000" font-size="13" textLength="129.353" font-family="Helvetica">BeforeScenarioTested</text><path d="M280.281,295 L340.452,295 L340.452,300 L330.452,310 L280.281,310 L280.281,295" style="stroke:#000;stroke-width:1;" fill="#FFF"/><rect x="280.281" y="295" width="1192.048" height="151" fill="none" style="stroke:#000;stroke-width:1;"/><text x="295.281" y="306.01" fill="#000" font-size="13" textLength="15.171" font-weight="700" font-family="Helvetica">alt</text><text x="355.452" y="305.47" fill="#000" font-size="11" textLength="268.136" font-weight="700" font-family="Helvetica">[the scenario or its feature carries a "@driver:" tag]</text><polygon points="307.281,348,297.281,352,307.281,356,303.281,352" fill="#000" style="stroke:#000;stroke-width:1;stroke-linejoin:miter;stroke-miterlimit:10;"/><line x1="301.281" y1="352" x2="1238.379" y2="352" style="stroke:#000;stroke-width:1;"/><text x="313.281" y="334.01" fill="#000" font-size="13" textLength="187.148" font-family="Helvetica">throw RuntimeException naming</text><text x="313.281" y="347.01" fill="#000" font-size="13" textLength="203.112" font-family="Helvetica">the "@backend:" tag to use instead</text><line x1="280.281" y1="361" x2="1472.329" y2="361" style="stroke:#000;stroke-width:1;stroke-dasharray:2,2;"/><line x1="1249.379" y1="398" x2="1291.379" y2="398" style="stroke:#000;stroke-width:1;"/><line x1="1291.379" y1="398" x2="1291.379" y2="411" style="stroke:#000;stroke-width:1;"/><line x1="1250.379" y1="411" x2="1291.379" y2="411" style="stroke:#000;stroke-width:1;"/><polygon points="1260.379,407,1250.379,411,1260.379,415,1256.379,411" fill="#000" style="stroke:#000;stroke-width:1;stroke-linejoin:miter;stroke-miterlimit:10;"/><text x="1256.379" y="380.01" fill="#000" font-size="13" textLength="192.95" font-family="Helvetica">take the configured backends list,</text><text x="1256.379" y="393.01" fill="#000" font-size="13" textLength="183.574" font-family="Helvetica">promote every "@backend:" tag</text><polygon points="1444.329,434,1454.329,438,1444.329,442,1448.329,438" fill="#000" style="stroke:#000;stroke-width:1;stroke-linejoin:miter;stroke-miterlimit:10;"/><line x1="1249.379" y1="438" x2="1450.329" y2="438" style="stroke:#000;stroke-width:1;"/><text x="1256.379" y="433.01" fill="#000" font-size="13" textLength="164.747" font-family="Helvetica">setScenarioBackends(order)</text><polygon points="588.631,488,598.631,492,588.631,496,592.631,492" fill="#000" style="stroke:#000;stroke-width:1;stroke-linejoin:miter;stroke-miterlimit:10;"/><line x1="296.281" y1="492" x2="594.631" y2="492" style="stroke:#000;stroke-width:1;"/><text x="303.281" y="474.01" fill="#000" font-size="13" textLength="201.621" font-family="Helvetica">instantiate each registered context,</text><text x="303.281" y="487.01" fill="#000" font-size="13" textLength="265.897" font-family="Helvetica">inject the services via BackendAwareInitializer</text><polygon points="588.631,515,598.631,519,588.631,523,592.631,519" fill="#000" style="stroke:#000;stroke-width:1;stroke-linejoin:miter;stroke-miterlimit:10;"/><line x1="296.281" y1="519" x2="594.631" y2="519" style="stroke:#000;stroke-width:1;"/><text x="303.281" y="514.01" fill="#000" font-size="13" textLength="271.711" font-family="Helvetica">scan the Given, When and Then step attributes</text><path d="M301.281,532 L301.281,581 L428.281,581 L428.281,542 L418.281,532 L301.281,532" style="stroke:#000;stroke-width:1;" fill="#FFF"/><path d="M418.281,532 L418.281,542 L428.281,542 L418.281,532" style="stroke:#000;stroke-width:1;" fill="#FFF"/><text x="307.281" y="547.01" fill="#000" font-size="13" textLength="106.952" font-family="Helvetica">attributes inherited</text><text x="307.281" y="560.01" fill="#000" font-size="13" textLength="100.293" font-family="Helvetica">through "use" are</text><text x="307.281" y="573.01" fill="#000" font-size="13" textLength="54.215" font-family="Helvetica">found too</text><polygon points="307.281,601,297.281,605,307.281,609,303.281,605" fill="#000" style="stroke:#000;stroke-width:1;stroke-linejoin:miter;stroke-miterlimit:10;"/><line x1="301.281" y1="605" x2="599.631" y2="605" style="stroke:#000;stroke-width:1;stroke-dasharray:2,2;"/><text x="313.281" y="600.01" fill="#000" font-size="13" textLength="86.722" font-family="Helvetica">step definitions</text><polygon points="588.631,628,598.631,632,588.631,636,592.631,632" fill="#000" style="stroke:#000;stroke-width:1;stroke-linejoin:miter;stroke-miterlimit:10;"/><line x1="296.281" y1="632" x2="594.631" y2="632" style="stroke:#000;stroke-width:1;"/><text x="303.281" y="627.01" fill="#000" font-size="13" textLength="89.61" font-family="Helvetica">BeforeScenario</text><line x1="610.631" y1="685" x2="652.631" y2="685" style="stroke:#000;stroke-width:1;"/><line x1="652.631" y1="685" x2="652.631" y2="698" style="stroke:#000;stroke-width:1;"/><line x1="611.631" y1="698" x2="652.631" y2="698" style="stroke:#000;stroke-width:1;"/><polygon points="621.631,694,611.631,698,621.631,702,617.631,698" fill="#000" style="stroke:#000;stroke-width:1;stroke-linejoin:miter;stroke-miterlimit:10;"/><text x="617.631" y="654.01" fill="#000" font-size="13" textLength="309.245" font-family="Helvetica">each hook asks skipTag() for its own trait, and returns</text><text x="617.631" y="667.01" fill="#000" font-size="13" textLength="305.614" font-family="Helvetica">on the trait's skip tag or enabled = FALSE, or records</text><text x="617.631" y="680.01" fill="#000" font-size="13" textLength="295.122" font-family="Helvetica">the answer for the trait's step hooks and transforms</text><path d="M261.281,710 L326.492,710 L326.492,715 L316.492,725 L261.281,725 L261.281,710" style="stroke:#000;stroke-width:1;" fill="#FFF"/><rect x="261.281" y="710" width="1399.729" height="229" fill="none" style="stroke:#000;stroke-width:1;"/><text x="276.281" y="721.01" fill="#000" font-size="13" textLength="20.211" font-weight="700" font-family="Helvetica">opt</text><text x="341.492" y="720.47" fill="#000" font-size="11" textLength="205.568" font-weight="700" font-family="Helvetica">[the hook's trait declares prerequisites]</text><polygon points="1439.329,763,1449.329,767,1439.329,771,1443.329,767" fill="#000" style="stroke:#000;stroke-width:1;stroke-linejoin:miter;stroke-miterlimit:10;"/><line x1="610.631" y1="767" x2="1445.329" y2="767" style="stroke:#000;stroke-width:1;"/><text x="617.631" y="749.01" fill="#000" font-size="13" textLength="268.062" font-family="Helvetica">assertPrerequisites(): hasCapability(), then the</text><text x="617.631" y="762.01" fill="#000" font-size="13" textLength="282.56" font-family="Helvetica">backend already reached, else the first one listed</text><polygon points="621.631,790,611.631,794,621.631,798,617.631,794" fill="#000" style="stroke:#000;stroke-width:1;stroke-linejoin:miter;stroke-miterlimit:10;"/><line x1="615.631" y1="794" x2="1450.329" y2="794" style="stroke:#000;stroke-width:1;stroke-dasharray:2,2;"/><text x="627.631" y="789.01" fill="#000" font-size="13" textLength="205.969" font-family="Helvetica">a backend providing each capability</text><polygon points="1623.01,817,1633.01,821,1623.01,825,1627.01,821" fill="#000" style="stroke:#000;stroke-width:1;stroke-linejoin:miter;stroke-miterlimit:10;"/><line x1="610.631" y1="821" x2="1629.01" y2="821" style="stroke:#000;stroke-width:1;"/><text x="617.631" y="816.01" fill="#000" font-size="13" textLength="248.435" font-family="Helvetica">each check, e.g. moduleIsEnabled("dblog")</text><polygon points="621.631,844,611.631,848,621.631,852,617.631,848" fill="#000" style="stroke:#000;stroke-width:1;stroke-linejoin:miter;stroke-miterlimit:10;"/><line x1="615.631" y1="848" x2="1634.01" y2="848" style="stroke:#000;stroke-width:1;stroke-dasharray:2,2;"/><text x="627.631" y="843.01" fill="#000" font-size="13" textLength="67.933" font-family="Helvetica">holds or not</text><path d="M280.281,860 L340.452,860 L340.452,865 L330.452,875 L280.281,875 L280.281,860" style="stroke:#000;stroke-width:1;" fill="#FFF"/><rect x="280.281" y="860" width="341.351" height="65" fill="none" style="stroke:#000;stroke-width:1;"/><text x="295.281" y="871.01" fill="#000" font-size="13" textLength="15.171" font-weight="700" font-family="Helvetica">alt</text><text x="355.452" y="870.47" fill="#000" font-size="11" textLength="102.04" font-weight="700" font-family="Helvetica">[one does not hold]</text><polygon points="307.281,913,297.281,917,307.281,921,303.281,917" fill="#000" style="stroke:#000;stroke-width:1;stroke-linejoin:miter;stroke-miterlimit:10;"/><line x1="301.281" y1="917" x2="599.631" y2="917" style="stroke:#000;stroke-width:1;"/><text x="313.281" y="899.01" fill="#000" font-size="13" textLength="221.857" font-family="Helvetica">throw, naming the prerequisite and the</text><text x="313.281" y="912.01" fill="#000" font-size="13" textLength="280.351" font-family="Helvetica">switches; the scenario fails, its steps are skipped</text><polygon points="279.281,968,289.281,972,279.281,976,283.281,972" fill="#000" style="stroke:#000;stroke-width:1;stroke-linejoin:miter;stroke-miterlimit:10;"/><line x1="60.017" y1="972" x2="285.281" y2="972" style="stroke:#000;stroke-width:1;"/><text x="67.017" y="967.01" fill="#000" font-size="13" textLength="207.264" font-family="Helvetica">Then the path should be "/about-us"</text><polygon points="940.763,995,950.763,999,940.763,1003,944.763,999" fill="#000" style="stroke:#000;stroke-width:1;stroke-linejoin:miter;stroke-miterlimit:10;"/><line x1="301.281" y1="999" x2="946.763" y2="999" style="stroke:#000;stroke-width:1;"/><text x="308.281" y="994.01" fill="#000" font-size="13" textLength="139.452" font-family="Helvetica">pathAssertCurrent(path)</text><path d="M570.631,1011 L630.802,1011 L630.802,1016 L620.802,1026 L570.631,1026 L570.631,1011" style="stroke:#000;stroke-width:1;" fill="#FFF"/><rect x="570.631" y="1011" width="1252.537" height="401" fill="none" style="stroke:#000;stroke-width:1;"/><text x="585.631" y="1022.01" fill="#000" font-size="13" textLength="15.171" font-weight="700" font-family="Helvetica">alt</text><text x="645.802" y="1021.47" fill="#000" font-size="11" textLength="175.42" font-weight="700" font-family="Helvetica">[the step only needs the browser]</text><polygon points="1785.168,1051,1795.168,1055,1785.168,1059,1789.168,1055" fill="#000" style="stroke:#000;stroke-width:1;stroke-linejoin:miter;stroke-miterlimit:10;"/><line x1="962.763" y1="1055" x2="1791.168" y2="1055" style="stroke:#000;stroke-width:1;"/><text x="969.763" y="1050.01" fill="#000" font-size="13" textLength="171.583" font-family="Helvetica">getSession()->getCurrentUrl()</text><polygon points="973.763,1078,963.763,1082,973.763,1086,969.763,1082" fill="#000" style="stroke:#000;stroke-width:1;stroke-linejoin:miter;stroke-miterlimit:10;"/><line x1="967.763" y1="1082" x2="1796.168" y2="1082" style="stroke:#000;stroke-width:1;stroke-dasharray:2,2;"/><text x="979.763" y="1077.01" fill="#000" font-size="13" textLength="70.078" font-family="Helvetica">current URL</text><line x1="570.631" y1="1091" x2="1823.168" y2="1091" style="stroke:#000;stroke-width:1;stroke-dasharray:2,2;"/><text x="575.631" y="1101.47" fill="#000" font-size="11" textLength="122.241" font-weight="700" font-family="Helvetica">[the step needs Drupal]</text><polygon points="1439.329,1122,1449.329,1126,1439.329,1130,1443.329,1126" fill="#000" style="stroke:#000;stroke-width:1;stroke-linejoin:miter;stroke-miterlimit:10;"/><line x1="962.763" y1="1126" x2="1445.329" y2="1126" style="stroke:#000;stroke-width:1;"/><text x="969.763" y="1121.01" fill="#000" font-size="13" textLength="230.509" font-family="Helvetica">backendFor(ContentCapabilityInterface)</text><path d="M941.763,1138 L1001.934,1138 L1001.934,1143 L991.934,1153 L941.763,1153 L941.763,1138" style="stroke:#000;stroke-width:1;" fill="#FFF"/><rect x="941.763" y="1138" width="714.248" height="123" fill="none" style="stroke:#000;stroke-width:1;"/><text x="956.763" y="1149.01" fill="#000" font-size="13" textLength="15.171" font-weight="700" font-family="Helvetica">alt</text><text x="1016.934" y="1148.47" fill="#000" font-size="11" textLength="255.686" font-weight="700" font-family="Helvetica">[a backend in the scenario's order implements it]</text><polygon points="1628.01,1178,1638.01,1182,1628.01,1186,1632.01,1182" fill="#000" style="stroke:#000;stroke-width:1;stroke-linejoin:miter;stroke-miterlimit:10;"/><line x1="1461.329" y1="1182" x2="1634.01" y2="1182" style="stroke:#000;stroke-width:1;"/><text x="1468.329" y="1177.01" fill="#000" font-size="13" textLength="159.682" font-family="Helvetica">bootstrap, the first time only</text><polygon points="973.763,1205,963.763,1209,973.763,1213,969.763,1209" fill="#000" style="stroke:#000;stroke-width:1;stroke-linejoin:miter;stroke-miterlimit:10;"/><line x1="967.763" y1="1209" x2="1450.329" y2="1209" style="stroke:#000;stroke-width:1;stroke-dasharray:2,2;"/><text x="979.763" y="1204.01" fill="#000" font-size="13" textLength="74.445" font-family="Helvetica">that backend</text><line x1="941.763" y1="1218" x2="1656.01" y2="1218" style="stroke:#000;stroke-width:1;stroke-dasharray:2,2;"/><text x="946.763" y="1228.47" fill="#000" font-size="11" textLength="62.332" font-weight="700" font-family="Helvetica">[none does]</text><polygon points="973.763,1249,963.763,1253,973.763,1257,969.763,1253" fill="#000" style="stroke:#000;stroke-width:1;stroke-linejoin:miter;stroke-miterlimit:10;"/><line x1="967.763" y1="1253" x2="1450.329" y2="1253" style="stroke:#000;stroke-width:1;"/><text x="979.763" y="1248.01" fill="#000" font-size="13" textLength="253.652" font-family="Helvetica">throw UnsupportedBackendActionException</text><path d="M589.631,1279 L654.842,1279 L654.842,1284 L644.842,1294 L589.631,1294 L589.631,1279" style="stroke:#000;stroke-width:1;" fill="#FFF"/><rect x="589.631" y="1279" width="384.131" height="65" fill="none" style="stroke:#000;stroke-width:1;"/><text x="604.631" y="1290.01" fill="#000" font-size="13" textLength="20.211" font-weight="700" font-family="Helvetica">opt</text><text x="669.842" y="1289.47" fill="#000" font-size="11" textLength="201.91" font-weight="700" font-family="Helvetica">[the step's trait declares prerequisites]</text><polygon points="616.631,1332,606.631,1336,616.631,1340,612.631,1336" fill="#000" style="stroke:#000;stroke-width:1;stroke-linejoin:miter;stroke-miterlimit:10;"/><line x1="610.631" y1="1336" x2="951.763" y2="1336" style="stroke:#000;stroke-width:1;"/><text x="622.631" y="1318.01" fill="#000" font-size="13" textLength="268.76" font-family="Helvetica">assertPrerequisites() for its own trait, the same</text><text x="622.631" y="1331.01" fill="#000" font-size="13" textLength="273.152" font-family="Helvetica">checks, run only when a scenario uses the step</text><polygon points="1623.01,1373,1633.01,1377,1623.01,1381,1627.01,1377" fill="#000" style="stroke:#000;stroke-width:1;stroke-linejoin:miter;stroke-miterlimit:10;"/><line x1="962.763" y1="1377" x2="1629.01" y2="1377" style="stroke:#000;stroke-width:1;"/><text x="969.763" y="1372.01" fill="#000" font-size="13" textLength="231.956" font-family="Helvetica">the capability call, e.g. createNode(stub)</text><polygon points="973.763,1400,963.763,1404,973.763,1408,969.763,1404" fill="#000" style="stroke:#000;stroke-width:1;stroke-linejoin:miter;stroke-miterlimit:10;"/><line x1="967.763" y1="1404" x2="1634.01" y2="1404" style="stroke:#000;stroke-width:1;stroke-dasharray:2,2;"/><text x="979.763" y="1399.01" fill="#000" font-size="13" textLength="31.789" font-family="Helvetica">result</text><path d="M280.281,1430 L340.452,1430 L340.452,1435 L330.452,1445 L280.281,1445 L280.281,1430" style="stroke:#000;stroke-width:1;" fill="#FFF"/><rect x="280.281" y="1430" width="693.482" height="96" fill="none" style="stroke:#000;stroke-width:1;"/><text x="295.281" y="1441.01" fill="#000" font-size="13" textLength="15.171" font-weight="700" font-family="Helvetica">alt</text><text x="355.452" y="1440.47" fill="#000" font-size="11" textLength="88.623" font-weight="700" font-family="Helvetica">[assertion holds]</text><polygon points="312.281,1470,302.281,1474,312.281,1478,308.281,1474" fill="#000" style="stroke:#000;stroke-width:1;stroke-linejoin:miter;stroke-miterlimit:10;"/><line x1="306.281" y1="1474" x2="951.763" y2="1474" style="stroke:#000;stroke-width:1;stroke-dasharray:2,2;"/><text x="318.281" y="1469.01" fill="#000" font-size="13" textLength="23.848" font-family="Helvetica">void</text><line x1="280.281" y1="1483" x2="973.763" y2="1483" style="stroke:#000;stroke-width:1;stroke-dasharray:2,2;"/><text x="285.281" y="1493.47" fill="#000" font-size="11" textLength="62.933" font-weight="700" font-family="Helvetica">[it does not]</text><polygon points="312.281,1514,302.281,1518,312.281,1522,308.281,1518" fill="#000" style="stroke:#000;stroke-width:1;stroke-linejoin:miter;stroke-miterlimit:10;"/><line x1="306.281" y1="1518" x2="951.763" y2="1518" style="stroke:#000;stroke-width:1;"/><text x="318.281" y="1513.01" fill="#000" font-size="13" textLength="290.488" font-family="Helvetica">throw ExpectationException or AssertionException</text><polygon points="71.017,1555,61.017,1559,71.017,1563,67.017,1559" fill="#000" style="stroke:#000;stroke-width:1;stroke-linejoin:miter;stroke-miterlimit:10;"/><line x1="65.017" y1="1559" x2="290.281" y2="1559" style="stroke:#000;stroke-width:1;stroke-dasharray:2,2;"/><text x="77.017" y="1554.01" fill="#000" font-size="13" textLength="111.274" font-family="Helvetica">step passes or fails</text><polygon points="588.631,1582,598.631,1586,588.631,1590,592.631,1586" fill="#000" style="stroke:#000;stroke-width:1;stroke-linejoin:miter;stroke-miterlimit:10;"/><line x1="296.281" y1="1586" x2="594.631" y2="1586" style="stroke:#000;stroke-width:1;"/><text x="303.281" y="1581.01" fill="#000" font-size="13" textLength="78.762" font-family="Helvetica">AfterScenario</text><line x1="610.631" y1="1639" x2="652.631" y2="1639" style="stroke:#000;stroke-width:1;"/><line x1="652.631" y1="1639" x2="652.631" y2="1652" style="stroke:#000;stroke-width:1;"/><line x1="611.631" y1="1652" x2="652.631" y2="1652" style="stroke:#000;stroke-width:1;"/><polygon points="621.631,1648,611.631,1652,621.631,1656,617.631,1652" fill="#000" style="stroke:#000;stroke-width:1;stroke-linejoin:miter;stroke-miterlimit:10;"/><text x="617.631" y="1608.01" fill="#000" font-size="13" textLength="291.173" font-family="Helvetica">each hook asks skipTag() for its own trait, or reads</text><text x="617.631" y="1621.01" fill="#000" font-size="13" textLength="333.131" font-family="Helvetica">the answer its BeforeScenario hook recorded, and returns</text><text x="617.631" y="1634.01" fill="#000" font-size="13" textLength="239.872" font-family="Helvetica">on the trait's skip tag or enabled = FALSE</text><line x1="610.631" y1="1692" x2="652.631" y2="1692" style="stroke:#000;stroke-width:1;"/><line x1="652.631" y1="1692" x2="652.631" y2="1705" style="stroke:#000;stroke-width:1;"/><line x1="611.631" y1="1705" x2="652.631" y2="1705" style="stroke:#000;stroke-width:1;"/><polygon points="621.631,1701,611.631,1705,621.631,1709,617.631,1705" fill="#000" style="stroke:#000;stroke-width:1;stroke-linejoin:miter;stroke-miterlimit:10;"/><text x="617.631" y="1674.01" fill="#000" font-size="13" textLength="307.093" font-family="Helvetica">a teardown asks prerequisitesMet() and returns when</text><text x="617.631" y="1687.01" fill="#000" font-size="13" textLength="328.091" font-family="Helvetica">one does not hold, so it never replaces a recorded failure</text><line x1="610.631" y1="1745" x2="652.631" y2="1745" style="stroke:#000;stroke-width:1;"/><line x1="652.631" y1="1745" x2="652.631" y2="1758" style="stroke:#000;stroke-width:1;"/><line x1="611.631" y1="1758" x2="652.631" y2="1758" style="stroke:#000;stroke-width:1;"/><polygon points="621.631,1754,611.631,1758,621.631,1762,617.631,1758" fill="#000" style="stroke:#000;stroke-width:1;stroke-linejoin:miter;stroke-miterlimit:10;"/><text x="617.631" y="1727.01" fill="#000" font-size="13" textLength="305.627" font-family="Helvetica">EntityLifecycleTrait runs entityLifecycleAfterScenario,</text><text x="617.631" y="1740.01" fill="#000" font-size="13" textLength="263.745" font-family="Helvetica">AuthTrait authAfterScenario: users, then roles</text><polygon points="1628.01,1781,1638.01,1785,1628.01,1789,1632.01,1785" fill="#000" style="stroke:#000;stroke-width:1;stroke-linejoin:miter;stroke-miterlimit:10;"/><line x1="610.631" y1="1785" x2="1634.01" y2="1785" style="stroke:#000;stroke-width:1;"/><text x="617.631" y="1780.01" fill="#000" font-size="13" textLength="187.897" font-family="Helvetica">delete what the scenario created</text><?plantuml-src hLXDSzis4BtpLw2wMEf8rbsTPk8uTfeP9zEndURY2qH28YeAO05Gillh-tO1VibAckdqu349B1QxRzz-K1UYSEfWQxzSgrA6XG-gzc8X2Xcas5JsA3RM2IbeNRZ666ssGXkivDRuPa-ljRD_gZnSPXVYqSbS5MBZx5vuboyVIDtogrelVvUXnAuEbtLPpmURxrrJosfvRKrG9lGYqFPAwAiCULdOxOcYTsJwydUddFghqLu7jMoFnorM_Xp8a7jvJ6_nF9Q6x-dORwggbMkllJ51XvSxlL7vIrwfazl7ibVDq4-eY-kZEtl3xjLM--1UbkzalbEcQD-7jaJ9EwmhWtiUThf-bDls_JkIIUT8Cih5ZMHoUelRp8BN-5C4tykWpaQGDg_oN7clrxe2KfqKKG8kqUquBDH1kHVnyCS7STIXN0bHLzA4Pb-9HV27hIXixfVIvIKYc8V6gUNFbpMsivz2gVQAnBN9_4wRMZgv5sjOldMsCSMrhK3J8nqSx1Tg8vigt0BxpnBd4Qc32ZgN0nbVoi8UYSORMNcL8TAL4kzR-gy6tFTPXZCuhskOBIQtIfAHOgChDH7IYxGmbkAWy3O_ZJTxzZsP4L7um7Lu7eiJtY8GkcAlGcaB5cEuJmJ7964nMciNJamS4uMblolPqfGbsvUpagrRSye3Nmf4wLs5hRLzZfX4iV7PJzhiX2S-MSDIj91bZ9zOl1bviWAiA57g8LT6EcqV5TQBJEP17uXp8wzb5H899sy7zMu1EjIhYGXoAmo8uX5qHZaJe_DYWSlPYXMLlw1Dep85rWXhL7Uoj7P7Vahp4aeY5acyqjGf2gL3bRrle6wlRfvpLGUuFNyou3on3lH3UKPYafUab2_82BH2dNUpH-f7KHeXH1Vx94YEwE359d4zbyvfTdFojd0QM4RSuDyF-qP80PVe8G8HAP3m3rOq05GRA9D5bh0Rwkvz2dAds5e4OwEtiAyGIPiN5SI08fhJtdQrv-Is4yqjarSWNsYXIWprK-iAvMQdm9y17McxOWT0PirrJ-QbSAnSaOrvp75OfmrrpeYuSWUD8YeEMhPfSNMKJdqq6ceg_JU5fxsMIiFuGfzBmue-82e6ZQrKQDEc48_qm3LCXk3qkWdAPuOmSNfR1c4tRRZwVPXVAeTgMb2KK6AtfPWWBiX6fvxCXcekGcKpN3tC2hu6PLUJpHWGXaYHoISsZqavzeur9pa6aFDA-fqNFbQtwOo74wAdFPgOiNDssIcGrVWdOoCal7KH3pBBS0nthYi4urTnUtNtS3EdDQToHDb7PahZZ-05NJ7IGIwIBPwlmhBnaDdxpDOnahG9mLYd2vLNmCnZIkh74m_Y9VzwpaaF2eJX5EEdivKefR-MjOoTTJgRqnNirPD9N1QoSiYL5vWFd5Gnvuh3fcoqyu6h4wK3Cbw83kIkRelkaKF9YCisaMYwE-Y2wnX58UzimRb1T0VQacU9mobwC2pVmRBBxQNOswAfr4T_4qCmdHJhocudiw5rRMCGxLDlMsahv3V20XAFZUWFKHqZjmiBw277Xx3UMpUeKFDKaHYoOPnYX0bgZua5BlXVnjLn8tNbvqp1E3aZrCooch4cMqxg1MT1EpdqTZoce8eQSpA64jjKg6KeZqkvjarOD7xIfqSS9BfKulw_ufDNpA7hnZdCqbDQcVN7ufpGbtWYiZNLYp1A0L1QMmCDQ83fB4pQgVUkn1O5CJRawMpn1c_fZY-kcexYngrQy3-EM38kZ-BYo_tTE6Git_6LROhcnBbXQ4cVAecRjzPDqtT3do8VyUus-0oPVOFiv7zFRsr64RqWOg7E2xslAyoS1f7bEM2O90DkhwqDM9JrV91lrEqOsPDpFHo1GhVksCh-cvQlhsxh3b4t_OBFhhgs3jdSTecSQctNNXFllfMTRPKYgF-zIWtWZtNXN94wLuRv2an4JuOp7qb2impJxSYTgKyYz1NVcTHPtztROSsTleip7gig5PGSbI-epxPGKn-QzGyKaWGfNCO7mlaYGd-SBD5d6bouylIszUbxi3hEAeB0J3LdvCHm8Bfvhj7rvIXgLC-kselwM9vKZvJ2AVMXDrMIr7bhCfLB8nUcuSbOCqxwxzK6kVB_jb_kelAaXvBCkDT7TR7VKiVwZrrxP2Q6TYLTGSQmdICkVr811W-kOHe-cLTD0b-sbg9eQ6A4C3uwSnvuMsCPM_hC6zvzxYS2_cQ4nQET4UIO0BlV2uJ4qsXtHPdXVEhupbR8oDFUMgXA8M97YkgeCyMKE6qz_m00?></g></svg>